<?xml version="1.0" standalone="no"?>
<!DOCTYPE svg PUBLIC "-//W3C//DTD SVG 1.1//EN" "http://www.w3.org/Graphics/SVG/1.1/DTD/svg11.dtd" >
<svg xmlns="http://www.w3.org/2000/svg" xmlns:xlink="http://www.w3.org/1999/xlink" version="1.1">
<metadata>
Created by FontForge 20161116 at Thu Feb 13 17:50:43 2014
 By Jimmy Warting
\\uFFFD 2010 Paul Barnes and Christian Schwartz, under exclusive license to Schwartzco Inc./Commercial Type. All rights reserved.
</metadata>
<defs>
<font id="PublicoHeadline-Medium" horiz-adv-x="603" >
  <font-face 
    font-family="Publico Headline Medium"
    font-weight="500"
    font-stretch="normal"
    units-per-em="1000"
    panose-1="2 4 6 2 6 5 4 6 2 3"
    ascent="801"
    descent="-199"
    x-height="515"
    cap-height="693"
    bbox="-135 -248 1204 1059"
    underline-thickness="50"
    underline-position="-100"
    stemh="39"
    stemv="134"
    unicode-range="U+0020-FB04"
  />
<missing-glyph horiz-adv-x="500" 
 />
    <glyph glyph-name="f_b" unicode="fb" horiz-adv-x="909" 
d="M592 -12c-88 0 -152 15 -209 48v599c-33 4 -49 24 -52 64c-2 20 -8 25 -26 25c-48 0 -92 -25 -92 -120v-89h110l-12 -52h-98v-373c0 -47 3 -52 31 -58l44 -9v-23h-273v23l32 8c27 8 32 14 32 55v377h-70v22l70 31v25c0 139 99 218 248 218c63 0 103 -16 120 -40l64 37
l9 -7s-3 -45 -3 -119v-73c0 -51 -3 -92 -3 -92h5c40 34 98 64 167 64c94 0 196 -60 196 -245c0 -201 -122 -296 -290 -296zM604 25c93 0 139 51 139 230c0 143 -48 199 -133 199c-46 0 -75 -15 -93 -23v-370c21 -22 49 -36 87 -36z" />
    <glyph glyph-name="f_f" unicode="ff" horiz-adv-x="635" 
d="M320 0v23l30 8c27 8 33 14 33 55v377h-170v-373c0 -47 3 -52 30 -59l31 -8v-23h-259v23l32 8c27 8 32 14 32 55v377h-70v22l70 31v23c0 130 94 209 229 209c70 0 110 -26 110 -69c0 -4 -1 -7 -1 -10c39 57 111 90 204 90c72 0 111 -26 111 -70c0 -32 -19 -53 -55 -53
c-41 0 -61 18 -65 61c-2 22 -6 27 -19 27c-38 0 -76 -25 -76 -110v-99h114l-12 -52h-102v-373c0 -47 4 -53 31 -58l44 -9v-23h-272zM213 602v-87h170v35c0 34 6 64 18 91c-8 -7 -19 -11 -34 -11c-39 0 -58 16 -62 55c-2 23 -7 28 -20 28c-40 0 -72 -26 -72 -111z" />
    <glyph glyph-name="f_f_b" unicode="ffb" horiz-adv-x="1213" 
d="M322 0v23l31 8c25 7 30 12 30 55v377h-170v-373c0 -47 3 -52 30 -59l31 -8v-23h-259v23l32 8c27 8 32 14 32 55v377h-70v22l70 31v23c0 130 94 209 229 209c70 0 110 -26 110 -69c0 -6 -1 -13 -3 -18c40 63 117 98 216 98c63 0 103 -16 120 -40l64 37l9 -7
s-4 -45 -4 -119v-73c0 -51 -2 -92 -2 -92h4c41 34 99 64 167 64c95 0 197 -60 197 -245c0 -201 -122 -296 -290 -296c-89 0 -152 15 -210 48v599c-33 5 -48 24 -51 64c-2 20 -9 25 -26 25c-49 0 -92 -25 -92 -120v-89h110l-12 -52h-98v-373c0 -47 3 -52 31 -58l44 -9v-23
h-270zM907 25c94 0 140 51 140 230c0 143 -49 199 -133 199c-46 0 -75 -15 -94 -23v-370c22 -22 50 -36 87 -36zM213 602v-87h170v26c0 40 8 75 23 104c-8 -9 -21 -15 -39 -15c-39 0 -58 16 -62 55c-2 23 -7 28 -20 28c-40 0 -72 -26 -72 -111z" />
    <glyph glyph-name="f_f_h" unicode="ffh" horiz-adv-x="1215" 
d="M322 0v23l31 8c25 7 30 12 30 55v377h-170v-373c0 -47 3 -52 30 -59l31 -8v-23h-259v23l32 8c27 8 32 14 32 55v377h-70v22l70 31v23c0 130 94 209 229 209c70 0 110 -26 110 -69c0 -6 -1 -13 -3 -18c40 63 117 98 216 98c63 0 103 -16 120 -40l64 37l9 -7
s-4 -52 -4 -119v-73c0 -51 -3 -94 -3 -94h5c51 35 118 66 186 66c92 0 132 -43 132 -133v-310c0 -42 6 -48 32 -55l32 -8v-23h-258v23l30 8c26 7 30 10 30 55v278c0 64 -22 85 -75 85c-41 0 -86 -12 -111 -18v-345c0 -45 5 -48 30 -55l31 -8v-23h-253v23l29 8
c24 7 29 12 29 55v549c-33 5 -48 24 -51 64c-2 20 -9 25 -26 25c-49 0 -92 -25 -92 -120v-89h110l-12 -52h-98v-373c0 -47 3 -52 29 -59l31 -8v-23h-255zM213 602v-87h170v26c0 40 8 75 23 104c-8 -9 -21 -15 -39 -15c-39 0 -58 16 -62 55c-2 23 -7 28 -20 28
c-40 0 -72 -26 -72 -111z" />
    <glyph glyph-name="f_f_i" unicode="ffi" horiz-adv-x="896" 
d="M15 0v23l32 8c27 8 32 14 32 55v377h-70v22l70 31v23c0 130 94 209 229 209c70 0 110 -26 110 -69c0 -7 -1 -14 -4 -20c40 64 117 100 225 100c91 0 134 -32 134 -81c0 -29 -18 -54 -58 -54c-48 0 -69 20 -74 73c-2 19 -11 26 -31 26c-50 0 -93 -32 -93 -123v-85h179
l119 14l9 -6c-1 -18 -4 -57 -4 -106v-331c0 -43 5 -48 33 -55l32 -8v-23h-257v23l29 8c25 7 29 12 29 55v320c0 47 -10 57 -42 57h-127v-373c0 -47 3 -52 29 -59l31 -8v-23h-253v23l29 8c25 7 30 12 30 55v377h-170v-373c0 -47 3 -52 30 -59l31 -8v-23h-259zM383 537
c0 42 8 79 25 110c-9 -10 -22 -17 -41 -17c-39 0 -58 16 -62 55c-2 23 -7 28 -20 28c-40 0 -72 -26 -72 -111v-87h170v22z" />
    <glyph glyph-name="f_f_j" unicode="ffj" horiz-adv-x="889" 
d="M620 -210c-78 0 -115 36 -115 80c0 33 24 53 59 53c43 0 58 -20 63 -67c3 -27 8 -30 17 -30c26 0 42 20 42 64v516c0 47 -10 57 -42 57h-127v-373c0 -47 3 -52 31 -58l36 -9v-23h-262v23l31 8c25 7 30 12 30 55v377h-170v-373c0 -47 3 -52 30 -59l31 -8v-23h-259v23l32 8
c27 8 32 14 32 55v377h-70v22l70 31v23c0 130 94 209 229 209c70 0 110 -26 110 -69c0 -7 -1 -14 -4 -20c40 64 117 100 225 100c91 0 134 -32 134 -81c0 -29 -18 -54 -58 -54c-48 0 -69 20 -74 73c-2 19 -11 26 -31 26c-50 0 -93 -32 -93 -123v-85h179l119 14l9 -6
c-1 -18 -4 -57 -4 -106v-414c0 -146 -86 -213 -200 -213zM213 602v-87h170v22c0 42 8 79 25 110c-9 -10 -22 -17 -41 -17c-39 0 -58 16 -62 55c-2 23 -7 28 -20 28c-40 0 -72 -26 -72 -111z" />
    <glyph glyph-name="f_f_k" unicode="ffk" horiz-adv-x="1171" 
d="M322 0v23l31 8c25 7 30 12 30 55v377h-170v-373c0 -47 3 -52 30 -59l31 -8v-23h-259v23l32 8c27 8 32 14 32 55v377h-70v22l70 31v23c0 130 94 209 229 209c70 0 110 -26 110 -69c0 -6 -1 -13 -3 -18c40 63 117 98 216 98c63 0 103 -16 120 -40l64 37l9 -7
s-4 -52 -4 -119v-544c0 -44 5 -48 30 -55l30 -8v-23h-252v23l29 8c25 7 29 12 29 55v549c-33 5 -48 24 -51 64c-2 20 -9 25 -26 25c-49 0 -92 -25 -92 -120v-89h110l-12 -52h-98v-373c0 -47 3 -52 29 -59l31 -8v-23h-255zM1006 0c-68 83 -120 165 -170 248v13l114 126
c36 40 43 59 43 74c0 13 -10 20 -33 27l-14 4v23h200v-23l-24 -7c-27 -8 -43 -18 -85 -62l-99 -103c54 -91 126 -199 183 -266c11 -13 20 -20 34 -24l21 -7v-23h-170zM213 602v-87h170v26c0 40 8 75 23 104c-8 -9 -21 -15 -39 -15c-39 0 -58 16 -62 55c-2 23 -7 28 -20 28
c-40 0 -72 -26 -72 -111z" />
    <glyph glyph-name="f_f_l" unicode="ffl" horiz-adv-x="898" 
d="M322 0v23l31 8c25 7 30 12 30 55v377h-170v-373c0 -47 3 -52 30 -59l31 -8v-23h-259v23l32 8c27 8 32 14 32 55v377h-70v22l70 31v23c0 130 94 209 229 209c70 0 110 -26 110 -69c0 -6 -1 -13 -3 -18c40 63 117 98 216 98c63 0 103 -16 120 -40l64 37l9 -7
s-4 -52 -4 -119v-544c0 -43 5 -47 34 -55l32 -8v-23h-258v23l29 8c25 7 29 12 29 55v549c-33 5 -48 24 -51 64c-2 20 -9 25 -26 25c-49 0 -92 -25 -92 -120v-89h110l-12 -52h-98v-373c0 -47 3 -52 29 -59l31 -8v-23h-255zM213 602v-87h170v26c0 40 8 75 23 104
c-8 -9 -21 -15 -39 -15c-39 0 -58 16 -62 55c-2 23 -7 28 -20 28c-40 0 -72 -26 -72 -111z" />
    <glyph glyph-name="f_h" unicode="fh" horiz-adv-x="912" 
d="M324 0v23l29 8c24 7 30 12 30 55v549c-33 4 -49 24 -52 64c-2 20 -8 25 -26 25c-48 0 -92 -25 -92 -120v-89h110l-12 -52h-98v-373c0 -47 3 -52 30 -59l31 -8v-23h-259v23l32 8c27 8 32 14 32 55v377h-70v22l70 31v25c0 139 99 218 248 218c63 0 103 -16 120 -40l64 37
l9 -7s-3 -52 -3 -119v-73c0 -51 -3 -94 -3 -94h4c52 35 118 66 187 66c91 0 132 -43 132 -133v-310c0 -42 6 -48 32 -55l32 -8v-23h-259v23l31 8c25 7 29 10 29 55v278c0 64 -22 85 -75 85c-41 0 -86 -12 -110 -18v-345c0 -45 4 -48 29 -55l31 -8v-23h-253z" />
    <glyph glyph-name="f_i" unicode="fi" horiz-adv-x="592" 
d="M15 0v23l32 8c27 8 32 14 32 55v377h-70v22l70 31v21c0 139 93 222 256 222c91 0 134 -32 134 -81c0 -29 -18 -54 -58 -54c-47 0 -69 20 -74 73c-2 19 -10 26 -31 26c-50 0 -93 -32 -93 -123v-85h180l118 14l10 -6c-1 -18 -4 -57 -4 -106v-331c0 -43 5 -48 32 -55l32 -8
v-23h-257v23l29 8c25 7 30 12 30 55v320c0 47 -11 57 -43 57h-127v-373c0 -47 3 -52 30 -59l31 -8v-23h-259z" />
    <glyph glyph-name="f_j" unicode="fj" horiz-adv-x="586" 
d="M316 -210c-78 0 -114 36 -114 80c0 33 23 53 58 53c43 0 58 -20 63 -67c4 -27 8 -30 18 -30c26 0 42 20 42 64v516c0 47 -11 57 -43 57h-127v-373c0 -47 3 -52 31 -58l36 -9v-23h-265v23l32 8c27 8 32 14 32 55v377h-70v22l70 31v21c0 139 93 222 256 222
c91 0 134 -32 134 -81c0 -29 -18 -54 -58 -54c-47 0 -69 20 -74 73c-2 19 -10 26 -31 26c-50 0 -93 -32 -93 -123v-85h180l118 14l10 -6c-1 -18 -4 -57 -4 -106v-414c0 -146 -87 -213 -201 -213z" />
    <glyph glyph-name="f_k" unicode="fk" horiz-adv-x="868" 
d="M324 0v23l29 8c25 7 30 12 30 55v549c-33 4 -49 24 -52 64c-2 20 -8 25 -26 25c-48 0 -92 -25 -92 -120v-89h110l-12 -52h-98v-373c0 -47 3 -52 30 -59l31 -8v-23h-259v23l32 8c27 8 32 14 32 55v377h-70v22l70 31v25c0 139 99 218 248 218c63 0 103 -16 120 -40l64 37
l9 -7s-3 -52 -3 -119v-544c0 -44 4 -48 29 -55l30 -8v-23h-252zM702 0c-67 83 -120 165 -169 248v13l113 126c36 40 43 59 43 74c0 13 -10 20 -33 27l-14 4v23h200v-23l-24 -7c-27 -8 -42 -18 -85 -62l-99 -103c54 -91 126 -199 184 -266c10 -13 19 -20 33 -24l22 -7v-23
h-171z" />
    <glyph glyph-name="f_l" unicode="fl" horiz-adv-x="594" 
d="M324 0v23l29 8c25 7 30 12 30 55v549c-33 4 -49 24 -52 64c-2 20 -8 25 -26 25c-48 0 -92 -25 -92 -120v-89h110l-12 -52h-98v-373c0 -47 3 -52 30 -59l31 -8v-23h-259v23l32 8c27 8 32 14 32 55v377h-70v22l70 31v25c0 139 99 218 248 218c63 0 103 -16 120 -40l64 37
l9 -7s-3 -52 -3 -119v-544c0 -43 4 -47 33 -55l32 -8v-23h-258z" />
    <glyph glyph-name=".notdef" horiz-adv-x="500" 
 />
    <glyph glyph-name="Eth" unicode="&#xd0;" horiz-adv-x="711" 
d="M27 330v38h68v225c0 57 -9 62 -36 68l-39 8v24h320c200 0 341 -93 341 -337c0 -230 -137 -356 -346 -356h-315v24l39 8c27 6 36 11 36 68v230h-68zM326 39c147 0 198 110 198 296c0 230 -60 319 -200 319c-38 0 -66 -4 -79 -9v-277h152v-38h-152v-199
c0 -79 10 -92 81 -92z" />
    <glyph glyph-name="eth" unicode="&#xf0;" horiz-adv-x="570" 
d="M158 577l-14 33l106 49c-35 29 -78 57 -127 80l10 24c70 -20 130 -45 182 -74l118 54l15 -32l-97 -45c132 -88 196 -211 196 -368c0 -235 -132 -311 -263 -311c-143 0 -261 88 -261 268c0 185 135 270 251 270c43 0 73 -10 98 -31c-17 47 -48 95 -93 139zM287 23
c72 0 116 48 116 226c0 192 -42 240 -122 240c-74 0 -115 -53 -115 -218c0 -195 40 -248 121 -248z" />
    <glyph glyph-name="Lslash" unicode="&#x141;" horiz-adv-x="578" 
d="M9 240v42l86 32v279c0 57 -9 62 -36 68l-39 8v24h306v-24l-45 -9c-29 -6 -36 -10 -36 -67v-223l195 73v-43l-195 -73v-196c0 -79 4 -91 97 -91c83 0 102 9 131 53c18 28 40 71 65 140h28l-14 -233h-532v24l39 8c27 5 36 11 36 68v172z" />
    <glyph glyph-name="lslash" unicode="&#x142;" horiz-adv-x="291" 
d="M6 279v44l74 39v275c0 45 -5 48 -31 61l-39 19v20l198 19l10 -7s-4 -52 -4 -119v-198l75 40v-44l-75 -40v-302c0 -43 5 -47 33 -55l32 -8v-23h-264v23l32 8c28 8 33 14 33 55v232z" />
    <glyph glyph-name="Scaron" unicode="&#x160;" horiz-adv-x="519" 
d="M246 727l-123 133l10 14l135 -56l135 56l10 -14l-123 -133h-44zM237 -13c-88 0 -159 16 -199 34l-12 188h29c24 -51 43 -88 69 -126c30 -44 60 -56 123 -56c87 0 125 46 125 114c0 64 -36 100 -155 149c-134 55 -183 114 -183 215c0 116 94 201 236 201
c84 0 136 -11 170 -24l11 -168h-27c-25 53 -38 74 -63 106c-26 34 -44 46 -103 46c-74 0 -115 -35 -115 -100c0 -59 23 -90 137 -137c151 -63 210 -121 210 -215c0 -125 -89 -227 -253 -227z" />
    <glyph glyph-name="scaron" unicode="&#x161;" horiz-adv-x="422" 
d="M193 580l-123 140l10 14l135 -63l135 63l10 -14l-123 -140h-44zM185 -12c-57 0 -113 9 -154 22l-5 152h25c19 -39 37 -66 60 -97c20 -29 41 -41 88 -41c52 0 91 29 91 78c0 50 -33 73 -118 106c-88 34 -145 78 -145 161c0 94 79 161 202 161c56 0 102 -8 133 -20l5 -132
h-23c-18 35 -34 60 -54 83c-23 28 -43 33 -77 33c-51 0 -81 -26 -81 -70c0 -41 26 -69 107 -100c108 -40 160 -85 160 -162c0 -101 -78 -174 -214 -174z" />
    <glyph glyph-name="Yacute" unicode="&#xdd;" horiz-adv-x="629" 
d="M172 0v24l42 8c31 6 37 11 37 68v183l-160 293c-35 64 -46 78 -73 87l-22 6v24h308v-24l-28 -6c-28 -7 -39 -18 -39 -39c0 -13 6 -32 19 -56l117 -231h4l103 227c13 27 16 44 16 59c0 20 -10 32 -40 39l-29 7v24h206v-24l-21 -6c-31 -11 -47 -31 -80 -100l-130 -273v-190
c0 -57 4 -62 37 -68l41 -8v-24h-308zM255 724l-6 16l155 112c15 11 29 17 44 17c28 0 49 -26 49 -55c0 -22 -12 -42 -46 -49z" />
    <glyph glyph-name="yacute" unicode="&#xfd;" horiz-adv-x="535" 
d="M111 -207c-59 0 -95 28 -95 68c0 35 23 55 58 55c37 0 53 -17 62 -47c4 -15 8 -19 19 -19c21 0 46 27 80 109l13 30l-177 422c-26 60 -31 67 -54 75l-21 6v23h265v-23l-27 -7c-20 -5 -29 -14 -29 -35c0 -14 5 -32 14 -55l95 -247h4l91 247c9 25 14 45 14 59
c0 19 -10 26 -30 31l-28 7v23h176v-23l-25 -7c-24 -8 -29 -22 -54 -84l-180 -447c-36 -91 -73 -161 -171 -161zM216 578l-7 16l142 119c16 14 31 20 46 20c28 0 49 -26 49 -53c0 -20 -11 -43 -42 -52z" />
    <glyph glyph-name="Thorn" unicode="&#xde;" horiz-adv-x="613" 
d="M20 0v24l39 8c27 5 36 11 36 68v493c0 57 -9 62 -36 68l-39 8v24h302v-24l-41 -8c-29 -7 -36 -11 -36 -68v-38h81c173 0 267 -63 267 -191c0 -117 -86 -206 -247 -206c-37 0 -61 6 -70 10v26c115 -3 164 35 164 162c0 125 -40 161 -122 161c-34 0 -61 -4 -73 -7v-410
c0 -57 7 -61 37 -67l50 -9v-24h-312z" />
    <glyph glyph-name="thorn" unicode="&#xfe;" horiz-adv-x="591" 
d="M1 -203v23l32 9c28 7 32 13 32 55v753c0 45 -5 49 -30 61l-39 19v20l198 19l9 -7s-4 -45 -4 -119v-74c0 -51 -2 -91 -2 -91h4c41 34 99 64 167 64c95 0 196 -60 196 -245c0 -201 -118 -296 -286 -296c-23 0 -56 4 -80 11c0 0 1 -27 1 -62v-53c0 -44 4 -49 31 -55l43 -9
v-23h-272zM285 25c93 0 141 51 141 230c0 143 -49 199 -134 199c-45 0 -74 -15 -93 -23v-370c22 -22 49 -36 86 -36z" />
    <glyph glyph-name="Zcaron" unicode="&#x17d;" horiz-adv-x="567" 
d="M282 727l-123 133l10 14l135 -56l135 56l10 -14l-123 -133h-44zM21 0v39l364 612v4h-48c-148 0 -167 -5 -195 -46c-24 -34 -38 -63 -65 -125h-27l11 209h488v-39l-362 -611v-4h51c155 0 180 8 211 49c26 35 43 72 71 141h29l-15 -229h-513z" />
    <glyph glyph-name="zcaron" unicode="&#x17e;" horiz-adv-x="476" 
d="M232 580l-123 140l10 14l135 -63l135 63l10 -14l-123 -140h-44zM15 0v34l291 440v4h-66c-75 0 -89 -5 -111 -30c-24 -29 -38 -54 -64 -101h-23l9 168h409v-32l-292 -442v-4h63c97 0 115 7 139 39c23 32 43 63 61 101h24l-14 -177h-426z" />
    <glyph glyph-name="onehalf" unicode="&#xbd;" horiz-adv-x="728" 
d="M16 315v23l23 4c24 4 27 6 27 42v213l-49 5v23c58 10 109 37 140 73l20 -4v-310c0 -36 5 -38 28 -42l22 -4v-23h-211zM49 -50l518 764h55l-518 -764h-55zM421 0v49c53 40 85 67 121 106c37 40 58 80 58 132c0 54 -19 70 -52 70c-21 0 -23 -6 -26 -30
c-5 -39 -19 -55 -53 -55c-27 0 -43 15 -43 39c0 39 51 74 133 74c89 0 149 -37 149 -110c0 -66 -72 -126 -205 -195v-3h132c27 0 32 9 49 47h22l-8 -124h-277z" />
    <glyph glyph-name="onequarter" unicode="&#xbc;" horiz-adv-x="720" 
d="M16 315v23l23 4c24 4 27 6 27 42v213l-49 5v23c58 10 109 37 140 73l20 -4v-310c0 -36 5 -38 28 -42l22 -4v-23h-211zM66 -50l519 764h55l-519 -764h-55zM500 0v22l19 4c23 5 27 7 27 43v35h-161v32l201 242h68v-233h56l-6 -41h-50v-35c0 -36 5 -39 27 -43l19 -4v-22
h-200zM432 145h114v140h-1l-113 -137v-3z" />
    <glyph glyph-name="onesuperior" unicode="&#xb9;" horiz-adv-x="240" 
d="M15 315v23l23 4c24 4 27 6 27 42v213l-49 5v23c58 10 109 37 140 73l20 -4v-310c0 -36 5 -38 28 -42l22 -4v-23h-211z" />
    <glyph glyph-name="threequarters" unicode="&#xbe;" horiz-adv-x="766" 
d="M150 309c-83 0 -127 27 -127 68c0 26 16 38 40 38c27 0 44 -11 50 -48c5 -26 10 -32 38 -32c42 0 58 32 58 85c0 63 -27 76 -73 76h-28v32h24c47 0 68 19 68 74c0 50 -17 71 -45 71c-21 0 -26 -4 -29 -25c-4 -30 -15 -48 -48 -48c-25 0 -40 16 -40 36c0 40 51 64 126 64
c83 0 135 -32 135 -90c0 -41 -27 -79 -100 -92v-2c67 -4 117 -34 117 -96c0 -64 -51 -111 -166 -111zM118 -50l519 764h55l-518 -764h-56zM546 0v22l19 4c23 5 28 7 28 43v35h-162v32l201 242h68v-233h56l-6 -41h-50v-35c0 -36 5 -39 27 -43l19 -4v-22h-200zM478 145h115
v140h-2l-113 -137v-3z" />
    <glyph glyph-name="threesuperior" unicode="&#xb3;" horiz-adv-x="323" 
d="M138 309c-83 0 -127 27 -127 68c0 26 16 38 40 38c27 0 44 -11 50 -48c5 -26 10 -32 38 -32c42 0 58 32 58 85c0 63 -27 76 -73 76h-28v32h24c47 0 68 19 68 74c0 50 -17 71 -45 71c-21 0 -26 -4 -29 -25c-4 -30 -15 -48 -48 -48c-25 0 -40 16 -40 36c0 40 51 64 126 64
c83 0 135 -32 135 -90c0 -41 -27 -79 -100 -92v-2c67 -4 117 -34 117 -96c0 -64 -51 -111 -166 -111z" />
    <glyph glyph-name="twosuperior" unicode="&#xb2;" horiz-adv-x="318" 
d="M13 315v50c52 40 84 67 120 106c37 40 58 79 58 131c0 54 -19 70 -52 70c-21 0 -23 -5 -26 -29c-5 -40 -18 -56 -53 -56c-26 0 -43 16 -43 40c0 38 51 73 133 73c89 0 150 -37 150 -109c0 -66 -72 -127 -205 -195v-3h132c27 0 31 8 48 47h22l-8 -125h-276z" />
    <glyph glyph-name="brokenbar" unicode="&#xa6;" horiz-adv-x="224" 
d="M87 -130v386h50v-386h-50zM87 326v408h50v-408h-50z" />
    <glyph glyph-name="minus" unicode="&#x2212;" horiz-adv-x="464" 
d="M36 313v51h392v-51h-392z" />
    <glyph glyph-name="multiply" unicode="&#xd7;" horiz-adv-x="438" 
d="M80 151l-40 38l142 149l-139 147l40 38l136 -145l138 145l38 -38l-138 -147l141 -149l-39 -38l-140 148z" />
    <glyph glyph-name="space" unicode=" " horiz-adv-x="214" 
 />
    <glyph glyph-name="exclam" unicode="!" horiz-adv-x="275" 
d="M138 -6c-40 0 -74 34 -74 73c0 43 34 74 74 74s76 -31 76 -74c0 -39 -36 -73 -76 -73zM125 206l-65 385c-16 77 25 111 78 111c54 0 96 -34 80 -111l-65 -385h-28z" />
    <glyph glyph-name="quotedbl" unicode="&#x22;" horiz-adv-x="363" 
d="M90 460l-49 157c-21 64 19 89 58 89c38 0 77 -24 57 -89l-47 -157h-19zM254 460l-47 157c-21 64 18 89 57 89s79 -25 58 -89l-49 -157h-19z" />
    <glyph glyph-name="numbersign" unicode="#" horiz-adv-x="523" 
d="M86 0l37 187h-92l17 93h93l27 137h-90l16 93h93l37 183h47l-36 -183h120l37 183h47l-36 -183h92l-17 -93h-94l-27 -137h92l-16 -93h-95l-36 -187h-48l37 187h-121l-36 -187h-48zM189 280h120l27 137h-120z" />
    <glyph glyph-name="dollar" unicode="$" horiz-adv-x="510" 
d="M11 109c0 39 28 58 61 58c43 0 65 -18 71 -86c3 -40 15 -56 84 -59v267c-148 58 -198 123 -198 218c0 105 85 184 204 194v65h40v-63c141 -3 197 -59 197 -111c0 -35 -27 -59 -64 -59c-46 0 -65 24 -71 87c-4 35 -15 47 -62 49v-247c156 -66 210 -125 210 -228
c0 -110 -88 -198 -216 -206v-98h-40v98c-152 4 -216 52 -216 121zM368 143c0 54 -25 93 -101 129v-249c69 7 101 53 101 120zM136 561c0 -54 23 -86 97 -121v227c-63 -8 -97 -50 -97 -106z" />
    <glyph glyph-name="percent" unicode="%" horiz-adv-x="756" 
d="M197 346c-82 0 -170 55 -170 173c0 130 103 185 174 185c78 0 170 -57 170 -177c0 -125 -98 -181 -174 -181zM199 376c47 0 67 35 67 143c0 119 -22 155 -67 155c-43 0 -66 -32 -66 -146c0 -115 20 -152 66 -152zM554 -13c-81 0 -169 55 -169 174c0 129 102 184 173 184
c78 0 171 -57 171 -176c0 -125 -98 -182 -175 -182zM557 17c46 0 66 36 66 143c0 119 -22 155 -66 155s-67 -31 -67 -145c0 -116 20 -153 67 -153zM82 -50l518 764h55l-518 -764h-55z" />
    <glyph glyph-name="ampersand" unicode="&#x26;" horiz-adv-x="709" 
d="M269 -13c-182 0 -246 95 -246 191c0 100 80 157 170 198c-34 51 -53 96 -53 147c0 107 94 182 194 182c96 0 174 -50 174 -136c0 -79 -79 -127 -171 -168c49 -70 110 -152 168 -223c28 48 40 98 40 126c0 26 -13 35 -35 41l-30 7v24h214v-24l-27 -7
c-31 -9 -47 -31 -74 -80c-15 -30 -34 -74 -61 -118c24 -28 55 -63 76 -83c14 -15 28 -28 46 -32l31 -8v-24h-200c-13 13 -30 32 -43 47c-43 -33 -100 -60 -173 -60zM304 36c50 0 88 18 112 39c-72 84 -147 183 -205 273c-34 -34 -50 -80 -50 -142c0 -103 54 -170 143 -170z
M320 425c56 35 87 71 87 141c0 71 -31 103 -73 103c-47 0 -75 -35 -75 -89c0 -55 23 -103 61 -155z" />
    <glyph glyph-name="quotesingle" unicode="'" horiz-adv-x="196" 
d="M88 460l-48 157c-21 64 19 89 58 89s78 -25 57 -89l-48 -157h-19z" />
    <glyph glyph-name="parenleft" unicode="(" horiz-adv-x="317" 
d="M286 -141c-109 80 -247 222 -247 443c0 202 138 363 247 443l21 -19c-92 -91 -157 -240 -157 -404c0 -215 65 -345 157 -444z" />
    <glyph glyph-name="parenright" unicode=")" horiz-adv-x="317" 
d="M31 -141l-20 19c91 99 156 236 156 419c0 196 -65 338 -156 429l20 19c109 -80 248 -230 248 -443c0 -209 -139 -363 -248 -443z" />
    <glyph glyph-name="asterisk" unicode="*" horiz-adv-x="358" 
d="M84 419c-21 16 -30 49 8 74l76 51l-91 1c-44 -2 -56 28 -47 53c7 24 35 42 70 14l71 -55l-29 85c-16 44 10 63 36 63s51 -19 35 -63l-29 -85l71 55c34 28 63 9 70 -16c8 -25 -3 -54 -47 -52h-91l75 -52c38 -24 29 -57 8 -73c-21 -14 -54 -11 -66 31l-27 88l-27 -88
c-12 -41 -44 -46 -66 -31z" />
    <glyph glyph-name="plus" unicode="+" horiz-adv-x="464" 
d="M202 131v182h-166v51h166v182h60v-182h166v-51h-166v-182h-60z" />
    <glyph glyph-name="comma" unicode="," horiz-adv-x="228" 
d="M30 -116l-7 20c71 32 103 71 102 116c-4 -4 -15 -9 -28 -9c-36 0 -62 25 -62 64c0 40 33 66 74 66c44 0 84 -33 84 -93c0 -81 -57 -140 -163 -164z" />
    <glyph glyph-name="hyphen" unicode="-" horiz-adv-x="273" 
d="M24 245l10 89h215l-11 -89h-214z" />
    <glyph glyph-name="period" unicode="." horiz-adv-x="220" 
d="M110 -6c-41 0 -74 33 -74 73c0 42 33 74 74 74c40 0 75 -32 75 -74c0 -40 -35 -73 -75 -73z" />
    <glyph glyph-name="slash" unicode="/" horiz-adv-x="378" 
d="M0 -130l308 864h52l-308 -864h-52z" />
    <glyph glyph-name="zero" unicode="0" horiz-adv-x="658" 
d="M326 -12c-144 0 -292 103 -292 349c0 265 172 368 298 368c138 0 293 -106 293 -353c0 -258 -163 -364 -299 -364zM329 25c97 0 140 81 140 310c0 253 -46 333 -140 333c-90 0 -139 -72 -139 -315s44 -328 139 -328z" />
    <glyph glyph-name="one" unicode="1" horiz-adv-x="373" 
d="M26 0v24l48 8c31 6 40 11 40 68v460l-88 4v25c95 20 167 54 217 112l22 -5v-596c0 -57 7 -62 38 -68l45 -8v-24h-322z" />
    <glyph glyph-name="two" unicode="2" horiz-adv-x="521" 
d="M15 0v69c86 70 156 136 210 197c72 81 114 141 114 254s-47 148 -105 148c-49 0 -60 -14 -63 -49c-4 -65 -28 -89 -76 -89c-43 0 -64 26 -64 61c0 60 77 114 217 114s241 -66 241 -200c0 -144 -173 -270 -365 -389v-4h251c52 0 59 8 92 78h24l-15 -190h-461z" />
    <glyph glyph-name="three" unicode="3" horiz-adv-x="523" 
d="M216 -12c-133 0 -205 41 -205 112c0 34 22 59 65 59c39 0 62 -17 71 -73c12 -50 14 -61 71 -61c87 0 118 70 118 170c0 106 -37 146 -132 146h-51v39h42c89 0 126 42 126 147c0 97 -34 141 -100 141c-34 0 -47 -7 -51 -43c-6 -61 -23 -85 -71 -85c-43 0 -63 25 -63 57
c0 69 92 108 203 108c143 0 226 -67 226 -166c0 -75 -52 -143 -175 -170v-3c120 -11 201 -68 201 -175c0 -109 -88 -203 -275 -203z" />
    <glyph glyph-name="four" unicode="4" horiz-adv-x="570" 
d="M225 0v24l39 8c30 6 38 11 38 68v98h-287v48l344 447h88v-430h105l-11 -65h-94v-98c0 -57 7 -62 38 -68l42 -8v-24h-302zM81 263h221v286h-3l-218 -283v-3z" />
    <glyph glyph-name="five" unicode="5" horiz-adv-x="520" 
d="M216 -12c-117 0 -190 41 -190 108c0 32 21 59 64 59c44 0 66 -16 74 -80c6 -41 13 -50 60 -50c91 0 138 53 138 156c0 109 -72 149 -170 149c-51 0 -90 -8 -113 -16l-10 7l41 372h278c30 0 36 6 59 53h25l-19 -163h-311l-17 -150c20 7 56 16 112 16
c141 0 252 -72 252 -222c0 -140 -115 -239 -273 -239z" />
    <glyph glyph-name="six" unicode="6" horiz-adv-x="580" 
d="M299 -12c-147 0 -271 103 -271 317c0 286 182 400 346 400c97 0 164 -32 164 -92c0 -35 -20 -59 -63 -59c-47 0 -65 21 -73 73c-6 31 -13 41 -45 41c-81 0 -164 -70 -173 -298c34 24 85 48 155 48c125 0 213 -71 213 -205c0 -136 -104 -225 -253 -225zM301 25
c81 0 101 58 101 177c0 116 -38 163 -114 163c-43 0 -76 -10 -105 -29c-1 -14 -1 -14 -1 -30c0 -171 16 -281 119 -281z" />
    <glyph glyph-name="seven" unicode="7" horiz-adv-x="497" 
d="M106 0c56 251 181 431 311 582h-302c-40 0 -45 -9 -71 -75h-25l17 186h451v-63c-135 -190 -194 -378 -224 -630h-157z" />
    <glyph glyph-name="eight" unicode="8" horiz-adv-x="554" 
d="M276 -13c-135 0 -250 59 -250 175c0 75 66 132 152 173v3c-78 43 -122 104 -122 178c0 114 106 189 229 189c110 0 217 -51 217 -159c0 -67 -64 -118 -132 -155v-4c101 -53 158 -107 158 -195c0 -110 -106 -205 -252 -205zM283 26c79 0 132 43 132 118
c0 76 -79 114 -208 177c-31 -31 -68 -73 -68 -148c0 -95 50 -147 144 -147zM339 406c28 30 56 69 56 136c0 84 -42 125 -116 125c-71 0 -115 -39 -115 -102c0 -68 74 -113 175 -159z" />
    <glyph glyph-name="nine" unicode="9" horiz-adv-x="580" 
d="M213 -12c-100 0 -168 32 -168 93c0 36 19 59 64 59c44 0 63 -21 73 -74c7 -30 14 -41 46 -41c99 0 161 69 168 297c-35 -24 -87 -49 -154 -49c-125 0 -214 72 -214 204c0 138 105 228 253 228c150 0 270 -103 270 -317c0 -281 -155 -400 -338 -400zM290 327
c42 0 78 11 107 29v31c0 171 -15 281 -118 281c-79 0 -101 -59 -101 -180c0 -113 37 -161 112 -161z" />
    <glyph glyph-name="colon" unicode=":" horiz-adv-x="227" 
d="M114 -6c-41 0 -75 33 -75 73c0 41 34 74 75 74c40 0 74 -33 74 -74c0 -40 -34 -73 -74 -73zM114 281c-41 0 -75 33 -75 73c0 41 34 74 75 74c40 0 74 -33 74 -74c0 -40 -34 -73 -74 -73z" />
    <glyph glyph-name="semicolon" unicode=";" horiz-adv-x="229" 
d="M32 -116l-7 20c72 32 103 71 102 116c-4 -4 -14 -9 -28 -9c-36 0 -62 25 -62 64c0 40 34 66 74 66c44 0 84 -33 84 -93c0 -81 -57 -140 -163 -164zM114 281c-41 0 -75 33 -75 73c0 41 34 74 75 74c40 0 74 -33 74 -74c0 -40 -34 -73 -74 -73z" />
    <glyph glyph-name="less" unicode="&#x3c;" horiz-adv-x="464" 
d="M426 129l-392 176v49l392 177v-58l-329 -143l329 -142v-59z" />
    <glyph glyph-name="equal" unicode="=" horiz-adv-x="505" 
d="M36 238v51h433v-51h-433zM36 388v51h433v-51h-433z" />
    <glyph glyph-name="greater" unicode="&#x3e;" horiz-adv-x="464" 
d="M430 305l-392 -176v59l329 142l-329 143v58l392 -177v-49z" />
    <glyph glyph-name="question" unicode="?" horiz-adv-x="456" 
d="M149 206v174c69 25 144 64 144 168c0 93 -43 119 -91 119c-31 0 -38 -8 -43 -42c-7 -51 -28 -74 -74 -74c-41 0 -59 28 -59 57c0 62 75 97 173 97c140 0 222 -68 222 -188c0 -121 -96 -191 -225 -224v-87h-47zM172 -6c-41 0 -74 34 -74 73c0 43 33 74 74 74
c40 0 76 -31 76 -74c0 -39 -36 -73 -76 -73z" />
    <glyph glyph-name="at" unicode="@" horiz-adv-x="864" 
d="M409 -141c-222 0 -381 129 -381 353c0 251 210 452 451 452c216 0 357 -125 357 -307c0 -232 -146 -322 -259 -322c-86 0 -105 47 -102 104h-4c-36 -57 -89 -102 -147 -102c-62 0 -105 44 -105 130c0 190 144 326 262 326c50 0 83 -16 113 -37h3l43 33l14 -7
s-11 -32 -27 -110l-35 -190c-12 -67 -6 -102 36 -102c63 0 137 74 137 245c0 178 -98 304 -287 304c-205 0 -365 -159 -365 -392c0 -198 100 -335 320 -335c89 0 167 21 234 52v-31c-47 -30 -155 -64 -258 -64zM380 108c33 0 64 36 94 82l45 238c-6 18 -18 32 -45 32
c-66 0 -136 -141 -136 -281c0 -53 14 -71 42 -71z" />
    <glyph glyph-name="A" unicode="A" horiz-adv-x="669" 
d="M-3 0v24l26 7c30 8 37 17 68 102l199 560h82l207 -567c27 -72 39 -88 66 -96l24 -6v-24h-301v24l28 7c26 7 35 18 35 37c0 17 -8 43 -18 71l-32 91h-207l-30 -91c-10 -28 -14 -51 -14 -66c0 -26 11 -35 39 -42l30 -7v-24h-202zM273 529l-86 -260h181l-90 260h-5z" />
    <glyph glyph-name="B" unicode="B" horiz-adv-x="635" 
d="M20 0v24l39 8c27 5 36 11 36 68v493c0 57 -9 62 -36 68l-39 8v24h299c168 0 257 -48 257 -164c0 -91 -63 -140 -176 -158v-5c137 -14 211 -64 211 -171c0 -127 -98 -195 -264 -195h-327zM331 40c77 0 122 40 122 149c0 111 -37 153 -133 153h-76v-232
c0 -62 11 -70 87 -70zM244 381h65c83 0 119 43 119 130c0 110 -37 142 -118 142c-27 0 -53 -3 -66 -6v-266z" />
    <glyph glyph-name="C" unicode="C" horiz-adv-x="618" 
d="M358 -12c-188 0 -328 110 -328 353c0 262 165 364 355 364c77 0 146 -11 188 -24l11 -203h-28c-24 57 -51 107 -74 140s-50 48 -108 48c-127 0 -184 -84 -184 -306c0 -253 58 -333 178 -333c71 0 98 18 125 56c27 40 48 81 71 139h25l-11 -192c-46 -20 -123 -42 -220 -42
z" />
    <glyph glyph-name="D" unicode="D" horiz-adv-x="711" 
d="M20 0v24l39 8c27 6 36 11 36 68v493c0 57 -9 62 -36 68l-39 8v24h320c200 0 341 -93 341 -337c0 -230 -137 -356 -346 -356h-315zM326 39c147 0 198 110 198 296c0 230 -60 319 -200 319c-38 0 -66 -4 -79 -9v-514c0 -79 10 -92 81 -92z" />
    <glyph glyph-name="E" unicode="E" 
d="M20 0v24l39 8c27 6 36 11 36 68v493c0 57 -9 62 -36 68l-39 8v24h527l10 -191h-26c-24 53 -40 81 -53 101c-31 45 -51 50 -128 50c-60 0 -88 -5 -105 -9v-265h39c73 0 94 7 107 31s20 45 28 78h27v-259h-27c-8 32 -15 53 -28 80s-28 31 -107 31h-39v-193
c0 -97 3 -107 114 -107c85 0 100 9 132 55c17 24 38 70 62 131h28l-14 -226h-547z" />
    <glyph glyph-name="F" unicode="F" horiz-adv-x="575" 
d="M20 0v24l39 8c27 5 36 11 36 68v493c0 57 -9 62 -36 68l-39 8v24h521l10 -199h-28c-24 58 -39 85 -55 109c-29 44 -46 50 -125 50c-50 0 -80 -4 -98 -8v-277h25c83 0 98 8 112 30c13 23 22 46 31 81h26v-266h-26c-9 35 -18 59 -31 86c-14 26 -26 30 -112 30h-25v-229
c0 -57 5 -61 37 -67l50 -9v-24h-312z" />
    <glyph glyph-name="G" unicode="G" horiz-adv-x="682" 
d="M380 -12c-223 0 -350 119 -350 355c0 263 169 362 365 362c86 0 146 -9 193 -21l11 -206h-27c-26 64 -47 101 -67 130c-31 46 -50 58 -122 58c-132 0 -195 -91 -195 -304c0 -238 49 -335 188 -335c43 0 72 11 94 22v150c0 57 -8 61 -36 67l-40 9v24h282v-24l-29 -7
c-26 -7 -32 -12 -32 -69v-176c-56 -18 -148 -35 -235 -35z" />
    <glyph glyph-name="H" unicode="H" horiz-adv-x="746" 
d="M20 0v24l39 8c27 5 36 11 36 68v493c0 57 -9 62 -36 68l-39 8v24h300v-24l-39 -8c-29 -7 -36 -11 -36 -68v-219h256v219c0 57 -6 61 -36 68l-38 8v24h299v-24l-38 -8c-28 -6 -36 -11 -36 -68v-493c0 -57 7 -62 36 -68l38 -8v-24h-299v24l38 8c30 7 36 11 36 68v233h-256
v-233c0 -57 6 -61 36 -68l39 -8v-24h-300z" />
    <glyph glyph-name="I" unicode="I" horiz-adv-x="347" 
d="M20 0v24l42 8c28 5 36 11 36 68v493c0 57 -8 63 -36 68l-42 8v24h307v-24l-42 -8c-30 -6 -36 -11 -36 -68v-493c0 -57 6 -62 36 -68l42 -8v-24h-307z" />
    <glyph glyph-name="J" unicode="J" horiz-adv-x="340" 
d="M20 -176c-88 0 -131 35 -131 80c0 35 22 59 62 59c46 0 64 -22 75 -78c5 -20 7 -22 22 -22c26 0 47 24 47 89v641c0 57 -7 61 -36 68l-40 8v24h301v-24l-39 -8c-28 -6 -36 -11 -36 -68v-531c0 -139 -81 -238 -225 -238z" />
    <glyph glyph-name="K" unicode="K" horiz-adv-x="684" 
d="M485 0c-77 98 -154 219 -212 335v16l189 219c20 23 28 43 28 57c0 17 -13 28 -35 34l-30 8v24h230v-24l-25 -6c-35 -9 -49 -22 -102 -81l-145 -162c64 -124 166 -275 238 -366c13 -16 17 -19 32 -23l31 -7v-24h-199zM20 0v24l39 8c27 5 36 11 36 68v493
c0 57 -9 62 -36 68l-39 8v24h300v-24l-39 -8c-30 -7 -36 -11 -36 -68v-493c0 -57 6 -61 36 -68l39 -8v-24h-300z" />
    <glyph glyph-name="L" unicode="L" horiz-adv-x="578" 
d="M20 0v24l39 8c27 5 36 11 36 68v493c0 57 -9 62 -36 68l-39 8v24h306v-24l-45 -9c-29 -6 -36 -10 -36 -67v-462c0 -79 4 -91 97 -91c83 0 102 9 131 53c18 28 40 71 65 140h28l-14 -233h-532z" />
    <glyph glyph-name="M" unicode="M" horiz-adv-x="857" 
d="M20 0v24l32 7c31 6 43 12 43 79v483c0 57 -9 62 -36 68l-39 8v24h248l161 -460h4l156 460h248v-24l-38 -8c-28 -6 -36 -11 -36 -68v-493c0 -57 7 -62 36 -68l38 -8v-24h-297v24l36 8c30 7 36 11 36 68v508h-4l-201 -592h-54l-208 592h-4v-496c0 -69 8 -74 44 -81l34 -7
v-24h-199z" />
    <glyph glyph-name="N" unicode="N" horiz-adv-x="689" 
d="M540 -2l-395 591h-4v-477c0 -69 8 -74 45 -81l38 -7v-24h-204v24l32 7c31 6 43 12 43 79v483c0 57 -9 62 -36 68l-39 8v24h232l296 -448h4v336c0 69 -7 74 -44 81l-42 7v24h208v-24l-33 -7c-30 -6 -42 -12 -42 -79v-585h-59z" />
    <glyph glyph-name="O" unicode="O" horiz-adv-x="712" 
d="M352 -12c-173 0 -323 114 -323 349c0 262 170 368 331 368c173 0 323 -112 323 -352c0 -263 -170 -365 -331 -365zM358 27c115 0 168 79 168 306c0 203 -42 333 -173 333c-112 0 -167 -82 -167 -309c0 -203 41 -330 172 -330z" />
    <glyph glyph-name="P" unicode="P" horiz-adv-x="611" 
d="M20 0v24l39 8c27 5 36 11 36 68v493c0 57 -8 61 -31 66l-44 10v24h308c174 0 265 -66 265 -200c0 -119 -86 -216 -247 -216c-37 0 -61 7 -70 11v27c115 -2 163 38 163 169s-33 169 -120 169c-31 0 -62 -3 -74 -7v-546c0 -56 4 -61 37 -67l49 -9v-24h-311z" />
    <glyph glyph-name="Q" unicode="Q" horiz-adv-x="712" 
d="M590 -171c-74 0 -123 18 -184 60c-44 29 -88 65 -141 112c-138 33 -236 146 -236 336c0 262 170 369 331 369c173 0 323 -113 323 -353c0 -206 -102 -308 -231 -343v-3c26 -24 61 -50 91 -69c50 -30 91 -41 131 -41c30 0 60 12 77 19v-24c-25 -25 -75 -63 -161 -63z
M358 26c115 0 168 80 168 307c0 203 -42 333 -173 333c-112 0 -167 -82 -167 -309c0 -203 41 -331 172 -331z" />
    <glyph glyph-name="R" unicode="R" horiz-adv-x="673" 
d="M20 0v24l39 8c27 5 36 11 36 68v493c0 57 -9 62 -36 68l-39 8v24h311c181 0 258 -61 258 -180c0 -81 -47 -139 -145 -168v-3c46 -90 119 -214 175 -287c11 -14 20 -20 40 -26l18 -5v-24h-194c-63 85 -133 212 -177 311h-61v-211c0 -57 6 -62 35 -68l39 -8v-24h-299z
M296 347c98 0 140 40 140 154c0 118 -32 152 -115 152c-36 0 -63 -3 -76 -7v-295c3 -1 25 -4 51 -4z" />
    <glyph glyph-name="S" unicode="S" horiz-adv-x="519" 
d="M237 -13c-88 0 -159 16 -199 34l-12 188h29c24 -51 43 -88 69 -126c30 -44 60 -56 123 -56c87 0 125 46 125 114c0 64 -36 100 -155 149c-134 55 -183 114 -183 215c0 116 94 201 236 201c84 0 136 -11 170 -24l11 -168h-27c-25 53 -38 74 -63 106c-26 34 -44 46 -103 46
c-74 0 -115 -35 -115 -100c0 -59 23 -90 137 -137c151 -63 210 -121 210 -215c0 -125 -89 -227 -253 -227z" />
    <glyph glyph-name="T" unicode="T" horiz-adv-x="619" 
d="M155 0v24l42 8c31 6 37 11 37 68v554h-14c-77 0 -89 -5 -117 -50c-22 -34 -36 -66 -60 -130h-29l9 219h573l9 -219h-29c-24 64 -38 96 -60 130c-30 46 -39 50 -118 50h-13v-554c0 -57 4 -62 37 -68l41 -8v-24h-308z" />
    <glyph glyph-name="U" unicode="U" horiz-adv-x="692" 
d="M361 -12c-164 0 -276 65 -276 235v370c0 57 -8 62 -36 68l-38 8v24h298v-24l-37 -8c-30 -7 -36 -11 -36 -68v-386c0 -110 47 -161 166 -161c113 0 159 65 159 173v362c0 69 -7 74 -45 81l-43 7v24h209v-24l-33 -7c-29 -6 -41 -12 -41 -79v-371c0 -123 -74 -224 -247 -224
z" />
    <glyph glyph-name="V" unicode="V" horiz-adv-x="658" 
d="M296 0l-210 567c-25 66 -33 87 -66 96l-24 6v24h300v-24l-28 -7c-25 -6 -35 -17 -35 -37c0 -16 8 -42 18 -71l135 -389h5l127 389c8 26 14 51 14 68c0 24 -12 35 -38 40l-32 7v24h200v-24l-27 -7c-29 -8 -36 -27 -62 -102l-196 -560h-81z" />
    <glyph glyph-name="W" unicode="W" horiz-adv-x="977" 
d="M273 0l-189 572c-23 69 -31 84 -60 91l-26 6v24h292v-24l-28 -6c-22 -6 -33 -17 -33 -38c0 -18 8 -44 16 -71l119 -380h5l106 321l-28 86c-18 58 -30 74 -58 82l-25 6v24h291v-24l-33 -7c-21 -5 -31 -17 -31 -39c0 -17 6 -43 14 -69l119 -380h5l107 380c7 25 13 51 13 70
c0 21 -11 34 -34 39l-32 6v24h196v-24l-26 -6c-32 -8 -43 -36 -66 -112l-169 -551h-84l-134 422h-3l-141 -422h-83z" />
    <glyph glyph-name="X" unicode="X" horiz-adv-x="676" 
d="M13 0v24l22 5c31 8 45 20 87 85l141 219l-156 257c-28 47 -36 63 -67 72l-24 7v24h315v-24l-36 -7c-17 -4 -27 -15 -27 -30c0 -14 6 -32 24 -62l92 -160h3l93 166c14 26 19 44 19 58c0 16 -12 25 -31 29l-31 6v24h203v-24l-26 -6c-27 -8 -39 -24 -79 -87l-124 -203
l161 -267c35 -56 44 -70 69 -77l23 -5v-24h-310v24l33 5c22 4 30 14 30 30c0 14 -9 35 -26 62l-102 177h-3l-104 -177c-16 -27 -25 -47 -25 -61c0 -17 11 -27 28 -31l29 -5v-24h-201z" />
    <glyph glyph-name="Y" unicode="Y" horiz-adv-x="629" 
d="M172 0v24l42 8c31 6 37 11 37 68v183l-160 293c-35 64 -46 78 -73 87l-22 6v24h308v-24l-28 -6c-28 -7 -39 -18 -39 -39c0 -13 6 -32 19 -56l117 -231h4l103 227c13 27 16 44 16 59c0 20 -10 32 -40 39l-29 7v24h206v-24l-21 -6c-31 -11 -47 -31 -80 -100l-130 -273v-190
c0 -57 4 -62 37 -68l41 -8v-24h-308z" />
    <glyph glyph-name="Z" unicode="Z" horiz-adv-x="567" 
d="M21 0v39l364 612v4h-48c-148 0 -167 -5 -195 -46c-24 -34 -38 -63 -65 -125h-27l11 209h488v-39l-362 -611v-4h51c155 0 180 8 211 49c26 35 43 72 71 141h29l-15 -229h-513z" />
    <glyph glyph-name="bracketleft" unicode="[" horiz-adv-x="340" 
d="M92 -130v864h223v-24l-76 -9c-43 -5 -50 -11 -50 -69v-659c0 -58 7 -65 50 -70l76 -9v-24h-223z" />
    <glyph glyph-name="backslash" unicode="\" horiz-adv-x="378" 
d="M326 -130l-308 864h52l308 -864h-52z" />
    <glyph glyph-name="bracketright" unicode="]" horiz-adv-x="340" 
d="M25 -130v24l76 9c43 5 51 12 51 70v659c0 58 -8 64 -51 69l-76 9v24h223v-864h-223z" />
    <glyph glyph-name="asciicircum" unicode="^" horiz-adv-x="437" 
d="M67 456l-15 15l144 228h45l144 -228l-14 -15l-153 132z" />
    <glyph glyph-name="underscore" unicode="_" horiz-adv-x="346" 
d="M-2 -171v51h350v-51h-350z" />
    <glyph glyph-name="grave" unicode="`" horiz-adv-x="497" 
d="M356 578l-187 50c-31 9 -43 32 -43 52c0 27 21 53 49 53c15 0 31 -6 47 -20l142 -119z" />
    <glyph glyph-name="a" unicode="a" horiz-adv-x="515" 
d="M169 -13c-93 0 -150 48 -150 133s72 123 165 145l118 29v93c0 77 -13 107 -80 107c-36 0 -46 -8 -49 -37c-5 -51 -19 -78 -68 -78c-41 0 -61 23 -61 56c0 64 90 95 206 95c122 0 186 -41 186 -135v-289c0 -33 6 -48 25 -58c12 -6 30 -9 47 -9v-21
c-17 -13 -56 -30 -104 -30c-55 0 -86 23 -95 60h-5c-25 -33 -74 -61 -135 -61zM230 49c36 0 61 17 72 37v161l-58 -6c-57 -5 -92 -30 -92 -103c0 -62 31 -89 78 -89z" />
    <glyph glyph-name="b" unicode="b" horiz-adv-x="587" 
d="M271 -12c-89 0 -152 15 -210 48v601c0 45 -5 49 -30 61l-39 19v20l197 19l10 -7s-4 -45 -4 -119v-73c0 -51 -2 -92 -2 -92h4c41 34 99 64 167 64c95 0 196 -60 196 -245c0 -201 -122 -296 -289 -296zM282 25c93 0 139 51 139 230c0 143 -48 199 -133 199
c-46 0 -74 -15 -93 -23v-370c22 -22 50 -36 87 -36z" />
    <glyph glyph-name="c" unicode="c" horiz-adv-x="484" 
d="M266 -12c-157 0 -243 107 -243 266c0 211 162 276 294 276c97 0 150 -33 150 -90c0 -36 -26 -63 -65 -63c-47 0 -61 30 -66 68c-5 41 -13 48 -46 48c-67 0 -131 -42 -131 -199c0 -151 47 -231 159 -231c63 0 115 21 150 39v-31c-29 -32 -101 -83 -202 -83z" />
    <glyph glyph-name="d" unicode="d" horiz-adv-x="600" 
d="M223 -12c-97 0 -196 67 -196 253c0 203 134 288 284 288c33 0 62 -5 83 -11c0 0 -2 38 -2 74v45c0 44 -6 47 -30 59l-42 21v20l200 19l9 -7s-3 -45 -3 -119v-517c0 -48 4 -54 31 -65l32 -15v-19l-185 -26l-10 7l2 55h-4c-42 -34 -101 -62 -169 -62zM294 57
c49 0 79 18 98 27v367c-19 20 -46 41 -86 41c-85 0 -141 -56 -141 -224c0 -155 46 -211 129 -211z" />
    <glyph glyph-name="e" unicode="e" horiz-adv-x="515" 
d="M276 -12c-169 0 -253 106 -253 273c0 168 122 269 253 269c133 0 214 -69 216 -250h-334c2 -165 67 -217 169 -217c68 0 114 21 152 39v-30c-32 -32 -104 -84 -203 -84zM270 495c-61 0 -107 -53 -112 -180l195 10c0 121 -17 170 -83 170z" />
    <glyph glyph-name="f" unicode="f" horiz-adv-x="332" 
d="M15 0v23l32 8c27 8 32 14 32 55v377h-70v22l70 31v34c0 130 94 209 238 209c73 0 112 -26 112 -70c0 -32 -20 -53 -56 -53c-41 0 -60 18 -64 61c-3 22 -7 27 -19 27c-39 0 -77 -25 -77 -110v-99h114l-12 -52h-102v-373c0 -47 4 -53 31 -58l44 -9v-23h-273z" />
    <glyph glyph-name="g" unicode="g" horiz-adv-x="511" 
d="M209 -208c-142 0 -222 45 -222 118c0 48 45 85 121 104v4c-48 12 -78 44 -78 90c0 52 43 90 77 113v4c-47 23 -82 69 -82 130c0 115 100 174 207 174c44 0 82 -8 116 -24c30 26 69 48 112 48c34 0 60 -18 60 -52c0 -28 -14 -52 -46 -52c-29 0 -39 14 -48 34
c-10 20 -32 18 -57 6v-4c40 -23 70 -65 70 -119c0 -116 -100 -172 -207 -172c-35 0 -68 6 -97 17c-12 -10 -26 -28 -26 -48c0 -22 16 -36 55 -36h170c91 0 158 -29 158 -132c0 -100 -83 -203 -283 -203zM228 -173c108 0 176 40 176 111c0 44 -25 71 -90 71h-167
c-23 -9 -51 -35 -51 -81c0 -64 39 -101 132 -101zM232 228c53 0 78 32 78 127c0 105 -26 140 -78 140c-53 0 -79 -34 -79 -129c0 -104 27 -138 79 -138z" />
    <glyph glyph-name="h" unicode="h" horiz-adv-x="608" 
d="M15 0v23l32 8c27 8 32 14 32 55v551c0 45 -5 49 -30 61l-39 19v20l197 19l10 -7s-4 -52 -4 -119v-73c0 -51 -3 -94 -3 -94h4c52 35 118 66 187 66c91 0 132 -43 132 -133v-310c0 -42 6 -48 32 -55l32 -8v-23h-259v23l31 8c26 7 30 10 30 55v278c0 64 -23 85 -76 85
c-41 0 -85 -12 -110 -18v-345c0 -45 4 -48 30 -55l31 -8v-23h-259z" />
    <glyph glyph-name="i" unicode="i" horiz-adv-x="288" 
d="M15 0v23l32 8c27 8 32 14 32 55v321c0 42 -5 45 -31 61l-35 21v17l195 23l9 -6c-1 -18 -4 -57 -4 -106v-331c0 -43 5 -48 32 -55l32 -8v-23h-262zM142 590c-43 0 -77 32 -77 73s34 73 77 73c42 0 76 -32 76 -73s-34 -73 -76 -73z" />
    <glyph glyph-name="j" unicode="j" horiz-adv-x="282" 
d="M12 -210c-78 0 -114 36 -114 80c0 33 24 53 58 53c44 0 59 -20 64 -67c3 -27 7 -30 17 -30c26 0 42 20 42 64v517c0 42 -5 45 -31 61l-35 21v17l195 23l9 -6c-1 -18 -4 -58 -4 -106v-414c0 -146 -87 -213 -201 -213zM140 590c-42 0 -76 32 -76 73s34 73 76 73
c43 0 77 -32 77 -73s-34 -73 -77 -73z" />
    <glyph glyph-name="k" unicode="k" horiz-adv-x="564" 
d="M398 0c-67 83 -119 165 -169 248v13l113 126c36 40 43 59 43 74c0 13 -10 20 -33 27l-14 4v23h201v-23l-25 -7c-27 -8 -42 -18 -85 -62l-99 -103c55 -91 127 -199 184 -266c10 -13 20 -20 33 -24l22 -7v-23h-171zM15 0v23l32 8c27 8 32 14 32 55v551c0 45 -5 49 -30 61
l-39 19v20l197 19l10 -7s-4 -52 -4 -119v-544c0 -44 4 -48 29 -55l30 -8v-23h-257z" />
    <glyph glyph-name="l" unicode="l" horiz-adv-x="291" 
d="M15 0v23l32 8c28 8 33 14 33 55v551c0 45 -5 48 -31 61l-39 19v20l198 19l10 -7s-4 -52 -4 -119v-544c0 -43 5 -47 33 -55l32 -8v-23h-264z" />
    <glyph glyph-name="m" unicode="m" horiz-adv-x="901" 
d="M15 0v23l32 8c27 8 32 14 32 55v321c0 42 -5 45 -31 61l-35 21v17l188 23l9 -7l-2 -61h5c51 36 113 68 180 68c65 0 100 -24 118 -69h4c54 36 114 69 188 69c82 0 122 -44 122 -134v-309c0 -42 6 -48 32 -55l32 -8v-23h-257v23l30 8c25 7 29 10 29 55v277
c0 63 -16 86 -67 86c-41 0 -81 -11 -107 -20c1 -8 2 -20 2 -38v-305c0 -43 6 -48 29 -55l30 -8v-23h-252v23l30 8c24 7 29 10 29 55v277c0 62 -16 86 -68 86c-40 0 -79 -12 -104 -18v-345c0 -45 4 -48 29 -55l30 -8v-23h-257z" />
    <glyph glyph-name="n" unicode="n" horiz-adv-x="608" 
d="M15 0v23l32 8c27 8 32 14 32 55v321c0 42 -5 45 -31 61l-35 21v17l188 23l9 -6l-2 -62h5c51 36 119 68 188 68c91 0 132 -43 132 -133v-310c0 -42 6 -48 32 -55l32 -8v-23h-259v23l31 8c26 7 30 10 30 55v278c0 64 -23 85 -76 85c-41 0 -85 -12 -110 -18v-345
c0 -45 4 -48 30 -55l31 -8v-23h-259z" />
    <glyph glyph-name="o" unicode="o" horiz-adv-x="569" 
d="M284 -13c-143 0 -261 90 -261 270c0 185 129 273 261 273c143 0 262 -87 262 -267c0 -185 -128 -276 -262 -276zM288 23c72 0 115 50 115 228c0 192 -42 243 -122 243c-74 0 -115 -55 -115 -221c0 -194 39 -250 122 -250z" />
    <glyph glyph-name="p" unicode="p" horiz-adv-x="605" 
d="M15 -203v23l32 9c27 7 32 13 32 55v523c0 42 -5 45 -31 61l-35 21v17l188 23l9 -6l-1 -59h4c43 35 100 65 169 65c94 0 196 -60 196 -245c0 -201 -118 -296 -286 -296c-24 0 -56 4 -80 11c0 0 1 -27 1 -62v-53c0 -44 4 -49 31 -55l43 -9v-23h-272zM299 25
c93 0 140 51 140 230c0 143 -48 199 -133 199c-46 0 -74 -15 -93 -23v-370c22 -22 48 -36 86 -36z" />
    <glyph glyph-name="q" unicode="q" horiz-adv-x="592" 
d="M318 -203v23l43 9c27 6 31 11 31 55v92c0 42 3 74 3 74h-4c-41 -34 -100 -62 -168 -62c-97 0 -196 67 -196 253c0 203 134 288 284 288c71 0 114 -16 154 -40h6l39 41l16 -6v-640c0 -42 5 -48 32 -55l32 -9v-23h-272zM294 57c49 0 79 18 98 27v370c-19 19 -46 38 -86 38
c-85 0 -141 -56 -141 -224c0 -155 46 -211 129 -211z" />
    <glyph glyph-name="r" unicode="r" horiz-adv-x="438" 
d="M15 0v23l32 8c27 8 32 14 32 55v321c0 42 -5 45 -31 61l-35 21v17l188 23l9 -7l-2 -66h5c32 34 90 74 144 74c45 0 72 -24 72 -69c0 -43 -28 -67 -62 -67c-42 0 -54 15 -69 42c-5 12 -10 15 -19 15c-18 0 -51 -17 -66 -33v-332c0 -45 5 -50 30 -55l40 -8v-23h-268z" />
    <glyph glyph-name="s" unicode="s" horiz-adv-x="422" 
d="M185 -12c-57 0 -113 9 -154 22l-5 152h25c19 -39 37 -66 60 -97c20 -29 41 -41 88 -41c52 0 91 29 91 78c0 50 -33 73 -118 106c-88 34 -145 78 -145 161c0 94 79 161 202 161c56 0 102 -8 133 -20l5 -132h-23c-18 35 -34 60 -54 83c-23 28 -43 33 -77 33
c-51 0 -81 -26 -81 -70c0 -41 26 -69 107 -100c108 -40 160 -85 160 -162c0 -101 -78 -174 -214 -174z" />
    <glyph glyph-name="t" unicode="t" horiz-adv-x="348" 
d="M196 -12c-79 0 -128 35 -128 124v351h-66v22c73 26 129 79 157 158h43v-128h136l-12 -52h-124v-341c0 -47 17 -66 65 -66c26 0 56 6 75 11v-25c-22 -19 -70 -54 -146 -54z" />
    <glyph glyph-name="u" unicode="u" horiz-adv-x="604" 
d="M208 -12c-81 0 -132 46 -132 132v295c0 39 -3 42 -29 56l-37 20v18l189 20l11 -9v-369c0 -59 25 -85 76 -85c41 0 81 15 110 25v324c0 39 -3 43 -29 56l-37 20v18l189 20l11 -9v-407c0 -48 4 -54 31 -65l33 -15v-19l-186 -26l-9 7l2 65h-5c-52 -37 -115 -72 -188 -72z
" />
    <glyph glyph-name="v" unicode="v" horiz-adv-x="535" 
d="M236 0l-164 412c-21 51 -30 65 -57 74l-21 6v23h270v-23l-27 -7c-22 -6 -29 -16 -29 -37c0 -13 5 -30 13 -53l92 -251h5l90 251c9 25 13 43 13 55c0 19 -9 30 -29 35l-27 7v23h176v-23l-23 -6c-26 -8 -35 -26 -57 -85l-155 -401h-70z" />
    <glyph glyph-name="w" unicode="w" horiz-adv-x="808" 
d="M223 0l-151 412c-19 52 -30 65 -57 74l-21 6v23h259v-23l-24 -6c-20 -6 -25 -15 -25 -31c0 -14 6 -34 14 -60l82 -251h5l81 234l-11 34c-19 53 -29 67 -51 74l-21 6v23h250v-23l-27 -7c-19 -5 -25 -16 -25 -35c0 -13 4 -32 12 -55l84 -251h5l80 251c8 27 12 43 12 56
c0 18 -8 29 -29 34l-27 7v23h176v-23l-23 -6c-26 -8 -35 -26 -57 -85l-144 -401h-70l-110 316h-3l-115 -316h-69z" />
    <glyph glyph-name="x" unicode="x" horiz-adv-x="565" 
d="M12 0v23l25 6c32 9 48 26 81 74l97 140l-117 172c-41 58 -48 66 -75 73l-15 4v23h272v-23l-22 -4c-18 -4 -27 -13 -27 -27c0 -12 7 -27 21 -48l67 -103h3l50 89c17 30 23 48 23 61c0 14 -9 22 -27 27l-26 5v23h190v-23l-23 -6c-33 -9 -51 -27 -83 -78l-82 -129l125 -179
c35 -51 44 -65 76 -74l13 -3v-23h-272v23l24 4c19 4 26 13 26 26s-10 30 -25 53l-72 107h-3l-58 -96c-19 -32 -27 -49 -27 -63s8 -22 34 -27l19 -4v-23h-192z" />
    <glyph glyph-name="y" unicode="y" horiz-adv-x="535" 
d="M111 -207c-59 0 -95 28 -95 68c0 35 23 55 58 55c37 0 53 -17 62 -47c4 -15 8 -19 19 -19c21 0 46 27 80 109l13 30l-177 422c-26 60 -31 67 -54 75l-21 6v23h265v-23l-27 -7c-20 -5 -29 -14 -29 -35c0 -14 5 -32 14 -55l95 -247h4l91 247c9 25 14 45 14 59
c0 19 -10 26 -30 31l-28 7v23h176v-23l-25 -7c-24 -8 -29 -22 -54 -84l-180 -447c-36 -91 -73 -161 -171 -161z" />
    <glyph glyph-name="z" unicode="z" horiz-adv-x="476" 
d="M15 0v34l291 440v4h-66c-75 0 -89 -5 -111 -30c-24 -29 -38 -54 -64 -101h-23l9 168h409v-32l-292 -442v-4h63c97 0 115 7 139 39c23 32 43 63 61 101h24l-14 -177h-426z" />
    <glyph glyph-name="braceleft" unicode="{" horiz-adv-x="358" 
d="M328 -130c-173 10 -220 48 -220 118c0 53 47 201 47 240c0 30 -18 55 -112 60v32c93 5 112 31 112 61c0 40 -47 184 -47 237c0 69 47 108 220 117v-25c-98 -14 -113 -23 -113 -85c0 -73 24 -159 24 -215c0 -57 -35 -87 -131 -104v-4c105 -16 131 -46 131 -103
c0 -56 -24 -145 -24 -218c0 -63 15 -72 113 -85v-26z" />
    <glyph glyph-name="bar" unicode="|" horiz-adv-x="224" 
d="M87 -130v864h50v-864h-50z" />
    <glyph glyph-name="braceright" unicode="}" horiz-adv-x="358" 
d="M38 -130v26c98 13 113 22 113 85c0 73 -24 161 -24 217c0 57 35 87 131 104v4c-105 16 -131 46 -131 103c0 56 24 143 24 216c0 62 -15 71 -113 85v25c173 -9 220 -48 220 -117c0 -53 -47 -199 -47 -238c0 -30 18 -55 112 -60v-32c-93 -5 -112 -31 -112 -61
c0 -40 47 -186 47 -239c0 -70 -47 -108 -220 -118z" />
    <glyph glyph-name="asciitilde" unicode="~" horiz-adv-x="379" 
d="M51 230l-22 11c29 69 50 114 95 114c46 0 112 -34 154 -34c20 0 33 12 52 43l22 -10c-29 -69 -49 -114 -95 -114s-113 33 -155 33c-20 0 -32 -12 -51 -43z" />
    <glyph glyph-name="Adieresis" unicode="&#xc4;" horiz-adv-x="669" 
d="M-3 0v24l26 7c30 8 37 17 68 102l199 560h82l207 -567c27 -72 39 -88 66 -96l24 -6v-24h-301v24l28 7c26 7 35 18 35 37c0 17 -8 43 -18 71l-32 91h-207l-30 -91c-10 -28 -14 -51 -14 -66c0 -26 11 -35 39 -42l30 -7v-24h-202zM273 529l-86 -260h181l-90 260h-5zM222 728
c-37 0 -68 29 -68 67s31 67 68 67c39 0 69 -29 69 -67s-30 -67 -69 -67zM438 728c-39 0 -69 29 -69 67s30 67 69 67c37 0 68 -29 68 -67s-31 -67 -68 -67z" />
    <glyph glyph-name="Aring" unicode="&#xc5;" horiz-adv-x="669" 
d="M-3 0v24l26 7c30 8 37 17 68 102l199 560h82l207 -567c27 -72 39 -88 66 -96l24 -6v-24h-301v24l28 7c26 7 35 18 35 37c0 17 -8 43 -18 71l-32 91h-207l-30 -91c-10 -28 -14 -51 -14 -66c0 -26 11 -35 39 -42l30 -7v-24h-202zM330 720c-57 0 -96 40 -96 91
c0 53 41 92 96 92s96 -39 96 -92c0 -51 -41 -91 -96 -91zM273 529l-86 -260h181l-90 260h-5zM330 752c33 0 55 25 55 59c0 35 -22 60 -55 60c-32 0 -55 -25 -55 -60c0 -34 22 -59 55 -59z" />
    <glyph glyph-name="Ccedilla" unicode="&#xc7;" horiz-adv-x="618" 
d="M252 -204v19c60 14 85 32 85 56c0 20 -20 28 -52 31l-5 8l40 80c-169 13 -290 124 -290 351c0 262 165 364 355 364c77 0 146 -11 188 -24l11 -203h-28c-24 57 -51 107 -74 140s-50 48 -108 48c-127 0 -184 -84 -184 -306c0 -253 58 -333 178 -333c71 0 98 18 125 56
c27 40 48 81 71 139h25l-11 -192c-46 -20 -123 -42 -220 -42h-2l-24 -36c52 -5 85 -28 85 -64c0 -55 -65 -84 -165 -92z" />
    <glyph glyph-name="Eacute" unicode="&#xc9;" 
d="M213 724l-6 16l155 112c15 11 29 17 44 17c28 0 49 -26 49 -55c0 -22 -12 -42 -46 -49zM20 0v24l39 8c27 6 36 11 36 68v493c0 57 -9 62 -36 68l-39 8v24h527l10 -191h-26c-24 53 -40 81 -53 101c-31 45 -51 50 -128 50c-60 0 -88 -5 -105 -9v-265h39c73 0 94 7 107 31
s20 45 28 78h27v-259h-27c-8 32 -15 53 -28 80s-28 31 -107 31h-39v-193c0 -97 3 -107 114 -107c85 0 100 9 132 55c17 24 38 70 62 131h28l-14 -226h-547z" />
    <glyph glyph-name="Ntilde" unicode="&#xd1;" horiz-adv-x="689" 
d="M221 719l-21 11c29 69 48 115 94 115c45 0 120 -23 163 -23c20 0 33 12 52 43l21 -11c-29 -70 -47 -115 -94 -115c-45 0 -120 23 -163 23c-21 0 -33 -12 -52 -43zM540 -2l-395 591h-4v-477c0 -69 8 -74 45 -81l38 -7v-24h-204v24l32 7c31 6 43 12 43 79v483
c0 57 -9 62 -36 68l-39 8v24h232l296 -448h4v336c0 69 -7 74 -44 81l-42 7v24h208v-24l-33 -7c-30 -6 -42 -12 -42 -79v-585h-59z" />
    <glyph glyph-name="Odieresis" unicode="&#xd6;" horiz-adv-x="712" 
d="M248 728c-37 0 -68 29 -68 67s31 67 68 67c39 0 69 -29 69 -67s-30 -67 -69 -67zM464 728c-39 0 -69 29 -69 67s30 67 69 67c37 0 68 -29 68 -67s-31 -67 -68 -67zM352 -12c-173 0 -323 114 -323 349c0 262 170 368 331 368c173 0 323 -112 323 -352
c0 -263 -170 -365 -331 -365zM358 27c115 0 168 79 168 306c0 203 -42 333 -173 333c-112 0 -167 -82 -167 -309c0 -203 41 -330 172 -330z" />
    <glyph glyph-name="Udieresis" unicode="&#xdc;" horiz-adv-x="692" 
d="M361 -12c-164 0 -276 65 -276 235v370c0 57 -8 62 -36 68l-38 8v24h298v-24l-37 -8c-30 -7 -36 -11 -36 -68v-386c0 -110 47 -161 166 -161c113 0 159 65 159 173v362c0 69 -7 74 -45 81l-43 7v24h209v-24l-33 -7c-29 -6 -41 -12 -41 -79v-371c0 -123 -74 -224 -247 -224
zM282 728c-37 0 -68 29 -68 67s31 67 68 67c39 0 69 -29 69 -67s-30 -67 -69 -67zM498 728c-39 0 -69 29 -69 67s30 67 69 67c37 0 68 -29 68 -67s-31 -67 -68 -67z" />
    <glyph glyph-name="aacute" unicode="&#xe1;" horiz-adv-x="515" 
d="M169 -13c-93 0 -150 48 -150 133s72 123 165 145l118 29v93c0 77 -13 107 -80 107c-36 0 -46 -8 -49 -37c-5 -51 -19 -78 -68 -78c-41 0 -61 23 -61 56c0 64 90 95 206 95c122 0 186 -41 186 -135v-289c0 -33 6 -48 25 -58c12 -6 30 -9 47 -9v-21
c-17 -13 -56 -30 -104 -30c-55 0 -86 23 -95 60h-5c-25 -33 -74 -61 -135 -61zM230 49c36 0 61 17 72 37v161l-58 -6c-57 -5 -92 -30 -92 -103c0 -62 31 -89 78 -89zM158 578l-7 16l142 119c16 14 31 20 46 20c28 0 49 -26 49 -53c0 -20 -11 -43 -42 -52z" />
    <glyph glyph-name="agrave" unicode="&#xe0;" horiz-adv-x="515" 
d="M169 -13c-93 0 -150 48 -150 133s72 123 165 145l118 29v93c0 77 -13 107 -80 107c-36 0 -46 -8 -49 -37c-5 -51 -19 -78 -68 -78c-41 0 -61 23 -61 56c0 64 90 95 206 95c122 0 186 -41 186 -135v-289c0 -33 6 -48 25 -58c12 -6 30 -9 47 -9v-21
c-17 -13 -56 -30 -104 -30c-55 0 -86 23 -95 60h-5c-25 -33 -74 -61 -135 -61zM230 49c36 0 61 17 72 37v161l-58 -6c-57 -5 -92 -30 -92 -103c0 -62 31 -89 78 -89zM346 578l-187 50c-31 9 -43 32 -43 52c0 27 21 53 49 53c15 0 31 -6 47 -20l142 -119z" />
    <glyph glyph-name="acircumflex" unicode="&#xe2;" horiz-adv-x="515" 
d="M169 -13c-93 0 -150 48 -150 133s72 123 165 145l118 29v93c0 77 -13 107 -80 107c-36 0 -46 -8 -49 -37c-5 -51 -19 -78 -68 -78c-41 0 -61 23 -61 56c0 64 90 95 206 95c122 0 186 -41 186 -135v-289c0 -33 6 -48 25 -58c12 -6 30 -9 47 -9v-21
c-17 -13 -56 -30 -104 -30c-55 0 -86 23 -95 60h-5c-25 -33 -74 -61 -135 -61zM230 49c36 0 61 17 72 37v161l-58 -6c-57 -5 -92 -30 -92 -103c0 -62 31 -89 78 -89zM113 573l-10 15l122 140h45l123 -140l-10 -15l-135 64z" />
    <glyph glyph-name="adieresis" unicode="&#xe4;" horiz-adv-x="515" 
d="M169 -13c-93 0 -150 48 -150 133s72 123 165 145l118 29v93c0 77 -13 107 -80 107c-36 0 -46 -8 -49 -37c-5 -51 -19 -78 -68 -78c-41 0 -61 23 -61 56c0 64 90 95 206 95c122 0 186 -41 186 -135v-289c0 -33 6 -48 25 -58c12 -6 30 -9 47 -9v-21
c-17 -13 -56 -30 -104 -30c-55 0 -86 23 -95 60h-5c-25 -33 -74 -61 -135 -61zM230 49c36 0 61 17 72 37v161l-58 -6c-57 -5 -92 -30 -92 -103c0 -62 31 -89 78 -89zM148 581c-37 0 -68 29 -68 67c0 39 31 67 68 67c39 0 69 -28 69 -67c0 -38 -30 -67 -69 -67zM348 581
c-39 0 -69 29 -69 67c0 39 30 67 69 67c37 0 68 -28 68 -67c0 -38 -31 -67 -68 -67z" />
    <glyph glyph-name="atilde" unicode="&#xe3;" horiz-adv-x="515" 
d="M169 -13c-93 0 -150 48 -150 133s72 123 165 145l118 29v93c0 77 -13 107 -80 107c-36 0 -46 -8 -49 -37c-5 -51 -19 -78 -68 -78c-41 0 -61 23 -61 56c0 64 90 95 206 95c122 0 186 -41 186 -135v-289c0 -33 6 -48 25 -58c12 -6 30 -9 47 -9v-21
c-17 -13 -56 -30 -104 -30c-55 0 -86 23 -95 60h-5c-25 -33 -74 -61 -135 -61zM230 49c36 0 61 17 72 37v161l-58 -6c-57 -5 -92 -30 -92 -103c0 -62 31 -89 78 -89zM108 572l-22 11c30 70 49 115 95 115c45 0 112 -23 155 -23c20 0 33 12 52 43l22 -11
c-29 -70 -47 -115 -95 -115c-45 0 -113 23 -155 23c-21 0 -33 -12 -52 -43z" />
    <glyph glyph-name="aring" unicode="&#xe5;" horiz-adv-x="515" 
d="M169 -13c-93 0 -150 48 -150 133s72 123 165 145l118 29v93c0 77 -13 107 -80 107c-36 0 -46 -8 -49 -37c-5 -51 -19 -78 -68 -78c-41 0 -61 23 -61 56c0 64 90 95 206 95c122 0 186 -41 186 -135v-289c0 -33 6 -48 25 -58c12 -6 30 -9 47 -9v-21
c-17 -13 -56 -30 -104 -30c-55 0 -86 23 -95 60h-5c-25 -33 -74 -61 -135 -61zM230 49c36 0 61 17 72 37v161l-58 -6c-57 -5 -92 -30 -92 -103c0 -62 31 -89 78 -89zM248 573c-57 0 -96 40 -96 91c0 53 41 92 96 92s96 -39 96 -92c0 -51 -41 -91 -96 -91zM248 605
c33 0 55 25 55 59c0 35 -22 60 -55 60c-32 0 -55 -25 -55 -60c0 -34 22 -59 55 -59z" />
    <glyph glyph-name="ccedilla" unicode="&#xe7;" horiz-adv-x="484" 
d="M151 -204v19c60 14 85 32 85 56c0 20 -20 28 -52 31l-5 8l40 82c-127 19 -196 119 -196 262c0 211 162 276 294 276c97 0 150 -33 150 -90c0 -36 -26 -63 -65 -63c-47 0 -61 30 -66 68c-5 41 -13 48 -46 48c-67 0 -131 -42 -131 -199c0 -151 47 -231 159 -231
c63 0 115 21 150 39v-31c-29 -32 -101 -83 -202 -83h-11l-24 -36c52 -5 85 -28 85 -64c0 -55 -65 -84 -165 -92z" />
    <glyph glyph-name="eacute" unicode="&#xe9;" horiz-adv-x="515" 
d="M276 -12c-169 0 -253 106 -253 273c0 168 122 269 253 269c133 0 214 -69 216 -250h-334c2 -165 67 -217 169 -217c68 0 114 21 152 39v-30c-32 -32 -104 -84 -203 -84zM270 495c-61 0 -107 -53 -112 -180l195 10c0 121 -17 170 -83 170zM185 578l-7 16l142 119
c16 14 31 20 46 20c28 0 49 -26 49 -53c0 -20 -11 -43 -42 -52z" />
    <glyph glyph-name="egrave" unicode="&#xe8;" horiz-adv-x="515" 
d="M276 -12c-169 0 -253 106 -253 273c0 168 122 269 253 269c133 0 214 -69 216 -250h-334c2 -165 67 -217 169 -217c68 0 114 21 152 39v-30c-32 -32 -104 -84 -203 -84zM270 495c-61 0 -107 -53 -112 -180l195 10c0 121 -17 170 -83 170zM372 578l-187 50
c-31 9 -43 32 -43 52c0 27 21 53 49 53c15 0 31 -6 47 -20l142 -119z" />
    <glyph glyph-name="ecircumflex" unicode="&#xea;" horiz-adv-x="515" 
d="M276 -12c-169 0 -253 106 -253 273c0 168 122 269 253 269c133 0 214 -69 216 -250h-334c2 -165 67 -217 169 -217c68 0 114 21 152 39v-30c-32 -32 -104 -84 -203 -84zM270 495c-61 0 -107 -53 -112 -180l195 10c0 121 -17 170 -83 170zM139 573l-10 15l122 140h45
l123 -140l-10 -15l-135 64z" />
    <glyph glyph-name="edieresis" unicode="&#xeb;" horiz-adv-x="515" 
d="M276 -12c-169 0 -253 106 -253 273c0 168 122 269 253 269c133 0 214 -69 216 -250h-334c2 -165 67 -217 169 -217c68 0 114 21 152 39v-30c-32 -32 -104 -84 -203 -84zM270 495c-61 0 -107 -53 -112 -180l195 10c0 121 -17 170 -83 170zM374 581c-39 0 -69 29 -69 67
c0 39 30 67 69 67c37 0 68 -28 68 -67c0 -38 -31 -67 -68 -67zM174 581c-37 0 -68 29 -68 67c0 39 31 67 68 67c39 0 69 -28 69 -67c0 -38 -30 -67 -69 -67z" />
    <glyph glyph-name="iacute" unicode="&#xed;" horiz-adv-x="288" 
d="M56 578l-7 16l142 119c16 14 31 20 46 20c28 0 49 -26 49 -53c0 -20 -11 -43 -42 -52zM15 0v26l32 8c22 6 32 11 32 37v349c0 29 -5 34 -31 49l-35 20v17l195 23l9 -7c-2 -41 -4 -74 -4 -105v-346c0 -28 7 -31 32 -37l32 -8v-26h-262z" />
    <glyph glyph-name="igrave" unicode="&#xec;" horiz-adv-x="288" 
d="M15 0v26l32 8c22 6 32 11 32 37v349c0 29 -5 34 -31 49l-35 20v17l195 23l9 -7c-2 -41 -4 -74 -4 -105v-346c0 -28 7 -31 32 -37l32 -8v-26h-262zM242 578l-187 50c-31 9 -43 32 -43 52c0 27 21 53 49 53c15 0 31 -6 47 -20l142 -119z" />
    <glyph glyph-name="icircumflex" unicode="&#xee;" horiz-adv-x="288" 
d="M10 573l-10 15l122 140h45l123 -140l-10 -15l-135 64zM15 0v26l32 8c22 6 32 11 32 37v349c0 29 -5 34 -31 49l-35 20v17l195 23l9 -7c-2 -41 -4 -74 -4 -105v-346c0 -28 7 -31 32 -37l32 -8v-26h-262z" />
    <glyph glyph-name="idieresis" unicode="&#xef;" horiz-adv-x="288" 
d="M45 581c-37 0 -68 29 -68 67c0 39 31 67 68 67c39 0 69 -28 69 -67c0 -38 -30 -67 -69 -67zM245 581c-39 0 -69 29 -69 67c0 39 30 67 69 67c37 0 68 -28 68 -67c0 -38 -31 -67 -68 -67zM15 0v26l32 8c22 6 32 11 32 37v349c0 29 -5 34 -31 49l-35 20v17l195 23l9 -7
c-2 -41 -4 -74 -4 -105v-346c0 -28 7 -31 32 -37l32 -8v-26h-262z" />
    <glyph glyph-name="ntilde" unicode="&#xf1;" horiz-adv-x="608" 
d="M15 0v23l32 8c27 8 32 14 32 55v321c0 42 -5 45 -31 61l-35 21v17l188 23l9 -6l-2 -62h5c51 36 119 68 188 68c91 0 132 -43 132 -133v-310c0 -42 6 -48 32 -55l32 -8v-23h-259v23l31 8c26 7 30 10 30 55v278c0 64 -23 85 -76 85c-41 0 -85 -12 -110 -18v-345
c0 -45 4 -48 30 -55l31 -8v-23h-259zM168 572l-22 11c30 70 49 115 95 115c45 0 112 -23 155 -23c20 0 33 12 52 43l22 -11c-29 -70 -47 -115 -95 -115c-45 0 -113 23 -155 23c-21 0 -33 -12 -52 -43z" />
    <glyph glyph-name="oacute" unicode="&#xf3;" horiz-adv-x="569" 
d="M195 578l-7 16l142 119c16 14 31 20 46 20c28 0 49 -26 49 -53c0 -20 -11 -43 -42 -52zM284 -13c-143 0 -261 90 -261 270c0 185 129 273 261 273c143 0 262 -87 262 -267c0 -185 -128 -276 -262 -276zM288 23c72 0 115 50 115 228c0 192 -42 243 -122 243
c-74 0 -115 -55 -115 -221c0 -194 39 -250 122 -250z" />
    <glyph glyph-name="ograve" unicode="&#xf2;" horiz-adv-x="569" 
d="M284 -13c-143 0 -261 90 -261 270c0 185 129 273 261 273c143 0 262 -87 262 -267c0 -185 -128 -276 -262 -276zM288 23c72 0 115 50 115 228c0 192 -42 243 -122 243c-74 0 -115 -55 -115 -221c0 -194 39 -250 122 -250zM381 578l-187 50c-31 9 -43 32 -43 52
c0 27 21 53 49 53c15 0 31 -6 47 -20l142 -119z" />
    <glyph glyph-name="ocircumflex" unicode="&#xf4;" horiz-adv-x="569" 
d="M149 573l-10 15l122 140h45l123 -140l-10 -15l-135 64zM284 -13c-143 0 -261 90 -261 270c0 185 129 273 261 273c143 0 262 -87 262 -267c0 -185 -128 -276 -262 -276zM288 23c72 0 115 50 115 228c0 192 -42 243 -122 243c-74 0 -115 -55 -115 -221
c0 -194 39 -250 122 -250z" />
    <glyph glyph-name="odieresis" unicode="&#xf6;" horiz-adv-x="569" 
d="M184 581c-37 0 -68 29 -68 67c0 39 31 67 68 67c39 0 69 -28 69 -67c0 -38 -30 -67 -69 -67zM384 581c-39 0 -69 29 -69 67c0 39 30 67 69 67c37 0 68 -28 68 -67c0 -38 -31 -67 -68 -67zM284 -13c-143 0 -261 90 -261 270c0 185 129 273 261 273c143 0 262 -87 262 -267
c0 -185 -128 -276 -262 -276zM288 23c72 0 115 50 115 228c0 192 -42 243 -122 243c-74 0 -115 -55 -115 -221c0 -194 39 -250 122 -250z" />
    <glyph glyph-name="otilde" unicode="&#xf5;" horiz-adv-x="569" 
d="M284 -13c-143 0 -261 90 -261 270c0 185 129 273 261 273c143 0 262 -87 262 -267c0 -185 -128 -276 -262 -276zM288 23c72 0 115 50 115 228c0 192 -42 243 -122 243c-74 0 -115 -55 -115 -221c0 -194 39 -250 122 -250zM144 572l-22 11c30 70 49 115 95 115
c45 0 112 -23 155 -23c20 0 33 12 52 43l22 -11c-29 -70 -47 -115 -95 -115c-45 0 -113 23 -155 23c-21 0 -33 -12 -52 -43z" />
    <glyph glyph-name="uacute" unicode="&#xfa;" horiz-adv-x="604" 
d="M218 578l-7 16l142 119c16 14 31 20 46 20c28 0 49 -26 49 -53c0 -20 -11 -43 -42 -52zM208 -12c-81 0 -132 46 -132 132v295c0 39 -3 42 -29 56l-37 20v18l189 20l11 -9v-369c0 -59 25 -85 76 -85c41 0 81 15 110 25v324c0 39 -3 43 -29 56l-37 20v18l189 20l11 -9v-407
c0 -48 4 -54 31 -65l33 -15v-19l-186 -26l-9 7l2 65h-5c-52 -37 -115 -72 -188 -72z" />
    <glyph glyph-name="ugrave" unicode="&#xf9;" horiz-adv-x="604" 
d="M208 -12c-81 0 -132 46 -132 132v295c0 39 -3 42 -29 56l-37 20v18l189 20l11 -9v-369c0 -59 25 -85 76 -85c41 0 81 15 110 25v324c0 39 -3 43 -29 56l-37 20v18l189 20l11 -9v-407c0 -48 4 -54 31 -65l33 -15v-19l-186 -26l-9 7l2 65h-5c-52 -37 -115 -72 -188 -72z
M404 578l-187 50c-31 9 -43 32 -43 52c0 27 21 53 49 53c15 0 31 -6 47 -20l142 -119z" />
    <glyph glyph-name="ucircumflex" unicode="&#xfb;" horiz-adv-x="604" 
d="M171 573l-10 15l122 140h45l123 -140l-10 -15l-135 64zM208 -12c-81 0 -132 46 -132 132v295c0 39 -3 42 -29 56l-37 20v18l189 20l11 -9v-369c0 -59 25 -85 76 -85c41 0 81 15 110 25v324c0 39 -3 43 -29 56l-37 20v18l189 20l11 -9v-407c0 -48 4 -54 31 -65l33 -15v-19
l-186 -26l-9 7l2 65h-5c-52 -37 -115 -72 -188 -72z" />
    <glyph glyph-name="udieresis" unicode="&#xfc;" horiz-adv-x="604" 
d="M206 581c-37 0 -68 29 -68 67c0 39 31 67 68 67c39 0 69 -28 69 -67c0 -38 -30 -67 -69 -67zM406 581c-39 0 -69 29 -69 67c0 39 30 67 69 67c37 0 68 -28 68 -67c0 -38 -31 -67 -68 -67zM208 -12c-81 0 -132 46 -132 132v295c0 39 -3 42 -29 56l-37 20v18l189 20l11 -9
v-369c0 -59 25 -85 76 -85c41 0 81 15 110 25v324c0 39 -3 43 -29 56l-37 20v18l189 20l11 -9v-407c0 -48 4 -54 31 -65l33 -15v-19l-186 -26l-9 7l2 65h-5c-52 -37 -115 -72 -188 -72z" />
    <glyph glyph-name="dagger" unicode="&#x2020;" horiz-adv-x="415" 
d="M194 -67l-48 431c22 29 44 81 46 120c-51 -5 -87 -42 -121 -42s-53 25 -53 54c0 30 19 55 53 55s70 -37 121 -43c-5 54 -48 107 -48 136c0 33 29 58 62 58s62 -25 62 -58c0 -29 -42 -82 -47 -136c52 6 89 43 122 43c34 0 53 -25 53 -55c0 -29 -19 -54 -53 -54
c-33 0 -70 37 -122 42c3 -39 25 -91 46 -120l-48 -431h-25z" />
    <glyph glyph-name="degree" unicode="&#xb0;" horiz-adv-x="304" 
d="M152 456c-71 0 -123 57 -123 124c0 66 52 123 123 123s123 -57 123 -123c0 -67 -52 -124 -123 -124zM152 492c48 0 80 40 80 88c0 47 -32 87 -80 87s-80 -40 -80 -87c0 -48 32 -88 80 -88z" />
    <glyph glyph-name="cent" unicode="&#xa2;" horiz-adv-x="485" 
d="M260 526v70h40v-67c6 1 12 1 18 1c99 0 152 -33 152 -90c0 -36 -24 -62 -62 -62c-47 0 -59 27 -64 65c-6 38 -16 48 -44 50v-432h17c69 0 118 23 153 41v-31c-26 -29 -84 -73 -170 -81v-100h-40v98c-151 6 -237 112 -237 270c0 177 119 250 237 268zM161 294
c0 -126 30 -200 99 -224v419c-54 -13 -99 -62 -99 -195z" />
    <glyph glyph-name="sterling" unicode="&#xa3;" horiz-adv-x="529" 
d="M39 338v41h63c-10 41 -19 84 -19 121c0 121 94 205 246 205c112 0 175 -38 175 -100c0 -38 -27 -60 -62 -60c-46 0 -63 27 -75 78c-10 42 -14 45 -45 45c-55 0 -90 -36 -90 -136c0 -40 4 -100 7 -153h157v-41h-155c0 -13 1 -25 1 -35c0 -84 -47 -141 -128 -189v-6h282
c41 0 52 7 82 79h25l-22 -187h-462v76c72 45 109 91 109 167c0 26 -8 59 -16 95h-73z" />
    <glyph glyph-name="section" unicode="&#xa7;" horiz-adv-x="558" 
d="M251 -204c-104 0 -159 39 -159 94c0 33 20 54 57 54c40 0 58 -20 63 -68c5 -37 13 -46 55 -46c47 0 77 28 77 79c0 56 -31 82 -156 176c-112 84 -166 134 -166 216c0 74 51 121 115 154c-14 25 -21 50 -21 80c0 96 73 167 193 167c100 0 155 -37 155 -90
c0 -29 -22 -54 -59 -54c-41 0 -55 20 -61 71c-4 31 -14 39 -51 39c-46 0 -77 -30 -77 -81c0 -56 28 -80 153 -174c124 -93 168 -138 168 -220c0 -69 -50 -116 -111 -154c12 -22 19 -46 19 -73c0 -102 -79 -170 -194 -170zM407 67c24 18 36 42 36 75c0 45 -30 74 -146 161
c-63 46 -112 86 -143 126c-27 -17 -39 -39 -39 -74c0 -46 35 -76 145 -159c64 -49 116 -88 147 -129z" />
    <glyph glyph-name="bullet" unicode="&#x2022;" horiz-adv-x="335" 
d="M166 197c-71 0 -129 60 -129 131c0 75 58 131 129 131c70 0 132 -56 132 -131c0 -71 -62 -131 -132 -131z" />
    <glyph glyph-name="paragraph" unicode="&#xb6;" horiz-adv-x="531" 
d="M255 -100v438c-9 -1 -21 -2 -35 -2c-139 0 -199 76 -199 183c0 102 67 174 198 174h292v-24l-38 -8c-28 -6 -36 -11 -36 -68v-693h-49v754h-85v-754h-48z" />
    <glyph glyph-name="germandbls" unicode="&#xdf;" horiz-adv-x="633" 
d="M425 -9c-101 0 -148 31 -148 82c0 32 21 55 57 55c41 0 54 -23 58 -60c5 -34 13 -41 47 -41c46 0 74 27 74 68c0 46 -27 69 -106 120c-85 53 -112 86 -112 135c0 85 112 158 112 266c0 61 -27 109 -93 109c-63 0 -101 -38 -101 -137v-505c0 -43 2 -49 22 -54l26 -6v-23
h-246v23l32 8c27 8 32 14 32 55v377h-70v22l70 31v16c0 163 123 227 241 227c138 0 202 -61 202 -128c0 -105 -151 -161 -151 -211c0 -23 21 -39 120 -99c90 -54 123 -98 123 -167c0 -101 -78 -163 -189 -163z" />
    <glyph glyph-name="registered" unicode="&#xae;" horiz-adv-x="394" 
d="M197 336c-101 0 -177 82 -177 182c0 101 76 182 177 182c100 0 178 -81 178 -182c0 -100 -78 -182 -178 -182zM197 360c88 0 150 71 150 158c0 88 -62 158 -150 158c-89 0 -149 -70 -149 -158c0 -87 60 -158 149 -158zM103 425v13l12 3c8 2 10 3 10 17v125
c0 15 -2 17 -10 19l-11 2v14h91c58 0 81 -18 81 -52c0 -24 -13 -39 -38 -46v-2c12 -25 26 -50 41 -70c2 -4 8 -7 12 -8l8 -2v-13h-62c-18 25 -33 55 -43 80h-19v-47c0 -14 1 -15 10 -17l12 -3v-13h-94zM175 521h15c27 0 36 14 36 41c0 28 -11 39 -33 39c-3 0 -17 0 -18 -1
v-79z" />
    <glyph glyph-name="copyright" unicode="&#xa9;" horiz-adv-x="788" 
d="M398 132c-119 0 -208 65 -208 210c0 160 101 221 219 221c56 0 96 -9 122 -16l4 -122h-21c-18 36 -27 55 -45 80c-16 21 -28 29 -65 29c-71 0 -99 -54 -99 -177c0 -147 34 -196 106 -196c30 0 49 8 65 32s27 50 44 87h21l-7 -124c-28 -11 -74 -24 -136 -24zM393 -16
c-202 0 -356 162 -356 360s154 358 356 358c201 0 358 -160 358 -358s-157 -360 -358 -360zM393 22c182 0 312 145 312 322s-130 321 -312 321c-183 0 -312 -144 -312 -321s129 -322 312 -322z" />
    <glyph glyph-name="trademark" unicode="&#x2122;" horiz-adv-x="718" 
d="M309 413v19l20 4c13 3 17 11 17 39v168c0 20 -3 23 -16 26l-18 5v19h133l57 -163h1l56 163h133v-18l-19 -5c-12 -4 -16 -6 -16 -26v-179c0 -23 3 -27 15 -29l21 -4v-19h-151v19l20 4c13 3 15 6 15 29v192h-2l-80 -238h-32l-85 238h-2v-181c0 -31 3 -37 19 -40l21 -4v-19
h-107zM76 414v18l24 5c14 3 16 6 16 29v204h-4c-24 0 -32 -3 -41 -17c-12 -18 -18 -33 -31 -65h-17l4 105h258l4 -105h-16c-13 30 -20 47 -31 65c-9 14 -18 17 -42 17h-4v-204c0 -23 2 -26 16 -29l25 -5v-18h-161z" />
    <glyph glyph-name="acute" unicode="&#xb4;" horiz-adv-x="500" 
d="M142 578l-7 16l142 119c16 14 31 20 46 20c28 0 49 -26 49 -53c0 -20 -11 -43 -42 -52z" />
    <glyph glyph-name="dieresis" unicode="&#xa8;" horiz-adv-x="500" 
d="M150 581c-37 0 -68 29 -68 67c0 39 31 67 68 67c39 0 69 -28 69 -67c0 -38 -30 -67 -69 -67zM350 581c-39 0 -69 29 -69 67c0 39 30 67 69 67c37 0 68 -28 68 -67c0 -38 -31 -67 -68 -67z" />
    <glyph glyph-name="notequal" unicode="&#x2260;" horiz-adv-x="505" 
d="M36 388v50h244l77 137h57l-77 -137h132v-50h-160l-56 -100h216v-50h-244l-77 -137h-56l76 137h-132v50h160l56 100h-216z" />
    <glyph glyph-name="AE" unicode="&#xc6;" horiz-adv-x="917" 
d="M-4 0v24l26 7c31 8 45 17 93 102l293 514c-8 8 -20 11 -33 14l-40 8v24h526l11 -191h-27c-23 53 -39 81 -52 101c-30 45 -51 50 -125 50c-52 0 -82 -4 -99 -9v-265h31c72 0 94 7 107 31c12 24 20 45 28 78h26v-259h-26c-8 32 -16 53 -28 80c-13 27 -28 31 -107 31h-31
v-193c0 -97 5 -107 107 -107c84 0 99 9 130 55c17 24 38 70 61 131h28l-14 -226h-532v24l38 8c27 6 38 11 38 68v119h-208l-43 -80c-17 -31 -29 -58 -29 -77c-1 -16 8 -25 31 -31l29 -7v-24h-209zM422 593l-184 -336h187v336h-3z" />
    <glyph glyph-name="Oslash" unicode="&#xd8;" horiz-adv-x="712" 
d="M72 -64l76 119c-72 58 -119 152 -119 282c0 262 170 368 331 368c61 0 120 -15 171 -45l44 70h48l-59 -93c72 -57 119 -151 119 -284c0 -263 -170 -365 -331 -365c-62 0 -121 15 -171 44l-61 -96h-48zM358 27c115 0 168 79 168 306c0 87 -7 156 -22 209l-278 -439
c27 -51 69 -76 132 -76zM186 357c0 -86 6 -155 21 -207l278 439c-27 51 -69 77 -132 77c-112 0 -167 -82 -167 -309z" />
    <glyph glyph-name="plusminus" unicode="&#xb1;" horiz-adv-x="464" 
d="M36 0v51h392v-51h-392zM202 154v172h-166v52h166v172h60v-172h166v-52h-166v-172h-60z" />
    <glyph glyph-name="lessequal" unicode="&#x2264;" horiz-adv-x="464" 
d="M428 146l-392 166v50l392 166v-58l-329 -132l329 -133v-59zM36 0v51h392v-51h-392z" />
    <glyph glyph-name="greaterequal" unicode="&#x2265;" horiz-adv-x="464" 
d="M428 312l-392 -166v59l329 133l-329 132v58l392 -166v-50zM428 51v-51h-392v51h392z" />
    <glyph glyph-name="yen" unicode="&#xa5;" horiz-adv-x="609" 
d="M58 303v41h162l-126 232c-36 64 -44 79 -69 87l-22 6v24h302v-24l-26 -6c-28 -6 -39 -18 -39 -39c0 -13 6 -30 18 -56l99 -202h5l88 198c11 26 17 45 17 60c0 20 -11 30 -40 39l-25 6v24h197v-24l-21 -6c-29 -10 -41 -30 -74 -100l-107 -219h164v-41h-175v-73h175v-41
h-175v-89c0 -57 4 -62 37 -68l42 -8v-24h-308v24l41 8c31 6 37 11 37 68v89h-177v41h177v73h-177z" />
    <glyph glyph-name="ordfeminine" unicode="&#xaa;" horiz-adv-x="431" 
d="M143 265c-76 0 -122 38 -122 106s55 99 133 118l95 24v65c0 67 -11 90 -64 90c-29 0 -32 -10 -36 -33c-6 -42 -17 -65 -58 -65c-34 0 -52 20 -52 48c0 52 71 82 168 82c99 0 160 -35 160 -116v-220c0 -27 3 -39 19 -46c10 -5 25 -8 39 -8v-20c-17 -10 -47 -25 -90 -25
c-49 0 -73 19 -81 48h-3c-20 -25 -58 -48 -108 -48zM193 319c27 0 47 13 56 28v125l-47 -5c-45 -5 -65 -23 -65 -82c0 -49 20 -66 56 -66z" />
    <glyph glyph-name="ordmasculine" unicode="&#xba;" horiz-adv-x="474" 
d="M237 266c-113 0 -214 71 -214 216c0 148 108 218 214 218c113 0 214 -70 214 -214c0 -148 -107 -220 -214 -220zM239 299c59 0 90 37 90 178c0 152 -29 190 -94 190c-60 0 -89 -42 -89 -173c0 -153 27 -195 93 -195z" />
    <glyph glyph-name="ae" unicode="&#xe6;" horiz-adv-x="775" 
d="M543 -12c-90 0 -154 30 -194 84c-45 -57 -102 -85 -177 -85c-96 0 -153 47 -153 132c0 86 70 127 165 149l116 28v91c0 73 -12 107 -79 107c-36 0 -46 -8 -50 -37c-5 -51 -19 -78 -67 -78c-41 0 -62 23 -62 57c0 63 92 94 200 94c79 0 127 -25 151 -66
c38 41 90 66 152 66c128 0 208 -73 208 -259h-324c5 -158 69 -208 163 -208c67 0 111 21 148 39v-30c-31 -32 -101 -84 -197 -84zM537 495c-62 0 -105 -55 -108 -189l188 10c0 125 -15 179 -80 179zM230 49c43 0 74 27 95 67c-16 37 -24 82 -25 134l-56 -6
c-57 -5 -92 -34 -92 -107c0 -62 31 -88 78 -88z" />
    <glyph glyph-name="oslash" unicode="&#xf8;" horiz-adv-x="569" 
d="M54 -64l66 101c-59 44 -97 118 -97 220c0 185 129 273 261 273c49 0 95 -11 135 -31l50 77h45l-63 -97c58 -44 95 -115 95 -216c0 -185 -128 -276 -262 -276c-48 0 -93 10 -132 30l-53 -81h-45zM163 256c0 -58 3 -102 11 -135l206 319c-20 43 -54 54 -99 54
c-74 0 -119 -60 -118 -238zM288 23c73 0 119 59 118 243c-1 54 -4 95 -11 127l-206 -318c21 -40 53 -52 99 -52z" />
    <glyph glyph-name="questiondown" unicode="&#xbf;" horiz-adv-x="456" 
d="M258 -89c-140 0 -223 68 -223 188c0 121 96 191 225 224v87h48v-174c-70 -25 -145 -64 -145 -168c0 -93 43 -119 91 -119c32 0 39 8 44 42c7 51 28 74 73 74c41 0 60 -28 60 -57c0 -62 -75 -97 -173 -97zM284 475c-39 0 -75 31 -75 73c0 40 36 74 75 74
c41 0 74 -34 74 -74c0 -42 -33 -73 -74 -73z" />
    <glyph glyph-name="exclamdown" unicode="&#xa1;" horiz-adv-x="275" 
d="M136 472c-40 0 -75 31 -75 73c0 40 35 74 75 74s75 -34 75 -74c0 -42 -35 -73 -75 -73zM136 -90c-54 0 -95 35 -79 111l64 385h29l65 -385c15 -76 -25 -111 -79 -111z" />
    <glyph glyph-name="florin" unicode="&#x192;" horiz-adv-x="463" 
d="M46 356v41h85l13 88c22 151 107 219 228 219c82 0 124 -38 124 -83c0 -36 -24 -55 -56 -55c-37 0 -54 17 -62 71c-5 28 -7 31 -26 31c-29 0 -50 -18 -63 -105l-25 -166h116v-41h-122l-46 -315c-25 -174 -99 -238 -207 -238c-81 0 -113 37 -113 75c0 30 20 50 54 50
c32 0 46 -14 54 -60c5 -27 9 -31 20 -31c21 0 33 17 42 79l63 440h-79z" />
    <glyph glyph-name="approxequal" unicode="&#x2248;" horiz-adv-x="505" 
d="M424 340l45 -21c-26 -57 -55 -100 -116 -100s-154 44 -205 44c-31 0 -54 -33 -66 -65l-46 20c20 54 55 99 115 99s151 -45 204 -45c33 0 53 33 69 68zM424 493l45 -22c-26 -57 -55 -100 -116 -100s-154 45 -205 45c-31 0 -54 -34 -66 -66l-46 21c20 53 55 99 115 99
s151 -45 204 -45c33 0 53 33 69 68z" />
    <glyph glyph-name="guillemotleft" unicode="&#xab;" horiz-adv-x="448" 
d="M207 45l-172 198v19l172 198h32l-93 -207l93 -208h-32zM381 45l-172 198v19l172 198h32l-93 -207l93 -208h-32z" />
    <glyph glyph-name="guillemotright" unicode="&#xbb;" horiz-adv-x="448" 
d="M35 45l93 208l-93 207h33l172 -198v-19l-172 -198h-33zM209 45l93 208l-93 207h33l172 -198v-19l-172 -198h-33z" />
    <glyph glyph-name="ellipsis" unicode="&#x2026;" horiz-adv-x="648" 
d="M110 -6c-41 0 -74 33 -74 73c0 42 33 74 74 74c40 0 75 -32 75 -74c0 -40 -35 -73 -75 -73zM324 -6c-41 0 -74 33 -74 73c0 42 33 74 74 74c40 0 75 -32 75 -74c0 -40 -35 -73 -75 -73zM538 -6c-41 0 -75 33 -75 73c0 42 34 74 75 74c40 0 75 -32 75 -74
c0 -40 -35 -73 -75 -73z" />
    <glyph glyph-name="uni00A0" unicode="&#xa0;" horiz-adv-x="214" 
 />
    <glyph glyph-name="Agrave" unicode="&#xc0;" horiz-adv-x="669" 
d="M-3 0v24l26 7c30 8 37 17 68 102l199 560h82l207 -567c27 -72 39 -88 66 -96l24 -6v-24h-301v24l28 7c26 7 35 18 35 37c0 17 -8 43 -18 71l-32 91h-207l-30 -91c-10 -28 -14 -51 -14 -66c0 -26 11 -35 39 -42l30 -7v-24h-202zM273 529l-86 -260h181l-90 260h-5zM446 740
l-6 -16l-196 41c-34 7 -46 27 -46 49c0 29 21 55 49 55c15 0 29 -6 44 -17z" />
    <glyph glyph-name="Atilde" unicode="&#xc3;" horiz-adv-x="669" 
d="M-3 0v24l26 7c30 8 37 17 68 102l199 560h82l207 -567c27 -72 39 -88 66 -96l24 -6v-24h-301v24l28 7c26 7 35 18 35 37c0 17 -8 43 -18 71l-32 91h-207l-30 -91c-10 -28 -14 -51 -14 -66c0 -26 11 -35 39 -42l30 -7v-24h-202zM186 719l-21 11c29 69 48 115 94 115
c45 0 120 -23 163 -23c20 0 33 12 52 43l21 -11c-29 -70 -47 -115 -94 -115c-45 0 -120 23 -163 23c-21 0 -33 -12 -52 -43zM273 529l-86 -260h181l-90 260h-5z" />
    <glyph glyph-name="Otilde" unicode="&#xd5;" horiz-adv-x="712" 
d="M212 719l-21 11c29 69 48 115 94 115c45 0 120 -23 163 -23c20 0 33 12 52 43l21 -11c-29 -70 -47 -115 -94 -115c-45 0 -120 23 -163 23c-21 0 -33 -12 -52 -43zM352 -12c-173 0 -323 114 -323 349c0 262 170 368 331 368c173 0 323 -112 323 -352
c0 -263 -170 -365 -331 -365zM358 27c115 0 168 79 168 306c0 203 -42 333 -173 333c-112 0 -167 -82 -167 -309c0 -203 41 -330 172 -330z" />
    <glyph glyph-name="OE" unicode="&#x152;" horiz-adv-x="982" 
d="M376 0c-189 0 -347 86 -347 339c0 242 157 354 353 354h543l11 -191h-27c-23 53 -39 81 -52 101c-31 45 -51 50 -129 50c-60 0 -87 -5 -104 -9v-265h39c73 0 94 7 107 31s20 45 28 78h27v-259h-27c-8 32 -15 53 -28 80s-28 31 -107 31h-39v-193c0 -97 3 -107 113 -107
c86 0 101 9 133 55c17 24 38 70 61 131h29l-15 -226h-569zM385 36c75 0 88 21 88 99v430c0 72 -11 92 -93 92c-147 0 -194 -98 -194 -297c0 -235 51 -324 199 -324z" />
    <glyph glyph-name="oe" unicode="&#x153;" horiz-adv-x="888" 
d="M280 -13c-141 0 -257 90 -257 270c0 185 127 273 260 273c81 0 146 -33 188 -92c43 57 107 92 182 92c129 0 210 -69 212 -250h-332c2 -165 65 -217 167 -217c68 0 115 21 152 39v-30c-32 -32 -104 -84 -203 -84c-90 0 -149 33 -185 87c-44 -57 -111 -88 -184 -88z
M286 23c72 0 112 50 112 228c0 192 -39 243 -118 243c-75 0 -114 -55 -114 -221c0 -194 37 -250 120 -250zM643 495c-61 0 -105 -53 -110 -180l193 10c0 121 -17 170 -83 170z" />
    <glyph glyph-name="endash" unicode="&#x2013;" horiz-adv-x="383" 
d="M40 266v46h303v-46h-303z" />
    <glyph glyph-name="emdash" unicode="&#x2014;" horiz-adv-x="610" 
d="M40 266v46h529v-46h-529z" />
    <glyph glyph-name="quotedblleft" unicode="&#x201c;" horiz-adv-x="401" 
d="M109 469c-41 0 -79 30 -79 85c0 75 50 129 144 151l7 -20c-61 -28 -86 -63 -86 -104c5 3 15 8 27 8c32 0 56 -24 56 -60c0 -37 -31 -60 -69 -60zM300 469c-41 0 -79 30 -79 85c0 75 49 129 144 151l6 -20c-60 -28 -86 -63 -85 -104c4 3 14 8 26 8c32 0 56 -24 56 -60
c0 -37 -31 -60 -68 -60z" />
    <glyph glyph-name="quotedblright" unicode="&#x201d;" horiz-adv-x="401" 
d="M36 469l-7 20c61 28 87 63 86 104c-4 -3 -14 -8 -27 -8c-31 0 -55 24 -55 60c0 37 31 61 68 61c41 0 79 -31 79 -86c0 -75 -49 -129 -144 -151zM227 469l-7 20c60 28 86 63 85 104c-4 -3 -14 -8 -26 -8c-32 0 -56 24 -56 60c0 37 31 61 68 61c41 0 79 -31 79 -86
c0 -75 -49 -129 -143 -151z" />
    <glyph glyph-name="quoteleft" unicode="&#x2018;" horiz-adv-x="210" 
d="M109 469c-41 0 -79 30 -79 85c0 75 50 129 144 151l7 -20c-61 -28 -86 -63 -86 -104c5 3 15 8 27 8c32 0 56 -24 56 -60c0 -37 -31 -60 -69 -60z" />
    <glyph glyph-name="quoteright" unicode="&#x2019;" horiz-adv-x="210" 
d="M36 469l-7 20c61 28 87 63 86 104c-4 -3 -14 -8 -27 -8c-31 0 -55 24 -55 60c0 37 31 61 68 61c41 0 79 -31 79 -86c0 -75 -49 -129 -144 -151z" />
    <glyph glyph-name="divide" unicode="&#xf7;" horiz-adv-x="464" 
d="M232 110c-38 0 -68 31 -68 67c0 39 30 68 68 68c37 0 68 -29 68 -68c0 -36 -31 -67 -68 -67zM232 432c-38 0 -68 31 -68 67c0 39 30 68 68 68c37 0 68 -29 68 -68c0 -36 -31 -67 -68 -67zM36 313v51h392v-51h-392z" />
    <glyph glyph-name="ydieresis" unicode="&#xff;" horiz-adv-x="535" 
d="M111 -207c-59 0 -95 28 -95 68c0 35 23 55 58 55c37 0 53 -17 62 -47c4 -15 8 -19 19 -19c21 0 46 27 80 109l13 30l-177 422c-26 60 -31 67 -54 75l-21 6v23h265v-23l-27 -7c-20 -5 -29 -14 -29 -35c0 -14 5 -32 14 -55l95 -247h4l91 247c9 25 14 45 14 59
c0 19 -10 26 -30 31l-28 7v23h176v-23l-25 -7c-24 -8 -29 -22 -54 -84l-180 -447c-36 -91 -73 -161 -171 -161zM205 581c-37 0 -68 29 -68 67c0 39 31 67 68 67c39 0 69 -28 69 -67c0 -38 -30 -67 -69 -67zM405 581c-39 0 -69 29 -69 67c0 39 30 67 69 67
c37 0 68 -28 68 -67c0 -38 -31 -67 -68 -67z" />
    <glyph glyph-name="Ydieresis" unicode="&#x178;" horiz-adv-x="629" 
d="M172 0v24l42 8c31 6 37 11 37 68v183l-160 293c-35 64 -46 78 -73 87l-22 6v24h308v-24l-28 -6c-28 -7 -39 -18 -39 -39c0 -13 6 -32 19 -56l117 -231h4l103 227c13 27 16 44 16 59c0 20 -10 32 -40 39l-29 7v24h206v-24l-21 -6c-31 -11 -47 -31 -80 -100l-130 -273v-190
c0 -57 4 -62 37 -68l41 -8v-24h-308zM250 728c-37 0 -68 29 -68 67s31 67 68 67c39 0 69 -29 69 -67s-30 -67 -69 -67zM466 728c-39 0 -69 29 -69 67s30 67 69 67c37 0 68 -29 68 -67s-31 -67 -68 -67z" />
    <glyph glyph-name="fraction" unicode="&#x2044;" horiz-adv-x="303" 
d="M-135 -50l518 764h55l-518 -764h-55z" />
    <glyph glyph-name="Euro" unicode="&#x20ac;" horiz-adv-x="593" 
d="M17 383v41h65c30 197 168 281 306 281c104 0 185 -39 185 -114c0 -34 -26 -57 -64 -57c-47 0 -65 25 -74 87c-5 40 -13 46 -64 46c-81 0 -134 -62 -143 -243h216l-7 -41h-210v-19c0 -22 0 -42 1 -60h195l-7 -41h-185c16 -154 72 -205 183 -205c68 0 112 22 150 45v-32
c-33 -36 -101 -83 -205 -83c-148 0 -256 89 -279 275h-63v41h60c-1 11 -1 23 -1 36c0 15 0 29 1 43h-60z" />
    <glyph glyph-name="guilsinglleft" unicode="&#x2039;" horiz-adv-x="274" 
d="M207 45l-172 198v19l172 198h32l-93 -207l93 -208h-32z" />
    <glyph glyph-name="guilsinglright" unicode="&#x203a;" horiz-adv-x="274" 
d="M35 45l93 208l-93 207h33l172 -198v-19l-172 -198h-33z" />
    <glyph glyph-name="daggerdbl" unicode="&#x2021;" horiz-adv-x="415" 
d="M206 -98c-33 0 -61 24 -61 55c0 34 42 79 47 126c-51 -5 -87 -42 -121 -42s-53 25 -53 54s19 54 53 54s70 -36 121 -42c-3 32 -19 58 -44 77l48 107h21l48 -107c-24 -19 -40 -45 -44 -77c52 6 89 42 122 42c34 0 53 -25 53 -54s-19 -54 -53 -54c-33 0 -70 37 -122 42
c5 -47 47 -92 47 -126c0 -31 -29 -55 -62 -55zM196 313l-48 107c25 19 41 45 44 77c-51 -6 -87 -42 -121 -42s-53 25 -53 54s19 54 53 54s70 -36 121 -42c-5 47 -47 94 -47 127c0 32 28 54 61 54s62 -22 62 -54c0 -33 -42 -80 -47 -127c52 5 89 42 122 42
c34 0 53 -25 53 -54s-19 -54 -53 -54c-33 0 -70 36 -122 42c4 -32 20 -58 44 -77l-48 -107h-21z" />
    <glyph glyph-name="periodcentered" unicode="&#xb7;" horiz-adv-x="221" 
d="M112 264c-41 0 -75 34 -75 73c0 42 34 74 75 74c39 0 75 -32 75 -74c0 -39 -36 -73 -75 -73z" />
    <glyph glyph-name="quotesinglbase" unicode="&#x201a;" horiz-adv-x="210" 
d="M36 -106l-7 20c61 28 87 63 86 105c-4 -4 -14 -9 -27 -9c-31 0 -55 24 -55 60c0 37 31 61 68 61c41 0 79 -31 79 -86c0 -75 -49 -129 -144 -151z" />
    <glyph glyph-name="quotedblbase" unicode="&#x201e;" horiz-adv-x="401" 
d="M36 -106l-7 20c61 28 87 63 86 105c-4 -4 -14 -9 -27 -9c-31 0 -55 24 -55 60c0 37 31 61 68 61c41 0 79 -31 79 -86c0 -75 -49 -129 -144 -151zM227 -106l-7 20c60 28 86 63 85 105c-4 -4 -14 -9 -26 -9c-32 0 -56 24 -56 60c0 37 31 61 68 61c41 0 79 -31 79 -86
c0 -75 -49 -129 -143 -151z" />
    <glyph glyph-name="perthousand" unicode="&#x2030;" horiz-adv-x="1138" 
d="M197 346c-82 0 -170 55 -170 173c0 130 103 185 174 185c78 0 170 -57 170 -177c0 -125 -98 -181 -174 -181zM199 376c47 0 67 35 67 143c0 119 -22 155 -67 155c-43 0 -66 -32 -66 -146c0 -115 20 -152 66 -152zM554 -13c-81 0 -169 55 -169 174c0 129 102 184 173 184
c78 0 171 -57 171 -176c0 -125 -98 -182 -175 -182zM557 17c46 0 66 36 66 143c0 119 -22 155 -66 155s-67 -31 -67 -145c0 -116 20 -153 67 -153zM936 -13c-81 0 -170 55 -170 174c0 129 103 184 174 184c78 0 171 -57 171 -176c0 -125 -98 -182 -175 -182zM939 17
c46 0 66 36 66 143c0 119 -22 155 -66 155s-67 -31 -67 -145c0 -116 20 -153 67 -153zM82 -50l518 764h55l-518 -764h-55z" />
    <glyph glyph-name="Acircumflex" unicode="&#xc2;" horiz-adv-x="669" 
d="M-3 0v24l26 7c30 8 37 17 68 102l199 560h82l207 -567c27 -72 39 -88 66 -96l24 -6v-24h-301v24l28 7c26 7 35 18 35 37c0 17 -8 43 -18 71l-32 91h-207l-30 -91c-10 -28 -14 -51 -14 -66c0 -26 11 -35 39 -42l30 -7v-24h-202zM273 529l-86 -260h181l-90 260h-5zM189 720
l-10 15l128 129h45l129 -129l-10 -15l-141 53z" />
    <glyph glyph-name="Ecircumflex" unicode="&#xca;" 
d="M175 720l-10 15l128 129h45l129 -129l-10 -15l-141 53zM20 0v24l39 8c27 6 36 11 36 68v493c0 57 -9 62 -36 68l-39 8v24h527l10 -191h-26c-24 53 -40 81 -53 101c-31 45 -51 50 -128 50c-60 0 -88 -5 -105 -9v-265h39c73 0 94 7 107 31s20 45 28 78h27v-259h-27
c-8 32 -15 53 -28 80s-28 31 -107 31h-39v-193c0 -97 3 -107 114 -107c85 0 100 9 132 55c17 24 38 70 62 131h28l-14 -226h-547z" />
    <glyph glyph-name="Aacute" unicode="&#xc1;" horiz-adv-x="669" 
d="M-3 0v24l26 7c30 8 37 17 68 102l199 560h82l207 -567c27 -72 39 -88 66 -96l24 -6v-24h-301v24l28 7c26 7 35 18 35 37c0 17 -8 43 -18 71l-32 91h-207l-30 -91c-10 -28 -14 -51 -14 -66c0 -26 11 -35 39 -42l30 -7v-24h-202zM273 529l-86 -260h181l-90 260h-5zM227 724
l-6 16l155 112c15 11 29 17 44 17c28 0 49 -26 49 -55c0 -22 -12 -42 -46 -49z" />
    <glyph glyph-name="Edieresis" unicode="&#xcb;" 
d="M20 0v24l39 8c27 6 36 11 36 68v493c0 57 -9 62 -36 68l-39 8v24h527l10 -191h-26c-24 53 -40 81 -53 101c-31 45 -51 50 -128 50c-60 0 -88 -5 -105 -9v-265h39c73 0 94 7 107 31s20 45 28 78h27v-259h-27c-8 32 -15 53 -28 80s-28 31 -107 31h-39v-193
c0 -97 3 -107 114 -107c85 0 100 9 132 55c17 24 38 70 62 131h28l-14 -226h-547zM208 728c-37 0 -68 29 -68 67s31 67 68 67c39 0 69 -29 69 -67s-30 -67 -69 -67zM424 728c-39 0 -69 29 -69 67s30 67 69 67c37 0 68 -29 68 -67s-31 -67 -68 -67z" />
    <glyph glyph-name="Egrave" unicode="&#xc8;" 
d="M432 740l-6 -16l-196 41c-34 7 -46 27 -46 49c0 29 21 55 49 55c15 0 29 -6 44 -17zM20 0v24l39 8c27 6 36 11 36 68v493c0 57 -9 62 -36 68l-39 8v24h527l10 -191h-26c-24 53 -40 81 -53 101c-31 45 -51 50 -128 50c-60 0 -88 -5 -105 -9v-265h39c73 0 94 7 107 31
s20 45 28 78h27v-259h-27c-8 32 -15 53 -28 80s-28 31 -107 31h-39v-193c0 -97 3 -107 114 -107c85 0 100 9 132 55c17 24 38 70 62 131h28l-14 -226h-547z" />
    <glyph glyph-name="Iacute" unicode="&#xcd;" horiz-adv-x="347" 
d="M20 0v24l42 8c28 5 36 11 36 68v493c0 57 -8 63 -36 68l-42 8v24h307v-24l-42 -8c-30 -6 -36 -11 -36 -68v-493c0 -57 6 -62 36 -68l42 -8v-24h-307zM71 724l-6 16l155 112c15 11 29 17 44 17c28 0 49 -26 49 -55c0 -22 -12 -42 -46 -49z" />
    <glyph glyph-name="Icircumflex" unicode="&#xce;" horiz-adv-x="347" 
d="M20 0v24l42 8c28 5 36 11 36 68v493c0 57 -8 63 -36 68l-42 8v24h307v-24l-42 -8c-30 -6 -36 -11 -36 -68v-493c0 -57 6 -62 36 -68l42 -8v-24h-307zM33 720l-10 15l128 129h45l129 -129l-10 -15l-141 53z" />
    <glyph glyph-name="Idieresis" unicode="&#xcf;" horiz-adv-x="347" 
d="M20 0v24l42 8c28 5 36 11 36 68v493c0 57 -8 63 -36 68l-42 8v24h307v-24l-42 -8c-30 -6 -36 -11 -36 -68v-493c0 -57 6 -62 36 -68l42 -8v-24h-307zM66 728c-37 0 -68 29 -68 67s31 67 68 67c39 0 69 -29 69 -67s-30 -67 -69 -67zM282 728c-39 0 -69 29 -69 67
s30 67 69 67c37 0 68 -29 68 -67s-31 -67 -68 -67z" />
    <glyph glyph-name="Igrave" unicode="&#xcc;" horiz-adv-x="347" 
d="M20 0v24l42 8c28 5 36 11 36 68v493c0 57 -8 63 -36 68l-42 8v24h307v-24l-42 -8c-30 -6 -36 -11 -36 -68v-493c0 -57 6 -62 36 -68l42 -8v-24h-307zM289 740l-6 -16l-196 41c-34 7 -46 27 -46 49c0 29 21 55 49 55c15 0 29 -6 44 -17z" />
    <glyph glyph-name="Oacute" unicode="&#xd3;" horiz-adv-x="712" 
d="M253 724l-6 16l155 112c15 11 29 17 44 17c28 0 49 -26 49 -55c0 -22 -12 -42 -46 -49zM352 -12c-173 0 -323 114 -323 349c0 262 170 368 331 368c173 0 323 -112 323 -352c0 -263 -170 -365 -331 -365zM358 27c115 0 168 79 168 306c0 203 -42 333 -173 333
c-112 0 -167 -82 -167 -309c0 -203 41 -330 172 -330z" />
    <glyph glyph-name="Ocircumflex" unicode="&#xd4;" horiz-adv-x="712" 
d="M215 720l-10 15l128 129h45l129 -129l-10 -15l-141 53zM352 -12c-173 0 -323 114 -323 349c0 262 170 368 331 368c173 0 323 -112 323 -352c0 -263 -170 -365 -331 -365zM358 27c115 0 168 79 168 306c0 203 -42 333 -173 333c-112 0 -167 -82 -167 -309
c0 -203 41 -330 172 -330z" />
    <glyph glyph-name="Ograve" unicode="&#xd2;" horiz-adv-x="712" 
d="M471 740l-6 -16l-196 41c-34 7 -46 27 -46 49c0 29 21 55 49 55c15 0 29 -6 44 -17zM352 -12c-173 0 -323 114 -323 349c0 262 170 368 331 368c173 0 323 -112 323 -352c0 -263 -170 -365 -331 -365zM358 27c115 0 168 79 168 306c0 203 -42 333 -173 333
c-112 0 -167 -82 -167 -309c0 -203 41 -330 172 -330z" />
    <glyph glyph-name="Uacute" unicode="&#xda;" horiz-adv-x="692" 
d="M287 724l-6 16l155 112c15 11 29 17 44 17c28 0 49 -26 49 -55c0 -22 -12 -42 -46 -49zM361 -12c-164 0 -276 65 -276 235v370c0 57 -8 62 -36 68l-38 8v24h298v-24l-37 -8c-30 -7 -36 -11 -36 -68v-386c0 -110 47 -161 166 -161c113 0 159 65 159 173v362
c0 69 -7 74 -45 81l-43 7v24h209v-24l-33 -7c-29 -6 -41 -12 -41 -79v-371c0 -123 -74 -224 -247 -224z" />
    <glyph glyph-name="Ucircumflex" unicode="&#xdb;" horiz-adv-x="692" 
d="M249 720l-10 15l128 129h45l129 -129l-10 -15l-141 53zM361 -12c-164 0 -276 65 -276 235v370c0 57 -8 62 -36 68l-38 8v24h298v-24l-37 -8c-30 -7 -36 -11 -36 -68v-386c0 -110 47 -161 166 -161c113 0 159 65 159 173v362c0 69 -7 74 -45 81l-43 7v24h209v-24l-33 -7
c-29 -6 -41 -12 -41 -79v-371c0 -123 -74 -224 -247 -224z" />
    <glyph glyph-name="Ugrave" unicode="&#xd9;" horiz-adv-x="692" 
d="M505 740l-6 -16l-196 41c-34 7 -46 27 -46 49c0 29 21 55 49 55c15 0 29 -6 44 -17zM361 -12c-164 0 -276 65 -276 235v370c0 57 -8 62 -36 68l-38 8v24h298v-24l-37 -8c-30 -7 -36 -11 -36 -68v-386c0 -110 47 -161 166 -161c113 0 159 65 159 173v362
c0 69 -7 74 -45 81l-43 7v24h209v-24l-33 -7c-29 -6 -41 -12 -41 -79v-371c0 -123 -74 -224 -247 -224z" />
    <glyph glyph-name="dotlessi" unicode="&#x131;" horiz-adv-x="288" 
d="M15 0v26l32 8c22 6 32 11 32 37v349c0 29 -5 34 -31 49l-35 20v17l195 23l9 -7c-2 -41 -4 -74 -4 -105v-346c0 -28 7 -31 32 -37l32 -8v-26h-262z" />
    <glyph glyph-name="circumflex" unicode="&#x2c6;" horiz-adv-x="500" 
d="M115 573l-10 15l122 140h45l123 -140l-10 -15l-135 64z" />
    <glyph glyph-name="tilde" unicode="&#x2dc;" horiz-adv-x="500" 
d="M110 572l-22 11c30 70 49 115 95 115c45 0 112 -23 155 -23c20 0 33 12 52 43l22 -11c-29 -70 -47 -115 -95 -115c-45 0 -113 23 -155 23c-21 0 -33 -12 -52 -43z" />
    <glyph glyph-name="macron" unicode="&#xaf;" horiz-adv-x="500" 
d="M125 605v70h250v-70h-250z" />
    <glyph glyph-name="breve" unicode="&#x2d8;" horiz-adv-x="500" 
d="M251 576c-71 0 -117 66 -126 140l22 6c18 -36 48 -64 104 -64c54 0 85 25 103 64l22 -6c-8 -74 -53 -140 -125 -140z" />
    <glyph glyph-name="dotaccent" unicode="&#x2d9;" horiz-adv-x="434" 
d="M215 575c-39 0 -71 30 -71 68c0 39 32 68 71 68c40 0 72 -29 72 -68c0 -38 -32 -68 -72 -68z" />
    <glyph glyph-name="ring" unicode="&#x2da;" horiz-adv-x="500" 
d="M250 573c-57 0 -96 40 -96 91c0 53 41 92 96 92s96 -39 96 -92c0 -51 -41 -91 -96 -91zM250 605c33 0 55 25 55 59c0 35 -22 60 -55 60c-32 0 -55 -25 -55 -60c0 -34 22 -59 55 -59z" />
    <glyph glyph-name="cedilla" unicode="&#xb8;" horiz-adv-x="500" 
d="M166 -204v19c60 14 85 32 85 56c0 20 -20 28 -52 31l-5 8l45 90h39l-32 -48c52 -5 85 -28 85 -64c0 -55 -65 -84 -165 -92z" />
    <glyph glyph-name="hungarumlaut" unicode="&#x2dd;" horiz-adv-x="500" 
d="M133 574l-16 16l80 126c14 22 27 32 42 32c22 0 52 -23 52 -49c0 -18 -8 -36 -34 -51zM301 574l-17 16l81 126c13 22 26 32 42 32c22 0 53 -24 53 -50c0 -16 -7 -32 -32 -47z" />
    <glyph glyph-name="ogonek" unicode="&#x2db;" horiz-adv-x="445" 
d="M224 -203c-55 0 -95 28 -95 77c0 53 67 98 120 126h29c-27 -32 -49 -67 -49 -109c0 -26 11 -38 25 -43c12 -5 25 -6 55 -6v-21c-16 -10 -45 -24 -85 -24z" />
    <glyph glyph-name="caron" unicode="&#x2c7;" horiz-adv-x="500" 
d="M228 580l-123 140l10 14l135 -63l135 63l10 -14l-123 -140h-44z" />
    <glyph glyph-name="space_uni0326" horiz-adv-x="510" 
d="M193 -248l-6 21c66 18 83 46 82 79c-4 -3 -13 -7 -24 -7c-33 0 -53 21 -53 51c0 29 28 54 65 54c41 0 74 -28 74 -76c0 -56 -39 -110 -138 -122z" />
    <glyph glyph-name="caron.alt" horiz-adv-x="510" 
d="M273 557l-16 5l6 142c1 29 14 52 49 52c28 0 50 -18 50 -45c0 -9 -2 -23 -12 -36z" />
    <glyph glyph-name="space_uni0326.alt" horiz-adv-x="510" 
d="M320 775l6 -21c-66 -18 -83 -47 -83 -80c5 4 14 8 25 8c32 0 53 -21 53 -51c0 -29 -28 -55 -65 -55c-42 0 -75 28 -75 77c0 56 39 109 139 122z" />
    <glyph glyph-name="acute.pl" horiz-adv-x="510" 
d="M227 569l-15 10l44 142c8 25 22 45 50 45c26 0 57 -23 57 -53c0 -13 -4 -27 -19 -40z" />
    <glyph glyph-name="grave.uc" horiz-adv-x="500" 
d="M371 740l-6 -16l-196 41c-34 7 -46 27 -46 49c0 29 21 55 49 55c15 0 29 -6 44 -17z" />
    <glyph glyph-name="dieresis.uc" horiz-adv-x="500" 
d="M142 728c-37 0 -68 29 -68 67s31 67 68 67c39 0 69 -29 69 -67s-30 -67 -69 -67zM358 728c-39 0 -69 29 -69 67s30 67 69 67c37 0 68 -29 68 -67s-31 -67 -68 -67z" />
    <glyph glyph-name="macron.uc" horiz-adv-x="500" 
d="M113 746v70h272v-70h-272z" />
    <glyph glyph-name="acute.uc" horiz-adv-x="500" 
d="M138 724l-6 16l155 112c15 11 29 17 44 17c28 0 49 -26 49 -55c0 -22 -12 -42 -46 -49z" />
    <glyph glyph-name="circumflex.uc" horiz-adv-x="500" 
d="M109 720l-10 15l128 129h45l129 -129l-10 -15l-141 53z" />
    <glyph glyph-name="caron.uc" horiz-adv-x="500" 
d="M228 727l-123 133l10 14l135 -56l135 56l10 -14l-123 -133h-44z" />
    <glyph glyph-name="breve.uc" horiz-adv-x="500" 
d="M251 726c-82 0 -130 66 -139 140l22 6c17 -36 51 -64 117 -64c63 0 99 25 117 64l22 -6c-8 -74 -57 -140 -139 -140z" />
    <glyph glyph-name="dotaccent.uc" horiz-adv-x="434" 
d="M215 726c-39 0 -71 30 -71 68c0 39 32 68 71 68c40 0 72 -29 72 -68c0 -38 -32 -68 -72 -68z" />
    <glyph glyph-name="ring.uc" horiz-adv-x="500" 
d="M250 720c-57 0 -96 40 -96 91c0 53 41 92 96 92s96 -39 96 -92c0 -51 -41 -91 -96 -91zM250 752c33 0 55 25 55 59c0 35 -22 60 -55 60c-32 0 -55 -25 -55 -60c0 -34 22 -59 55 -59z" />
    <glyph glyph-name="tilde.uc" horiz-adv-x="500" 
d="M106 719l-21 11c29 69 48 115 94 115c45 0 120 -23 163 -23c20 0 33 12 52 43l21 -11c-29 -70 -47 -115 -94 -115c-45 0 -120 23 -163 23c-21 0 -33 -12 -52 -43z" />
    <glyph glyph-name="hungarumlaut.uc" horiz-adv-x="500" 
d="M133 721l-16 16l72 116c12 22 25 32 40 32c22 0 52 -23 52 -49c0 -18 -7 -35 -34 -50zM301 721l-17 16l72 116c13 22 25 32 41 32c22 0 53 -24 53 -50c0 -16 -6 -31 -32 -46z" />
    <glyph glyph-name="acute.ucpl" horiz-adv-x="510" 
d="M227 726l-16 11l49 119c9 25 21 45 49 45c26 0 55 -23 55 -53c0 -14 -7 -29 -30 -45z" />
    <glyph glyph-name="Dcroat" unicode="&#x110;" horiz-adv-x="711" 
d="M27 330v38h68v225c0 57 -9 62 -36 68l-39 8v24h320c200 0 341 -93 341 -337c0 -230 -137 -356 -346 -356h-315v24l39 8c27 6 36 11 36 68v230h-68zM326 39c147 0 198 110 198 296c0 230 -60 319 -200 319c-38 0 -66 -4 -79 -9v-277h152v-38h-152v-199
c0 -79 10 -92 81 -92z" />
    <glyph glyph-name="Eng" unicode="&#x14a;" horiz-adv-x="689" 
d="M488 -137c34 0 58 34 60 122l-403 604h-4v-477c0 -69 8 -74 45 -81l38 -7v-24h-204v24l32 7c31 6 43 12 43 79v483c0 57 -9 62 -36 68l-39 8v24h232l296 -448h4v336c0 69 -7 74 -44 81l-42 7v24h208v-24l-33 -7c-30 -6 -42 -12 -42 -79v-584c0 -92 -40 -175 -142 -175
c-85 0 -122 38 -122 81c0 32 21 54 59 54c44 0 56 -21 69 -73c5 -20 9 -23 25 -23z" />
    <glyph glyph-name="IJ" unicode="&#x132;" horiz-adv-x="687" 
d="M20 0v24l42 8c28 5 36 11 36 68v493c0 57 -8 63 -36 68l-42 8v24h307v-24l-42 -8c-30 -6 -36 -11 -36 -68v-493c0 -57 6 -62 36 -68l42 -8v-24h-307zM367 -176c-88 0 -131 35 -131 80c0 35 22 59 62 59c46 0 64 -22 75 -78c5 -20 7 -22 22 -22c26 0 47 24 47 89v641
c0 57 -7 61 -36 68l-40 8v24h301v-24l-39 -8c-28 -6 -36 -11 -36 -68v-531c0 -139 -81 -238 -225 -238z" />
    <glyph glyph-name="uni0237" unicode="&#x237;" horiz-adv-x="282" 
d="M12 -210c-78 0 -114 36 -114 80c0 33 24 53 58 53c44 0 59 -20 64 -67c3 -27 7 -30 17 -30c26 0 42 20 42 64v517c0 42 -5 45 -31 61l-35 21v17l195 23l9 -6c-1 -18 -4 -58 -4 -106v-414c0 -146 -87 -213 -201 -213z" />
    <glyph glyph-name="dcroat" unicode="&#x111;" horiz-adv-x="600" 
d="M235 600v42h157c-1 39 -7 42 -30 54l-42 21v20l200 19l9 -7s-3 -41 -3 -107h63v-42h-63v-487c0 -48 4 -54 31 -65l32 -15v-19l-185 -26l-10 7l2 55h-4c-42 -34 -101 -62 -169 -62c-97 0 -196 67 -196 253c0 203 134 288 284 288c33 0 62 -5 83 -11c0 0 -2 38 -2 74v8
h-157zM294 57c49 0 79 18 98 27v367c-19 20 -46 41 -86 41c-85 0 -141 -56 -141 -224c0 -155 46 -211 129 -211z" />
    <glyph glyph-name="eng" unicode="&#x14b;" horiz-adv-x="594" 
d="M332 -210c-77 0 -113 35 -113 79c0 32 24 52 58 52c43 0 57 -20 62 -66c4 -26 8 -29 18 -29c26 0 42 20 42 64v474c0 64 -23 85 -76 85c-41 0 -85 -12 -110 -18v-345c0 -45 4 -49 31 -55l32 -8v-23h-261v23l32 8c27 8 32 14 32 55v321c0 42 -5 45 -31 61l-35 21v17
l188 23l9 -6l-2 -62h5c51 36 119 68 188 68c91 0 132 -43 132 -133v-393c0 -146 -88 -213 -201 -213z" />
    <glyph glyph-name="ij" unicode="&#x133;" horiz-adv-x="558" 
d="M15 0v23l32 8c27 8 32 14 32 55v321c0 42 -5 45 -31 61l-35 21v17l195 23l9 -6c-1 -18 -4 -57 -4 -106v-331c0 -43 5 -48 32 -55l32 -8v-23h-262zM142 590c-43 0 -77 32 -77 73s34 73 77 73c42 0 76 -32 76 -73s-34 -73 -76 -73zM292 -210c-78 0 -114 36 -114 80
c0 33 24 53 58 53c44 0 59 -20 64 -67c3 -27 7 -30 17 -30c26 0 42 20 42 64v517c0 42 -5 45 -31 61l-35 21v17l195 23l9 -6c-1 -18 -4 -58 -4 -106v-414c0 -146 -87 -213 -201 -213zM420 590c-42 0 -76 32 -76 73s34 73 76 73c43 0 77 -32 77 -73s-34 -73 -77 -73z" />
    <glyph glyph-name="Abreve" unicode="&#x102;" horiz-adv-x="669" 
d="M-3 0v24l26 7c30 8 37 17 68 102l199 560h82l207 -567c27 -72 39 -88 66 -96l24 -6v-24h-301v24l28 7c26 7 35 18 35 37c0 17 -8 43 -18 71l-32 91h-207l-30 -91c-10 -28 -14 -51 -14 -66c0 -26 11 -35 39 -42l30 -7v-24h-202zM273 529l-86 -260h181l-90 260h-5zM330 726
c-82 0 -130 66 -139 140l22 6c17 -36 51 -64 117 -64c63 0 99 25 117 64l22 -6c-8 -74 -57 -140 -139 -140z" />
    <glyph glyph-name="Amacron" unicode="&#x100;" horiz-adv-x="669" 
d="M-3 0v24l26 7c30 8 37 17 68 102l199 560h82l207 -567c27 -72 39 -88 66 -96l24 -6v-24h-301v24l28 7c26 7 35 18 35 37c0 17 -8 43 -18 71l-32 91h-207l-30 -91c-10 -28 -14 -51 -14 -66c0 -26 11 -35 39 -42l30 -7v-24h-202zM273 529l-86 -260h181l-90 260h-5zM194 746
v70h272v-70h-272z" />
    <glyph glyph-name="Aogonek" unicode="&#x104;" horiz-adv-x="669" 
d="M460 5l-78 225h-209l-29 -91c-10 -28 -14 -51 -14 -66c0 -26 11 -35 39 -42l30 -7v-24h-202v24l26 7c30 8 37 17 68 102l199 560h82l207 -567c27 -72 39 -88 66 -96l24 -6v-24h-101c-106 0 -141 -55 -141 -105c0 -29 11 -42 25 -47c12 -5 25 -6 55 -6v-21
c-16 -10 -46 -24 -86 -24c-55 0 -94 27 -94 76c0 58 59 95 133 132zM273 529l-86 -260h181l-90 260h-5z" />
    <glyph glyph-name="Aringacute" unicode="&#x1fa;" horiz-adv-x="669" 
d="M-3 0v24l26 7c30 8 37 17 68 102l199 560h82l207 -567c27 -72 39 -88 66 -96l24 -6v-24h-301v24l28 7c26 7 35 18 35 37c0 17 -8 43 -18 71l-32 91h-207l-30 -91c-10 -28 -14 -51 -14 -66c0 -26 11 -35 39 -42l30 -7v-24h-202zM330 720c-57 0 -96 40 -96 91
c0 53 41 92 96 92s96 -39 96 -92c0 -51 -41 -91 -96 -91zM273 529l-86 -260h181l-90 260h-5zM227 914l-6 16l155 112c15 11 29 17 44 17c28 0 49 -26 49 -55c0 -22 -12 -42 -46 -49zM330 752c33 0 55 25 55 59c0 35 -22 60 -55 60c-32 0 -55 -25 -55 -60
c0 -34 22 -59 55 -59z" />
    <glyph glyph-name="AEacute" unicode="&#x1fc;" horiz-adv-x="917" 
d="M-4 0v24l26 7c31 8 45 17 93 102l293 514c-8 8 -20 11 -33 14l-40 8v24h526l11 -191h-27c-23 53 -39 81 -52 101c-30 45 -51 50 -125 50c-52 0 -82 -4 -99 -9v-265h31c72 0 94 7 107 31c12 24 20 45 28 78h26v-259h-26c-8 32 -16 53 -28 80c-13 27 -28 31 -107 31h-31
v-193c0 -97 5 -107 107 -107c84 0 99 9 130 55c17 24 38 70 61 131h28l-14 -226h-532v24l38 8c27 6 38 11 38 68v119h-208l-43 -80c-17 -31 -29 -58 -29 -77c-1 -16 8 -25 31 -31l29 -7v-24h-209zM422 593l-184 -336h187v336h-3zM529 724l-6 16l155 112c15 11 29 17 44 17
c28 0 49 -26 49 -55c0 -22 -12 -42 -46 -49z" />
    <glyph glyph-name="Cacute" unicode="&#x106;" horiz-adv-x="618" 
d="M358 -12c-188 0 -328 110 -328 353c0 262 165 364 355 364c77 0 146 -11 188 -24l11 -203h-28c-24 57 -51 107 -74 140s-50 48 -108 48c-127 0 -184 -84 -184 -306c0 -253 58 -333 178 -333c71 0 98 18 125 56c27 40 48 81 71 139h25l-11 -192c-46 -20 -123 -42 -220 -42
zM257 724l-6 16l155 112c15 11 29 17 44 17c28 0 49 -26 49 -55c0 -22 -12 -42 -46 -49z" />
    <glyph glyph-name="Ccaron" unicode="&#x10c;" horiz-adv-x="618" 
d="M338 727l-123 133l10 14l135 -56l135 56l10 -14l-123 -133h-44zM358 -12c-188 0 -328 110 -328 353c0 262 165 364 355 364c77 0 146 -11 188 -24l11 -203h-28c-24 57 -51 107 -74 140s-50 48 -108 48c-127 0 -184 -84 -184 -306c0 -253 58 -333 178 -333
c71 0 98 18 125 56c27 40 48 81 71 139h25l-11 -192c-46 -20 -123 -42 -220 -42z" />
    <glyph glyph-name="Ccircumflex" unicode="&#x108;" horiz-adv-x="618" 
d="M219 720l-10 15l128 129h45l129 -129l-10 -15l-141 53zM358 -12c-188 0 -328 110 -328 353c0 262 165 364 355 364c77 0 146 -11 188 -24l11 -203h-28c-24 57 -51 107 -74 140s-50 48 -108 48c-127 0 -184 -84 -184 -306c0 -253 58 -333 178 -333c71 0 98 18 125 56
c27 40 48 81 71 139h25l-11 -192c-46 -20 -123 -42 -220 -42z" />
    <glyph glyph-name="Cdotaccent" unicode="&#x10a;" horiz-adv-x="618" 
d="M358 -12c-188 0 -328 110 -328 353c0 262 165 364 355 364c77 0 146 -11 188 -24l11 -203h-28c-24 57 -51 107 -74 140s-50 48 -108 48c-127 0 -184 -84 -184 -306c0 -253 58 -333 178 -333c71 0 98 18 125 56c27 40 48 81 71 139h25l-11 -192c-46 -20 -123 -42 -220 -42
zM360 726c-39 0 -71 30 -71 68c0 39 32 68 71 68c40 0 72 -29 72 -68c0 -38 -32 -68 -72 -68z" />
    <glyph glyph-name="Cacute.pl" horiz-adv-x="618" 
d="M358 -12c-188 0 -328 110 -328 353c0 262 165 364 355 364c77 0 146 -11 188 -24l11 -203h-28c-24 57 -51 107 -74 140s-50 48 -108 48c-127 0 -184 -84 -184 -306c0 -253 58 -333 178 -333c71 0 98 18 125 56c27 40 48 81 71 139h25l-11 -192c-46 -20 -123 -42 -220 -42
zM335 726l-16 11l49 119c9 25 21 45 49 45c26 0 55 -23 55 -53c0 -14 -7 -29 -30 -45z" />
    <glyph glyph-name="Dcaron" unicode="&#x10e;" horiz-adv-x="711" 
d="M328 727l-123 133l10 14l135 -56l135 56l10 -14l-123 -133h-44zM20 0v24l39 8c27 6 36 11 36 68v493c0 57 -9 62 -36 68l-39 8v24h320c200 0 341 -93 341 -337c0 -230 -137 -356 -346 -356h-315zM326 39c147 0 198 110 198 296c0 230 -60 319 -200 319
c-38 0 -66 -4 -79 -9v-514c0 -79 10 -92 81 -92z" />
    <glyph glyph-name="Ebreve" unicode="&#x114;" 
d="M20 0v24l39 8c27 6 36 11 36 68v493c0 57 -9 62 -36 68l-39 8v24h527l10 -191h-26c-24 53 -40 81 -53 101c-31 45 -51 50 -128 50c-60 0 -88 -5 -105 -9v-265h39c73 0 94 7 107 31s20 45 28 78h27v-259h-27c-8 32 -15 53 -28 80s-28 31 -107 31h-39v-193
c0 -97 3 -107 114 -107c85 0 100 9 132 55c17 24 38 70 62 131h28l-14 -226h-547zM317 726c-82 0 -130 66 -139 140l22 6c17 -36 51 -64 117 -64c63 0 99 25 117 64l22 -6c-8 -74 -57 -140 -139 -140z" />
    <glyph glyph-name="Ecaron" unicode="&#x11a;" 
d="M294 727l-123 133l10 14l135 -56l135 56l10 -14l-123 -133h-44zM20 0v24l39 8c27 6 36 11 36 68v493c0 57 -9 62 -36 68l-39 8v24h527l10 -191h-26c-24 53 -40 81 -53 101c-31 45 -51 50 -128 50c-60 0 -88 -5 -105 -9v-265h39c73 0 94 7 107 31s20 45 28 78h27v-259h-27
c-8 32 -15 53 -28 80s-28 31 -107 31h-39v-193c0 -97 3 -107 114 -107c85 0 100 9 132 55c17 24 38 70 62 131h28l-14 -226h-547z" />
    <glyph glyph-name="Edotaccent" unicode="&#x116;" 
d="M316 726c-39 0 -71 30 -71 68c0 39 32 68 71 68c40 0 72 -29 72 -68c0 -38 -32 -68 -72 -68zM20 0v24l39 8c27 6 36 11 36 68v493c0 57 -9 62 -36 68l-39 8v24h527l10 -191h-26c-24 53 -40 81 -53 101c-31 45 -51 50 -128 50c-60 0 -88 -5 -105 -9v-265h39
c73 0 94 7 107 31s20 45 28 78h27v-259h-27c-8 32 -15 53 -28 80s-28 31 -107 31h-39v-193c0 -97 3 -107 114 -107c85 0 100 9 132 55c17 24 38 70 62 131h28l-14 -226h-547z" />
    <glyph glyph-name="Emacron" unicode="&#x112;" 
d="M20 0v24l39 8c27 6 36 11 36 68v493c0 57 -9 62 -36 68l-39 8v24h527l10 -191h-26c-24 53 -40 81 -53 101c-31 45 -51 50 -128 50c-60 0 -88 -5 -105 -9v-265h39c73 0 94 7 107 31s20 45 28 78h27v-259h-27c-8 32 -15 53 -28 80s-28 31 -107 31h-39v-193
c0 -97 3 -107 114 -107c85 0 100 9 132 55c17 24 38 70 62 131h28l-14 -226h-547zM181 746v70h272v-70h-272z" />
    <glyph glyph-name="Eogonek" unicode="&#x118;" 
d="M20 0v24l39 8c27 6 36 11 36 68v493c0 57 -9 62 -36 68l-39 8v24h527l10 -191h-26c-24 53 -40 81 -53 101c-31 45 -51 50 -128 50c-60 0 -88 -5 -105 -9v-265h39c73 0 94 7 107 31s20 45 28 78h27v-259h-27c-8 32 -15 53 -28 80s-28 31 -107 31h-39v-193
c0 -97 3 -107 114 -107c85 0 100 9 132 55c17 24 38 70 62 131h28l-14 -226h-95c-28 -32 -49 -67 -49 -109c0 -26 10 -38 25 -43c12 -5 24 -6 54 -6v-21c-15 -10 -44 -24 -84 -24c-55 0 -96 28 -96 77c0 53 64 98 118 126h-420z" />
    <glyph glyph-name="Gbreve" unicode="&#x11e;" horiz-adv-x="682" 
d="M374 726c-82 0 -130 66 -139 140l22 6c17 -36 51 -64 117 -64c63 0 99 25 117 64l22 -6c-8 -74 -57 -140 -139 -140zM380 -12c-223 0 -350 119 -350 355c0 263 169 362 365 362c86 0 146 -9 193 -21l11 -206h-27c-26 64 -47 101 -67 130c-31 46 -50 58 -122 58
c-132 0 -195 -91 -195 -304c0 -238 49 -335 188 -335c43 0 72 11 94 22v150c0 57 -8 61 -36 67l-40 9v24h282v-24l-29 -7c-26 -7 -32 -12 -32 -69v-176c-56 -18 -148 -35 -235 -35z" />
    <glyph glyph-name="Gcircumflex" unicode="&#x11c;" horiz-adv-x="682" 
d="M232 720l-10 15l128 129h45l129 -129l-10 -15l-141 53zM380 -12c-223 0 -350 119 -350 355c0 263 169 362 365 362c86 0 146 -9 193 -21l11 -206h-27c-26 64 -47 101 -67 130c-31 46 -50 58 -122 58c-132 0 -195 -91 -195 -304c0 -238 49 -335 188 -335c43 0 72 11 94 22
v150c0 57 -8 61 -36 67l-40 9v24h282v-24l-29 -7c-26 -7 -32 -12 -32 -69v-176c-56 -18 -148 -35 -235 -35z" />
    <glyph glyph-name="Gcommaaccent" unicode="&#x122;" horiz-adv-x="682" 
d="M298 -248l-6 21c66 18 83 46 82 79c-4 -3 -13 -7 -24 -7c-33 0 -53 21 -53 51c0 29 28 54 65 54c41 0 74 -28 74 -76c0 -56 -39 -110 -138 -122zM380 -12c-223 0 -350 119 -350 355c0 263 169 362 365 362c86 0 146 -9 193 -21l11 -206h-27c-26 64 -47 101 -67 130
c-31 46 -50 58 -122 58c-132 0 -195 -91 -195 -304c0 -238 49 -335 188 -335c43 0 72 11 94 22v150c0 57 -8 61 -36 67l-40 9v24h282v-24l-29 -7c-26 -7 -32 -12 -32 -69v-176c-56 -18 -148 -35 -235 -35z" />
    <glyph glyph-name="Gdotaccent" unicode="&#x120;" horiz-adv-x="682" 
d="M373 726c-39 0 -71 30 -71 68c0 39 32 68 71 68c40 0 72 -29 72 -68c0 -38 -32 -68 -72 -68zM380 -12c-223 0 -350 119 -350 355c0 263 169 362 365 362c86 0 146 -9 193 -21l11 -206h-27c-26 64 -47 101 -67 130c-31 46 -50 58 -122 58c-132 0 -195 -91 -195 -304
c0 -238 49 -335 188 -335c43 0 72 11 94 22v150c0 57 -8 61 -36 67l-40 9v24h282v-24l-29 -7c-26 -7 -32 -12 -32 -69v-176c-56 -18 -148 -35 -235 -35z" />
    <glyph glyph-name="Hbar" unicode="&#x126;" horiz-adv-x="746" 
d="M13 493v39h82v61c0 57 -9 62 -36 68l-39 8v24h300v-24l-39 -8c-29 -7 -36 -11 -36 -68v-61h256v61c0 57 -6 61 -36 68l-38 8v24h299v-24l-38 -8c-28 -6 -36 -11 -36 -68v-61h81v-39h-81v-393c0 -57 7 -62 36 -68l38 -8v-24h-299v24l38 8c30 7 36 11 36 68v233h-256v-233
c0 -57 6 -61 36 -68l39 -8v-24h-300v24l39 8c27 5 36 11 36 68v393h-82zM245 374h256v119h-256v-119z" />
    <glyph glyph-name="Hcircumflex" unicode="&#x124;" horiz-adv-x="746" 
d="M20 0v24l39 8c27 5 36 11 36 68v493c0 57 -9 62 -36 68l-39 8v24h300v-24l-39 -8c-29 -7 -36 -11 -36 -68v-219h256v219c0 57 -6 61 -36 68l-38 8v24h299v-24l-38 -8c-28 -6 -36 -11 -36 -68v-493c0 -57 7 -62 36 -68l38 -8v-24h-299v24l38 8c30 7 36 11 36 68v233h-256
v-233c0 -57 6 -61 36 -68l39 -8v-24h-300zM232 720l-10 15l128 129h45l129 -129l-10 -15l-141 53z" />
    <glyph glyph-name="Idotaccent" unicode="&#x130;" horiz-adv-x="347" 
d="M20 0v24l42 8c28 5 36 11 36 68v493c0 57 -8 63 -36 68l-42 8v24h307v-24l-42 -8c-30 -6 -36 -11 -36 -68v-493c0 -57 6 -62 36 -68l42 -8v-24h-307zM173 726c-39 0 -71 30 -71 68c0 39 32 68 71 68c40 0 72 -29 72 -68c0 -38 -32 -68 -72 -68z" />
    <glyph glyph-name="Ibreve" unicode="&#x12c;" horiz-adv-x="347" 
d="M20 0v24l42 8c28 5 36 11 36 68v493c0 57 -8 63 -36 68l-42 8v24h307v-24l-42 -8c-30 -6 -36 -11 -36 -68v-493c0 -57 6 -62 36 -68l42 -8v-24h-307zM174 726c-82 0 -130 66 -139 140l22 6c17 -36 51 -64 117 -64c63 0 99 25 117 64l22 -6c-8 -74 -57 -140 -139 -140z
" />
    <glyph glyph-name="Imacron" unicode="&#x12a;" horiz-adv-x="347" 
d="M20 0v24l42 8c28 5 36 11 36 68v493c0 57 -8 63 -36 68l-42 8v24h307v-24l-42 -8c-30 -6 -36 -11 -36 -68v-493c0 -57 6 -62 36 -68l42 -8v-24h-307zM38 746v70h272v-70h-272z" />
    <glyph glyph-name="Iogonek" unicode="&#x12e;" horiz-adv-x="347" 
d="M20 0v24l42 8c28 5 36 11 36 68v493c0 57 -8 63 -36 68l-42 8v24h307v-24l-42 -8c-30 -6 -36 -11 -36 -68v-493c0 -57 6 -62 36 -68l42 -8v-24h-92c-22 -32 -41 -65 -41 -107c0 -26 10 -40 25 -45c12 -5 24 -6 54 -6v-21c-15 -10 -44 -24 -85 -24c-54 0 -95 30 -95 79
c0 53 61 96 110 124h-183z" />
    <glyph glyph-name="Itilde" unicode="&#x128;" horiz-adv-x="347" 
d="M20 0v24l42 8c28 5 36 11 36 68v493c0 57 -8 63 -36 68l-42 8v24h307v-24l-42 -8c-30 -6 -36 -11 -36 -68v-493c0 -57 6 -62 36 -68l42 -8v-24h-307zM30 719l-21 11c29 69 48 115 94 115c45 0 120 -23 163 -23c20 0 33 12 52 43l21 -11c-29 -70 -47 -115 -94 -115
c-45 0 -120 23 -163 23c-21 0 -33 -12 -52 -43z" />
    <glyph glyph-name="Jcircumflex" unicode="&#x134;" horiz-adv-x="340" 
d="M29 720l-10 15l128 129h45l129 -129l-10 -15l-141 53zM20 -176c-88 0 -131 35 -131 80c0 35 22 59 62 59c46 0 64 -22 75 -78c5 -20 7 -22 22 -22c26 0 47 24 47 89v641c0 57 -7 61 -36 68l-40 8v24h301v-24l-39 -8c-28 -6 -36 -11 -36 -68v-531
c0 -139 -81 -238 -225 -238z" />
    <glyph glyph-name="Kcommaaccent" unicode="&#x136;" horiz-adv-x="684" 
d="M290 -248l-6 21c66 18 83 46 82 79c-4 -3 -13 -7 -24 -7c-33 0 -53 21 -53 51c0 29 28 54 65 54c41 0 74 -28 74 -76c0 -56 -39 -110 -138 -122zM485 0c-77 98 -154 219 -212 335v16l189 219c20 23 28 43 28 57c0 17 -13 28 -35 34l-30 8v24h230v-24l-25 -6
c-35 -9 -49 -22 -102 -81l-145 -162c64 -124 166 -275 238 -366c13 -16 17 -19 32 -23l31 -7v-24h-199zM20 0v24l39 8c27 5 36 11 36 68v493c0 57 -9 62 -36 68l-39 8v24h300v-24l-39 -8c-30 -7 -36 -11 -36 -68v-493c0 -57 6 -61 36 -68l39 -8v-24h-300z" />
    <glyph glyph-name="Lacute" unicode="&#x139;" horiz-adv-x="578" 
d="M68 724l-6 16l155 112c15 11 29 17 44 17c28 0 49 -26 49 -55c0 -22 -12 -42 -46 -49zM20 0v24l39 8c27 5 36 11 36 68v493c0 57 -9 62 -36 68l-39 8v24h306v-24l-45 -9c-29 -6 -36 -10 -36 -67v-462c0 -79 4 -91 97 -91c83 0 102 9 131 53c18 28 40 71 65 140h28
l-14 -233h-532z" />
    <glyph glyph-name="Lcaron" unicode="&#x13d;" horiz-adv-x="578" 
d="M394 503l-17 5l7 148c1 31 14 55 52 55c30 0 53 -19 53 -47c0 -12 -4 -26 -14 -39zM20 0v24l39 8c27 5 36 11 36 68v493c0 57 -9 62 -36 68l-39 8v24h306v-24l-45 -9c-29 -6 -36 -10 -36 -67v-462c0 -79 4 -91 97 -91c83 0 102 9 131 53c18 28 40 71 65 140h28l-14 -233
h-532z" />
    <glyph glyph-name="Lcommaaccent" unicode="&#x13b;" horiz-adv-x="578" 
d="M238 -248l-6 21c66 18 83 46 82 79c-4 -3 -13 -7 -24 -7c-33 0 -53 21 -53 51c0 29 28 54 65 54c41 0 74 -28 74 -76c0 -56 -39 -110 -138 -122zM20 0v24l39 8c27 5 36 11 36 68v493c0 57 -9 62 -36 68l-39 8v24h306v-24l-45 -9c-29 -6 -36 -10 -36 -67v-462
c0 -79 4 -91 97 -91c83 0 102 9 131 53c18 28 40 71 65 140h28l-14 -233h-532z" />
    <glyph glyph-name="Ldot" unicode="&#x13f;" horiz-adv-x="578" 
d="M20 0v24l39 8c27 5 36 11 36 68v493c0 57 -9 62 -36 68l-39 8v24h306v-24l-45 -9c-29 -6 -36 -10 -36 -67v-462c0 -79 4 -91 97 -91c83 0 102 8 131 49c18 26 40 67 65 133h28l-14 -222h-532zM488 299c-40 0 -74 34 -74 74c0 42 34 73 74 73s76 -31 76 -73
c0 -40 -36 -74 -76 -74z" />
    <glyph glyph-name="Nacute" unicode="&#x143;" horiz-adv-x="689" 
d="M262 724l-6 16l155 112c15 11 29 17 44 17c28 0 49 -26 49 -55c0 -22 -12 -42 -46 -49zM540 -2l-395 591h-4v-477c0 -69 8 -74 45 -81l38 -7v-24h-204v24l32 7c31 6 43 12 43 79v483c0 57 -9 62 -36 68l-39 8v24h232l296 -448h4v336c0 69 -7 74 -44 81l-42 7v24h208v-24
l-33 -7c-30 -6 -42 -12 -42 -79v-585h-59z" />
    <glyph glyph-name="Ncaron" unicode="&#x147;" horiz-adv-x="689" 
d="M343 727l-123 133l10 14l135 -56l135 56l10 -14l-123 -133h-44zM540 -2l-395 591h-4v-477c0 -69 8 -74 45 -81l38 -7v-24h-204v24l32 7c31 6 43 12 43 79v483c0 57 -9 62 -36 68l-39 8v24h232l296 -448h4v336c0 69 -7 74 -44 81l-42 7v24h208v-24l-33 -7
c-30 -6 -42 -12 -42 -79v-585h-59z" />
    <glyph glyph-name="Ncommaaccent" unicode="&#x145;" horiz-adv-x="689" 
d="M275 -248l-6 21c66 18 83 46 82 79c-4 -3 -13 -7 -24 -7c-33 0 -53 21 -53 51c0 29 28 54 65 54c41 0 74 -28 74 -76c0 -56 -39 -110 -138 -122zM540 -2l-395 591h-4v-477c0 -69 8 -74 45 -81l38 -7v-24h-204v24l32 7c31 6 43 12 43 79v483c0 57 -9 62 -36 68l-39 8v24
h232l296 -448h4v336c0 69 -7 74 -44 81l-42 7v24h208v-24l-33 -7c-30 -6 -42 -12 -42 -79v-585h-59z" />
    <glyph glyph-name="Nacute.pl" horiz-adv-x="689" 
d="M339 726l-16 11l49 119c9 25 21 45 49 45c26 0 55 -23 55 -53c0 -14 -7 -29 -30 -45zM540 -2l-395 591h-4v-477c0 -69 8 -74 45 -81l38 -7v-24h-204v24l32 7c31 6 43 12 43 79v483c0 57 -9 62 -36 68l-39 8v24h232l296 -448h4v336c0 69 -7 74 -44 81l-42 7v24h208v-24
l-33 -7c-30 -6 -42 -12 -42 -79v-585h-59z" />
    <glyph glyph-name="Obreve" unicode="&#x14e;" horiz-adv-x="712" 
d="M356 726c-82 0 -130 66 -139 140l22 6c17 -36 51 -64 117 -64c63 0 99 25 117 64l22 -6c-8 -74 -57 -140 -139 -140zM352 -12c-173 0 -323 114 -323 349c0 262 170 368 331 368c173 0 323 -112 323 -352c0 -263 -170 -365 -331 -365zM358 27c115 0 168 79 168 306
c0 203 -42 333 -173 333c-112 0 -167 -82 -167 -309c0 -203 41 -330 172 -330z" />
    <glyph glyph-name="Ohungarumlaut" unicode="&#x150;" horiz-adv-x="712" 
d="M259 721l-16 16l72 116c12 22 25 32 40 32c22 0 52 -23 52 -49c0 -18 -7 -35 -34 -50zM427 721l-17 16l72 116c13 22 25 32 41 32c22 0 53 -24 53 -50c0 -16 -6 -31 -32 -46zM352 -12c-173 0 -323 114 -323 349c0 262 170 368 331 368c173 0 323 -112 323 -352
c0 -263 -170 -365 -331 -365zM358 27c115 0 168 79 168 306c0 203 -42 333 -173 333c-112 0 -167 -82 -167 -309c0 -203 41 -330 172 -330z" />
    <glyph glyph-name="Omacron" unicode="&#x14c;" horiz-adv-x="712" 
d="M220 746v70h272v-70h-272zM352 -12c-173 0 -323 114 -323 349c0 262 170 368 331 368c173 0 323 -112 323 -352c0 -263 -170 -365 -331 -365zM358 27c115 0 168 79 168 306c0 203 -42 333 -173 333c-112 0 -167 -82 -167 -309c0 -203 41 -330 172 -330z" />
    <glyph glyph-name="Oacute.pl" horiz-adv-x="712" 
d="M330 726l-16 11l49 119c9 25 21 45 49 45c26 0 55 -23 55 -53c0 -14 -7 -29 -30 -45zM352 -12c-173 0 -323 114 -323 349c0 262 170 368 331 368c173 0 323 -112 323 -352c0 -263 -170 -365 -331 -365zM358 27c115 0 168 79 168 306c0 203 -42 333 -173 333
c-112 0 -167 -82 -167 -309c0 -203 41 -330 172 -330z" />
    <glyph glyph-name="Oslashacute" unicode="&#x1fe;" horiz-adv-x="712" 
d="M72 -64l76 119c-72 58 -119 152 -119 282c0 262 170 368 331 368c61 0 120 -15 171 -45l44 70h48l-59 -93c72 -57 119 -151 119 -284c0 -263 -170 -365 -331 -365c-62 0 -121 15 -171 44l-61 -96h-48zM358 27c115 0 168 79 168 306c0 87 -7 156 -22 209l-278 -439
c27 -51 69 -76 132 -76zM186 357c0 -86 6 -155 21 -207l278 439c-27 51 -69 77 -132 77c-112 0 -167 -82 -167 -309zM253 724l-6 16l155 112c15 11 29 17 44 17c28 0 49 -26 49 -55c0 -22 -12 -42 -46 -49z" />
    <glyph glyph-name="Racute" unicode="&#x154;" horiz-adv-x="673" 
d="M20 0v24l39 8c27 5 36 11 36 68v493c0 57 -9 62 -36 68l-39 8v24h311c181 0 258 -61 258 -180c0 -81 -47 -139 -145 -168v-3c46 -90 119 -214 175 -287c11 -14 20 -20 40 -26l18 -5v-24h-194c-63 85 -133 212 -177 311h-61v-211c0 -57 6 -62 35 -68l39 -8v-24h-299z
M296 347c98 0 140 40 140 154c0 118 -32 152 -115 152c-36 0 -63 -3 -76 -7v-295c3 -1 25 -4 51 -4zM220 724l-6 16l155 112c15 11 29 17 44 17c28 0 49 -26 49 -55c0 -22 -12 -42 -46 -49z" />
    <glyph glyph-name="Rcaron" unicode="&#x158;" horiz-adv-x="673" 
d="M20 0v24l39 8c27 5 36 11 36 68v493c0 57 -9 62 -36 68l-39 8v24h311c181 0 258 -61 258 -180c0 -81 -47 -139 -145 -168v-3c46 -90 119 -214 175 -287c11 -14 20 -20 40 -26l18 -5v-24h-194c-63 85 -133 212 -177 311h-61v-211c0 -57 6 -62 35 -68l39 -8v-24h-299z
M296 347c98 0 140 40 140 154c0 118 -32 152 -115 152c-36 0 -63 -3 -76 -7v-295c3 -1 25 -4 51 -4zM301 727l-123 133l10 14l135 -56l135 56l10 -14l-123 -133h-44z" />
    <glyph glyph-name="Rcommaaccent" unicode="&#x156;" horiz-adv-x="673" 
d="M20 0v24l39 8c27 5 36 11 36 68v493c0 57 -9 62 -36 68l-39 8v24h311c181 0 258 -61 258 -180c0 -81 -47 -139 -145 -168v-3c46 -90 119 -214 175 -287c11 -14 20 -20 40 -26l18 -5v-24h-194c-63 85 -133 212 -177 311h-61v-211c0 -57 6 -62 35 -68l39 -8v-24h-299z
M296 347c98 0 140 40 140 154c0 118 -32 152 -115 152c-36 0 -63 -3 -76 -7v-295c3 -1 25 -4 51 -4zM292 -248l-6 21c66 18 83 46 82 79c-4 -3 -13 -7 -24 -7c-33 0 -53 21 -53 51c0 29 28 54 65 54c41 0 74 -28 74 -76c0 -56 -39 -110 -138 -122z" />
    <glyph glyph-name="Sacute" unicode="&#x15a;" horiz-adv-x="519" 
d="M237 -13c-88 0 -159 16 -199 34l-12 188h29c24 -51 43 -88 69 -126c30 -44 60 -56 123 -56c87 0 125 46 125 114c0 64 -36 100 -155 149c-134 55 -183 114 -183 215c0 116 94 201 236 201c84 0 136 -11 170 -24l11 -168h-27c-25 53 -38 74 -63 106c-26 34 -44 46 -103 46
c-74 0 -115 -35 -115 -100c0 -59 23 -90 137 -137c151 -63 210 -121 210 -215c0 -125 -89 -227 -253 -227zM165 724l-6 16l155 112c15 11 29 17 44 17c28 0 49 -26 49 -55c0 -22 -12 -42 -46 -49z" />
    <glyph glyph-name="Scedilla" unicode="&#x15e;" horiz-adv-x="519" 
d="M147 -204v19c60 14 85 32 85 56c0 20 -20 28 -52 31l-5 8l38 78c-77 2 -139 16 -175 33l-12 188h29c24 -51 43 -88 69 -126c30 -44 60 -56 123 -56c87 0 125 46 125 114c0 64 -36 100 -155 149c-134 55 -183 114 -183 215c0 116 94 201 236 201c84 0 136 -11 170 -24
l11 -168h-27c-25 53 -38 74 -63 106c-26 34 -44 46 -103 46c-74 0 -115 -35 -115 -100c0 -59 23 -90 137 -137c151 -63 210 -121 210 -215c0 -122 -84 -221 -240 -227l-23 -35c52 -5 85 -28 85 -64c0 -55 -65 -84 -165 -92z" />
    <glyph glyph-name="Scircumflex" unicode="&#x15c;" horiz-adv-x="519" 
d="M127 720l-10 15l128 129h45l129 -129l-10 -15l-141 53zM237 -13c-88 0 -159 16 -199 34l-12 188h29c24 -51 43 -88 69 -126c30 -44 60 -56 123 -56c87 0 125 46 125 114c0 64 -36 100 -155 149c-134 55 -183 114 -183 215c0 116 94 201 236 201c84 0 136 -11 170 -24
l11 -168h-27c-25 53 -38 74 -63 106c-26 34 -44 46 -103 46c-74 0 -115 -35 -115 -100c0 -59 23 -90 137 -137c151 -63 210 -121 210 -215c0 -125 -89 -227 -253 -227z" />
    <glyph glyph-name="Scommaaccent" unicode="&#x218;" horiz-adv-x="519" 
d="M175 -248l-6 21c66 18 83 46 82 79c-4 -3 -13 -7 -24 -7c-33 0 -53 21 -53 51c0 29 28 54 65 54c41 0 74 -28 74 -76c0 -56 -39 -110 -138 -122zM237 -13c-88 0 -159 16 -199 34l-12 188h29c24 -51 43 -88 69 -126c30 -44 60 -56 123 -56c87 0 125 46 125 114
c0 64 -36 100 -155 149c-134 55 -183 114 -183 215c0 116 94 201 236 201c84 0 136 -11 170 -24l11 -168h-27c-25 53 -38 74 -63 106c-26 34 -44 46 -103 46c-74 0 -115 -35 -115 -100c0 -59 23 -90 137 -137c151 -63 210 -121 210 -215c0 -125 -89 -227 -253 -227z" />
    <glyph glyph-name="Sacute.pl" horiz-adv-x="519" 
d="M237 -13c-88 0 -159 16 -199 34l-12 188h29c24 -51 43 -88 69 -126c30 -44 60 -56 123 -56c87 0 125 46 125 114c0 64 -36 100 -155 149c-134 55 -183 114 -183 215c0 116 94 201 236 201c84 0 136 -11 170 -24l11 -168h-27c-25 53 -38 74 -63 106c-26 34 -44 46 -103 46
c-74 0 -115 -35 -115 -100c0 -59 23 -90 137 -137c151 -63 210 -121 210 -215c0 -125 -89 -227 -253 -227zM243 726l-16 11l49 119c9 25 21 45 49 45c26 0 55 -23 55 -53c0 -14 -7 -29 -30 -45z" />
    <glyph glyph-name="Tcaron" unicode="&#x164;" horiz-adv-x="619" 
d="M287 727l-123 133l10 14l135 -56l135 56l10 -14l-123 -133h-44zM155 0v24l42 8c31 6 37 11 37 68v554h-14c-77 0 -89 -5 -117 -50c-22 -34 -36 -66 -60 -130h-29l9 219h573l9 -219h-29c-24 64 -38 96 -60 130c-30 46 -39 50 -118 50h-13v-554c0 -57 4 -62 37 -68l41 -8
v-24h-308z" />
    <glyph glyph-name="Tcommaaccent" unicode="&#x162;" horiz-adv-x="619" 
d="M235 -248l-6 21c66 18 83 46 82 79c-4 -3 -13 -7 -24 -7c-33 0 -53 21 -53 51c0 29 28 54 65 54c41 0 74 -28 74 -76c0 -56 -39 -110 -138 -122zM155 0v24l42 8c31 6 37 11 37 68v554h-14c-77 0 -89 -5 -117 -50c-22 -34 -36 -66 -60 -130h-29l9 219h573l9 -219h-29
c-24 64 -38 96 -60 130c-30 46 -39 50 -118 50h-13v-554c0 -57 4 -62 37 -68l41 -8v-24h-308z" />
    <glyph glyph-name="Tbar" unicode="&#x166;" horiz-adv-x="619" 
d="M82 359v39h153v256h-14c-78 0 -89 -5 -117 -50c-23 -34 -36 -66 -61 -130h-28l8 219h574l8 -219h-28c-24 64 -38 96 -60 130c-30 46 -39 50 -118 50h-14v-256h153v-39h-153v-259c0 -57 5 -62 37 -68l42 -8v-24h-308v24l42 8c30 6 37 11 37 68v259h-153z" />
    <glyph glyph-name="Ubreve" unicode="&#x16c;" horiz-adv-x="692" 
d="M361 -12c-164 0 -276 65 -276 235v370c0 57 -8 62 -36 68l-38 8v24h298v-24l-37 -8c-30 -7 -36 -11 -36 -68v-386c0 -110 47 -161 166 -161c113 0 159 65 159 173v362c0 69 -7 74 -45 81l-43 7v24h209v-24l-33 -7c-29 -6 -41 -12 -41 -79v-371c0 -123 -74 -224 -247 -224
zM390 726c-82 0 -130 66 -139 140l22 6c17 -36 51 -64 117 -64c63 0 99 25 117 64l22 -6c-8 -74 -57 -140 -139 -140z" />
    <glyph glyph-name="Uhungarumlaut" unicode="&#x170;" horiz-adv-x="692" 
d="M293 721l-16 16l72 116c12 22 25 32 40 32c22 0 52 -23 52 -49c0 -18 -7 -35 -34 -50zM461 721l-17 16l72 116c13 22 25 32 41 32c22 0 53 -24 53 -50c0 -16 -6 -31 -32 -46zM361 -12c-164 0 -276 65 -276 235v370c0 57 -8 62 -36 68l-38 8v24h298v-24l-37 -8
c-30 -7 -36 -11 -36 -68v-386c0 -110 47 -161 166 -161c113 0 159 65 159 173v362c0 69 -7 74 -45 81l-43 7v24h209v-24l-33 -7c-29 -6 -41 -12 -41 -79v-371c0 -123 -74 -224 -247 -224z" />
    <glyph glyph-name="Umacron" unicode="&#x16a;" horiz-adv-x="692" 
d="M361 -12c-164 0 -276 65 -276 235v370c0 57 -8 62 -36 68l-38 8v24h298v-24l-37 -8c-30 -7 -36 -11 -36 -68v-386c0 -110 47 -161 166 -161c113 0 159 65 159 173v362c0 69 -7 74 -45 81l-43 7v24h209v-24l-33 -7c-29 -6 -41 -12 -41 -79v-371c0 -123 -74 -224 -247 -224
zM254 746v70h272v-70h-272z" />
    <glyph glyph-name="Uogonek" unicode="&#x172;" horiz-adv-x="692" 
d="M400 -203c-56 0 -96 28 -96 77c0 48 52 90 110 119c-16 -3 -36 -5 -53 -5c-164 0 -276 65 -276 235v370c0 57 -8 62 -36 68l-38 8v24h298v-24l-37 -8c-30 -7 -36 -11 -36 -68v-386c0 -110 47 -161 166 -161c113 0 159 65 159 173v362c0 69 -7 74 -45 81l-43 7v24h209v-24
l-33 -7c-29 -6 -41 -12 -41 -79v-371c0 -82 -32 -153 -105 -193c-59 -32 -98 -65 -98 -128c0 -26 10 -38 25 -43c12 -5 24 -6 54 -6v-21c-15 -10 -45 -24 -84 -24z" />
    <glyph glyph-name="Uring" unicode="&#x16e;" horiz-adv-x="692" 
d="M361 -12c-164 0 -276 65 -276 235v370c0 57 -8 62 -36 68l-38 8v24h298v-24l-37 -8c-30 -7 -36 -11 -36 -68v-386c0 -110 47 -161 166 -161c113 0 159 65 159 173v362c0 69 -7 74 -45 81l-43 7v24h209v-24l-33 -7c-29 -6 -41 -12 -41 -79v-371c0 -123 -74 -224 -247 -224
zM392 698c-57 0 -96 40 -96 91c0 53 41 92 96 92s96 -39 96 -92c0 -51 -41 -91 -96 -91zM392 730c33 0 55 25 55 59c0 35 -22 60 -55 60c-32 0 -55 -25 -55 -60c0 -34 22 -59 55 -59z" />
    <glyph glyph-name="Utilde" unicode="&#x168;" horiz-adv-x="692" 
d="M361 -12c-164 0 -276 65 -276 235v370c0 57 -8 62 -36 68l-38 8v24h298v-24l-37 -8c-30 -7 -36 -11 -36 -68v-386c0 -110 47 -161 166 -161c113 0 159 65 159 173v362c0 69 -7 74 -45 81l-43 7v24h209v-24l-33 -7c-29 -6 -41 -12 -41 -79v-371c0 -123 -74 -224 -247 -224
zM246 719l-21 11c29 69 48 115 94 115c45 0 120 -23 163 -23c20 0 33 12 52 43l21 -11c-29 -70 -47 -115 -94 -115c-45 0 -120 23 -163 23c-21 0 -33 -12 -52 -43z" />
    <glyph glyph-name="Wacute" unicode="&#x1e82;" horiz-adv-x="977" 
d="M404 724l-6 16l155 112c15 11 29 17 44 17c28 0 49 -26 49 -55c0 -22 -12 -42 -46 -49zM273 0l-189 572c-23 69 -31 84 -60 91l-26 6v24h292v-24l-28 -6c-22 -6 -33 -17 -33 -38c0 -18 8 -44 16 -71l119 -380h5l106 321l-28 86c-18 58 -30 74 -58 82l-25 6v24h291v-24
l-33 -7c-21 -5 -31 -17 -31 -39c0 -17 6 -43 14 -69l119 -380h5l107 380c7 25 13 51 13 70c0 21 -11 34 -34 39l-32 6v24h196v-24l-26 -6c-32 -8 -43 -36 -66 -112l-169 -551h-84l-134 422h-3l-141 -422h-83z" />
    <glyph glyph-name="Wcircumflex" unicode="&#x174;" horiz-adv-x="977" 
d="M371 720l-10 15l128 129h45l129 -129l-10 -15l-141 53zM273 0l-189 572c-23 69 -31 84 -60 91l-26 6v24h292v-24l-28 -6c-22 -6 -33 -17 -33 -38c0 -18 8 -44 16 -71l119 -380h5l106 321l-28 86c-18 58 -30 74 -58 82l-25 6v24h291v-24l-33 -7c-21 -5 -31 -17 -31 -39
c0 -17 6 -43 14 -69l119 -380h5l107 380c7 25 13 51 13 70c0 21 -11 34 -34 39l-32 6v24h196v-24l-26 -6c-32 -8 -43 -36 -66 -112l-169 -551h-84l-134 422h-3l-141 -422h-83z" />
    <glyph glyph-name="Wdieresis" unicode="&#x1e84;" horiz-adv-x="977" 
d="M404 728c-37 0 -68 29 -68 67s31 67 68 67c39 0 69 -29 69 -67s-30 -67 -69 -67zM620 728c-39 0 -69 29 -69 67s30 67 69 67c37 0 68 -29 68 -67s-31 -67 -68 -67zM273 0l-189 572c-23 69 -31 84 -60 91l-26 6v24h292v-24l-28 -6c-22 -6 -33 -17 -33 -38
c0 -18 8 -44 16 -71l119 -380h5l106 321l-28 86c-18 58 -30 74 -58 82l-25 6v24h291v-24l-33 -7c-21 -5 -31 -17 -31 -39c0 -17 6 -43 14 -69l119 -380h5l107 380c7 25 13 51 13 70c0 21 -11 34 -34 39l-32 6v24h196v-24l-26 -6c-32 -8 -43 -36 -66 -112l-169 -551h-84
l-134 422h-3l-141 -422h-83z" />
    <glyph glyph-name="Wgrave" unicode="&#x1e80;" horiz-adv-x="977" 
d="M628 740l-6 -16l-196 41c-34 7 -46 27 -46 49c0 29 21 55 49 55c15 0 29 -6 44 -17zM273 0l-189 572c-23 69 -31 84 -60 91l-26 6v24h292v-24l-28 -6c-22 -6 -33 -17 -33 -38c0 -18 8 -44 16 -71l119 -380h5l106 321l-28 86c-18 58 -30 74 -58 82l-25 6v24h291v-24
l-33 -7c-21 -5 -31 -17 -31 -39c0 -17 6 -43 14 -69l119 -380h5l107 380c7 25 13 51 13 70c0 21 -11 34 -34 39l-32 6v24h196v-24l-26 -6c-32 -8 -43 -36 -66 -112l-169 -551h-84l-134 422h-3l-141 -422h-83z" />
    <glyph glyph-name="Ycircumflex" unicode="&#x176;" horiz-adv-x="629" 
d="M172 0v24l42 8c31 6 37 11 37 68v183l-160 293c-35 64 -46 78 -73 87l-22 6v24h308v-24l-28 -6c-28 -7 -39 -18 -39 -39c0 -13 6 -32 19 -56l117 -231h4l103 227c13 27 16 44 16 59c0 20 -10 32 -40 39l-29 7v24h206v-24l-21 -6c-31 -11 -47 -31 -80 -100l-130 -273v-190
c0 -57 4 -62 37 -68l41 -8v-24h-308zM217 720l-10 15l128 129h45l129 -129l-10 -15l-141 53z" />
    <glyph glyph-name="Ygrave" unicode="&#x1ef2;" horiz-adv-x="629" 
d="M172 0v24l42 8c31 6 37 11 37 68v183l-160 293c-35 64 -46 78 -73 87l-22 6v24h308v-24l-28 -6c-28 -7 -39 -18 -39 -39c0 -13 6 -32 19 -56l117 -231h4l103 227c13 27 16 44 16 59c0 20 -10 32 -40 39l-29 7v24h206v-24l-21 -6c-31 -11 -47 -31 -80 -100l-130 -273v-190
c0 -57 4 -62 37 -68l41 -8v-24h-308zM474 740l-6 -16l-196 41c-34 7 -46 27 -46 49c0 29 21 55 49 55c15 0 29 -6 44 -17z" />
    <glyph glyph-name="Zacute" unicode="&#x179;" horiz-adv-x="567" 
d="M201 724l-6 16l155 112c15 11 29 17 44 17c28 0 49 -26 49 -55c0 -22 -12 -42 -46 -49zM21 0v39l364 612v4h-48c-148 0 -167 -5 -195 -46c-24 -34 -38 -63 -65 -125h-27l11 209h488v-39l-362 -611v-4h51c155 0 180 8 211 49c26 35 43 72 71 141h29l-15 -229h-513z" />
    <glyph glyph-name="Zdotaccent" unicode="&#x17b;" horiz-adv-x="567" 
d="M21 0v39l364 612v4h-48c-148 0 -167 -5 -195 -46c-24 -34 -38 -63 -65 -125h-27l11 209h488v-39l-362 -611v-4h51c155 0 180 8 211 49c26 35 43 72 71 141h29l-15 -229h-513zM304 726c-39 0 -71 30 -71 68c0 39 32 68 71 68c40 0 72 -29 72 -68c0 -38 -32 -68 -72 -68z
" />
    <glyph glyph-name="Zacute.pl" horiz-adv-x="567" 
d="M21 0v39l364 612v4h-48c-148 0 -167 -5 -195 -46c-24 -34 -38 -63 -65 -125h-27l11 209h488v-39l-362 -611v-4h51c155 0 180 8 211 49c26 35 43 72 71 141h29l-15 -229h-513zM284 726l-16 11l49 119c9 25 21 45 49 45c26 0 55 -23 55 -53c0 -14 -7 -29 -30 -45z" />
    <glyph glyph-name="abreve" unicode="&#x103;" horiz-adv-x="515" 
d="M169 -13c-93 0 -150 48 -150 133s72 123 165 145l118 29v93c0 77 -13 107 -80 107c-36 0 -46 -8 -49 -37c-5 -51 -19 -78 -68 -78c-41 0 -61 23 -61 56c0 64 90 95 206 95c122 0 186 -41 186 -135v-289c0 -33 6 -48 25 -58c12 -6 30 -9 47 -9v-21
c-17 -13 -56 -30 -104 -30c-55 0 -86 23 -95 60h-5c-25 -33 -74 -61 -135 -61zM230 49c36 0 61 17 72 37v161l-58 -6c-57 -5 -92 -30 -92 -103c0 -62 31 -89 78 -89zM249 576c-71 0 -117 66 -126 140l22 6c18 -36 48 -64 104 -64c54 0 85 25 103 64l22 -6
c-8 -74 -53 -140 -125 -140z" />
    <glyph glyph-name="amacron" unicode="&#x101;" horiz-adv-x="515" 
d="M169 -13c-93 0 -150 48 -150 133s72 123 165 145l118 29v93c0 77 -13 107 -80 107c-36 0 -46 -8 -49 -37c-5 -51 -19 -78 -68 -78c-41 0 -61 23 -61 56c0 64 90 95 206 95c122 0 186 -41 186 -135v-289c0 -33 6 -48 25 -58c12 -6 30 -9 47 -9v-21
c-17 -13 -56 -30 -104 -30c-55 0 -86 23 -95 60h-5c-25 -33 -74 -61 -135 -61zM230 49c36 0 61 17 72 37v161l-58 -6c-57 -5 -92 -30 -92 -103c0 -62 31 -89 78 -89zM123 605v70h250v-70h-250z" />
    <glyph glyph-name="aogonek" unicode="&#x105;" horiz-adv-x="515" 
d="M404 -203c-54 0 -94 28 -94 77c0 46 48 86 103 114c-59 -1 -92 20 -104 60h-5c-25 -33 -74 -61 -135 -61c-93 0 -150 48 -150 133s72 123 165 145l118 29v93c0 77 -13 107 -80 107c-36 0 -46 -8 -49 -37c-5 -51 -19 -78 -68 -78c-41 0 -61 23 -61 56c0 64 90 95 206 95
c122 0 186 -41 186 -135v-289c0 -33 6 -48 25 -58c12 -6 30 -9 47 -9v-21c-51 -27 -98 -62 -98 -127c0 -26 10 -38 25 -43c12 -5 24 -6 54 -6v-21c-15 -10 -44 -24 -85 -24zM230 49c36 0 61 17 72 37v161l-58 -6c-57 -5 -92 -30 -92 -103c0 -62 31 -89 78 -89z" />
    <glyph glyph-name="aringacute" unicode="&#x1fb;" horiz-adv-x="515" 
d="M169 -13c-93 0 -150 48 -150 133s72 123 165 145l118 29v93c0 77 -13 107 -80 107c-36 0 -46 -8 -49 -37c-5 -51 -19 -78 -68 -78c-41 0 -61 23 -61 56c0 64 90 95 206 95c122 0 186 -41 186 -135v-289c0 -33 6 -48 25 -58c12 -6 30 -9 47 -9v-21
c-17 -13 -56 -30 -104 -30c-55 0 -86 23 -95 60h-5c-25 -33 -74 -61 -135 -61zM230 49c36 0 61 17 72 37v161l-58 -6c-57 -5 -92 -30 -92 -103c0 -62 31 -89 78 -89zM250 573c-57 0 -96 40 -96 91c0 53 41 92 96 92s96 -39 96 -92c0 -51 -41 -91 -96 -91zM250 605
c33 0 55 25 55 59c0 35 -22 60 -55 60c-32 0 -55 -25 -55 -60c0 -34 22 -59 55 -59zM145 774l-6 16l155 112c15 11 29 17 44 17c28 0 49 -26 49 -55c0 -22 -12 -42 -46 -49z" />
    <glyph glyph-name="aeacute" unicode="&#x1fd;" horiz-adv-x="775" 
d="M543 -12c-90 0 -154 30 -194 84c-45 -57 -102 -85 -177 -85c-96 0 -153 47 -153 132c0 86 70 127 165 149l116 28v91c0 73 -12 107 -79 107c-36 0 -46 -8 -50 -37c-5 -51 -19 -78 -67 -78c-41 0 -62 23 -62 57c0 63 92 94 200 94c79 0 127 -25 151 -66
c38 41 90 66 152 66c128 0 208 -73 208 -259h-324c5 -158 69 -208 163 -208c67 0 111 21 148 39v-30c-31 -32 -101 -84 -197 -84zM537 495c-62 0 -105 -55 -108 -189l188 10c0 125 -15 179 -80 179zM230 49c43 0 74 27 95 67c-16 37 -24 82 -25 134l-56 -6
c-57 -5 -92 -34 -92 -107c0 -62 31 -88 78 -88zM308 578l-7 16l142 119c16 14 31 20 46 20c28 0 49 -26 49 -53c0 -20 -11 -43 -42 -52z" />
    <glyph glyph-name="cacute" unicode="&#x107;" horiz-adv-x="484" 
d="M193 578l-7 16l142 119c16 14 31 20 46 20c28 0 49 -26 49 -53c0 -20 -11 -43 -42 -52zM266 -12c-157 0 -243 107 -243 266c0 211 162 276 294 276c97 0 150 -33 150 -90c0 -36 -26 -63 -65 -63c-47 0 -61 30 -66 68c-5 41 -13 48 -46 48c-67 0 -131 -42 -131 -199
c0 -151 47 -231 159 -231c63 0 115 21 150 39v-31c-29 -32 -101 -83 -202 -83z" />
    <glyph glyph-name="ccaron" unicode="&#x10d;" horiz-adv-x="484" 
d="M260 580l-123 140l10 14l135 -63l135 63l10 -14l-123 -140h-44zM266 -12c-157 0 -243 107 -243 266c0 211 162 276 294 276c97 0 150 -33 150 -90c0 -36 -26 -63 -65 -63c-47 0 -61 30 -66 68c-5 41 -13 48 -46 48c-67 0 -131 -42 -131 -199c0 -151 47 -231 159 -231
c63 0 115 21 150 39v-31c-29 -32 -101 -83 -202 -83z" />
    <glyph glyph-name="ccircumflex" unicode="&#x109;" horiz-adv-x="484" 
d="M147 573l-10 15l122 140h45l123 -140l-10 -15l-135 64zM266 -12c-157 0 -243 107 -243 266c0 211 162 276 294 276c97 0 150 -33 150 -90c0 -36 -26 -63 -65 -63c-47 0 -61 30 -66 68c-5 41 -13 48 -46 48c-67 0 -131 -42 -131 -199c0 -151 47 -231 159 -231
c63 0 115 21 150 39v-31c-29 -32 -101 -83 -202 -83z" />
    <glyph glyph-name="cdotaccent" unicode="&#x10b;" horiz-adv-x="484" 
d="M266 -12c-157 0 -243 107 -243 266c0 211 162 276 294 276c97 0 150 -33 150 -90c0 -36 -26 -63 -65 -63c-47 0 -61 30 -66 68c-5 41 -13 48 -46 48c-67 0 -131 -42 -131 -199c0 -151 47 -231 159 -231c63 0 115 21 150 39v-31c-29 -32 -101 -83 -202 -83zM282 575
c-39 0 -71 30 -71 68c0 39 32 68 71 68c40 0 72 -29 72 -68c0 -38 -32 -68 -72 -68z" />
    <glyph glyph-name="cacute.pl" horiz-adv-x="484" 
d="M266 -12c-157 0 -243 107 -243 266c0 211 162 276 294 276c97 0 150 -33 150 -90c0 -36 -26 -63 -65 -63c-47 0 -61 30 -66 68c-5 41 -13 48 -46 48c-67 0 -131 -42 -131 -199c0 -151 47 -231 159 -231c63 0 115 21 150 39v-31c-29 -32 -101 -83 -202 -83zM258 569
l-15 10l44 142c8 25 22 45 50 45c26 0 57 -23 57 -53c0 -13 -4 -27 -19 -40z" />
    <glyph glyph-name="dcaron" unicode="&#x10f;" horiz-adv-x="600" 
d="M587 557l-16 5l6 142c1 29 14 52 49 52c28 0 50 -18 50 -45c0 -9 -2 -23 -12 -36zM223 -12c-97 0 -196 67 -196 253c0 203 134 288 284 288c33 0 62 -5 83 -11c0 0 -2 38 -2 74v45c0 44 -6 47 -30 59l-42 21v20l200 19l9 -7s-3 -45 -3 -119v-517c0 -48 4 -54 31 -65
l32 -15v-19l-185 -26l-10 7l2 55h-4c-42 -34 -101 -62 -169 -62zM294 57c49 0 79 18 98 27v367c-19 20 -46 41 -86 41c-85 0 -141 -56 -141 -224c0 -155 46 -211 129 -211z" />
    <glyph glyph-name="ebreve" unicode="&#x115;" horiz-adv-x="515" 
d="M276 -12c-169 0 -253 106 -253 273c0 168 122 269 253 269c133 0 214 -69 216 -250h-334c2 -165 67 -217 169 -217c68 0 114 21 152 39v-30c-32 -32 -104 -84 -203 -84zM270 495c-61 0 -107 -53 -112 -180l195 10c0 121 -17 170 -83 170zM274 576c-71 0 -117 66 -126 140
l22 6c18 -36 48 -64 104 -64c54 0 85 25 103 64l22 -6c-8 -74 -53 -140 -125 -140z" />
    <glyph glyph-name="ecaron" unicode="&#x11b;" horiz-adv-x="515" 
d="M276 -12c-169 0 -253 106 -253 273c0 168 122 269 253 269c133 0 214 -69 216 -250h-334c2 -165 67 -217 169 -217c68 0 114 21 152 39v-30c-32 -32 -104 -84 -203 -84zM270 495c-61 0 -107 -53 -112 -180l195 10c0 121 -17 170 -83 170zM252 580l-123 140l10 14l135 -63
l135 63l10 -14l-123 -140h-44z" />
    <glyph glyph-name="edotaccent" unicode="&#x117;" horiz-adv-x="515" 
d="M276 -12c-169 0 -253 106 -253 273c0 168 122 269 253 269c133 0 214 -69 216 -250h-334c2 -165 67 -217 169 -217c68 0 114 21 152 39v-30c-32 -32 -104 -84 -203 -84zM270 495c-61 0 -107 -53 -112 -180l195 10c0 121 -17 170 -83 170zM274 575c-39 0 -71 30 -71 68
c0 39 32 68 71 68c40 0 72 -29 72 -68c0 -38 -32 -68 -72 -68z" />
    <glyph glyph-name="emacron" unicode="&#x113;" horiz-adv-x="515" 
d="M276 -12c-169 0 -253 106 -253 273c0 168 122 269 253 269c133 0 214 -69 216 -250h-334c2 -165 67 -217 169 -217c68 0 114 21 152 39v-30c-32 -32 -104 -84 -203 -84zM270 495c-61 0 -107 -53 -112 -180l195 10c0 121 -17 170 -83 170zM149 605v70h250v-70h-250z" />
    <glyph glyph-name="eogonek" unicode="&#x119;" horiz-adv-x="515" 
d="M23 261c0 168 122 269 253 269c133 0 214 -69 216 -250h-334c3 -164 68 -217 169 -217c68 0 114 21 152 39v-30c-23 -23 -61 -49 -86 -68c-40 -31 -70 -71 -70 -113c0 -26 10 -38 25 -43c12 -5 24 -6 54 -6v-21c-15 -10 -44 -24 -84 -24c-55 0 -95 28 -95 77
c0 51 63 95 120 124c-21 -6 -43 -10 -70 -10c-166 0 -250 106 -250 273zM270 495c-60 0 -106 -52 -112 -181l195 11c0 121 -17 170 -83 170z" />
    <glyph glyph-name="gbreve" unicode="&#x11f;" horiz-adv-x="511" 
d="M209 -208c-142 0 -222 45 -222 118c0 48 45 85 121 104v4c-48 12 -78 44 -78 90c0 52 43 90 77 113v4c-47 23 -82 69 -82 130c0 115 100 174 207 174c44 0 82 -8 116 -24c30 26 69 48 112 48c34 0 60 -18 60 -52c0 -28 -14 -52 -46 -52c-29 0 -39 14 -48 34
c-10 20 -32 18 -57 6v-4c40 -23 70 -65 70 -119c0 -116 -100 -172 -207 -172c-35 0 -68 6 -97 17c-12 -10 -26 -28 -26 -48c0 -22 16 -36 55 -36h170c91 0 158 -29 158 -132c0 -100 -83 -203 -283 -203zM228 -173c108 0 176 40 176 111c0 44 -25 71 -90 71h-167
c-23 -9 -51 -35 -51 -81c0 -64 39 -101 132 -101zM232 228c53 0 78 32 78 127c0 105 -26 140 -78 140c-53 0 -79 -34 -79 -129c0 -104 27 -138 79 -138zM240 576c-71 0 -117 66 -126 140l22 6c18 -36 48 -64 104 -64c54 0 85 25 103 64l22 -6c-8 -74 -53 -140 -125 -140z
" />
    <glyph glyph-name="gcircumflex" unicode="&#x11d;" horiz-adv-x="511" 
d="M105 573l-10 15l122 140h45l123 -140l-10 -15l-135 64zM209 -208c-142 0 -222 45 -222 118c0 48 45 85 121 104v4c-48 12 -78 44 -78 90c0 52 43 90 77 113v4c-47 23 -82 69 -82 130c0 115 100 174 207 174c44 0 82 -8 116 -24c30 26 69 48 112 48c34 0 60 -18 60 -52
c0 -28 -14 -52 -46 -52c-29 0 -39 14 -48 34c-10 20 -32 18 -57 6v-4c40 -23 70 -65 70 -119c0 -116 -100 -172 -207 -172c-35 0 -68 6 -97 17c-12 -10 -26 -28 -26 -48c0 -22 16 -36 55 -36h170c91 0 158 -29 158 -132c0 -100 -83 -203 -283 -203zM228 -173
c108 0 176 40 176 111c0 44 -25 71 -90 71h-167c-23 -9 -51 -35 -51 -81c0 -64 39 -101 132 -101zM232 228c53 0 78 32 78 127c0 105 -26 140 -78 140c-53 0 -79 -34 -79 -129c0 -104 27 -138 79 -138z" />
    <glyph glyph-name="gcommaaccent" unicode="&#x123;" horiz-adv-x="511" 
d="M308 775l6 -21c-66 -18 -83 -47 -83 -80c5 4 14 8 25 8c32 0 53 -21 53 -51c0 -29 -28 -55 -65 -55c-42 0 -75 28 -75 77c0 56 39 109 139 122zM209 -208c-142 0 -222 45 -222 118c0 48 45 85 121 104v4c-48 12 -78 44 -78 90c0 52 43 90 77 113v4c-47 23 -82 69 -82 130
c0 115 100 174 207 174c44 0 82 -8 116 -24c30 26 69 48 112 48c34 0 60 -18 60 -52c0 -28 -14 -52 -46 -52c-29 0 -39 14 -48 34c-10 20 -32 18 -57 6v-4c40 -23 70 -65 70 -119c0 -116 -100 -172 -207 -172c-35 0 -68 6 -97 17c-12 -10 -26 -28 -26 -48
c0 -22 16 -36 55 -36h170c91 0 158 -29 158 -132c0 -100 -83 -203 -283 -203zM228 -173c108 0 176 40 176 111c0 44 -25 71 -90 71h-167c-23 -9 -51 -35 -51 -81c0 -64 39 -101 132 -101zM232 228c53 0 78 32 78 127c0 105 -26 140 -78 140c-53 0 -79 -34 -79 -129
c0 -104 27 -138 79 -138z" />
    <glyph glyph-name="gdotaccent" unicode="&#x121;" horiz-adv-x="511" 
d="M209 -208c-142 0 -222 45 -222 118c0 48 45 85 121 104v4c-48 12 -78 44 -78 90c0 52 43 90 77 113v4c-47 23 -82 69 -82 130c0 115 100 174 207 174c44 0 82 -8 116 -24c30 26 69 48 112 48c34 0 60 -18 60 -52c0 -28 -14 -52 -46 -52c-29 0 -39 14 -48 34
c-10 20 -32 18 -57 6v-4c40 -23 70 -65 70 -119c0 -116 -100 -172 -207 -172c-35 0 -68 6 -97 17c-12 -10 -26 -28 -26 -48c0 -22 16 -36 55 -36h170c91 0 158 -29 158 -132c0 -100 -83 -203 -283 -203zM228 -173c108 0 176 40 176 111c0 44 -25 71 -90 71h-167
c-23 -9 -51 -35 -51 -81c0 -64 39 -101 132 -101zM232 228c53 0 78 32 78 127c0 105 -26 140 -78 140c-53 0 -79 -34 -79 -129c0 -104 27 -138 79 -138zM239 575c-39 0 -71 30 -71 68c0 39 32 68 71 68c40 0 72 -29 72 -68c0 -38 -32 -68 -72 -68z" />
    <glyph glyph-name="hbar" unicode="&#x127;" horiz-adv-x="608" 
d="M3 600v42h76c-1 40 -6 44 -30 56l-39 19v20l197 19l10 -7s-4 -46 -4 -107h153v-42h-153v-43c0 -51 -3 -94 -3 -94h4c52 35 118 66 187 66c91 0 132 -43 132 -133v-310c0 -42 6 -48 32 -55l32 -8v-23h-259v23l31 8c26 7 30 10 30 55v278c0 64 -23 85 -76 85
c-41 0 -85 -12 -110 -18v-345c0 -45 4 -48 30 -55l31 -8v-23h-259v23l32 8c27 8 32 14 32 55v514h-76z" />
    <glyph glyph-name="hcircumflex" unicode="&#x125;" horiz-adv-x="608" 
d="M15 0v23l32 8c27 8 32 14 32 55v551c0 45 -5 49 -30 61l-39 19v20l197 19l10 -7s-4 -52 -4 -119v-73c0 -51 -3 -94 -3 -94h4c52 35 118 66 187 66c91 0 132 -43 132 -133v-310c0 -42 6 -48 32 -55l32 -8v-23h-259v23l31 8c26 7 30 10 30 55v278c0 64 -23 85 -76 85
c-41 0 -85 -12 -110 -18v-345c0 -45 4 -48 30 -55l31 -8v-23h-259zM169 784l-10 15l128 129h45l129 -129l-10 -15l-141 53z" />
    <glyph glyph-name="ibreve" unicode="&#x12d;" horiz-adv-x="288" 
d="M15 0v26l32 8c22 6 32 11 32 37v349c0 29 -5 34 -31 49l-35 20v17l195 23l9 -7c-2 -41 -4 -74 -4 -105v-346c0 -28 7 -31 32 -37l32 -8v-26h-262zM145 576c-71 0 -117 66 -126 140l22 6c18 -36 48 -64 104 -64c54 0 85 25 103 64l22 -6c-8 -74 -53 -140 -125 -140z" />
    <glyph glyph-name="imacron" unicode="&#x12b;" horiz-adv-x="288" 
d="M15 0v26l32 8c22 6 32 11 32 37v349c0 29 -5 34 -31 49l-35 20v17l195 23l9 -7c-2 -41 -4 -74 -4 -105v-346c0 -28 7 -31 32 -37l32 -8v-26h-262zM19 605v70h250v-70h-250z" />
    <glyph glyph-name="iogonek" unicode="&#x12f;" horiz-adv-x="288" 
d="M15 0v23l32 8c27 8 32 14 32 55v321c0 42 -5 45 -31 61l-35 21v17l195 23l9 -6c-1 -18 -4 -57 -4 -106v-331c0 -43 5 -48 32 -55l32 -8v-23h-74c-22 -32 -41 -65 -41 -107c0 -26 10 -40 25 -45c12 -5 24 -6 54 -6v-21c-16 -10 -45 -24 -85 -24c-54 0 -94 30 -94 79
c0 53 63 96 112 124h-159zM142 590c-43 0 -77 32 -77 73s34 73 77 73c42 0 76 -32 76 -73s-34 -73 -76 -73z" />
    <glyph glyph-name="itilde" unicode="&#x129;" horiz-adv-x="288" 
d="M15 0v26l32 8c22 6 32 11 32 37v349c0 29 -5 34 -31 49l-35 20v17l195 23l9 -7c-2 -41 -4 -74 -4 -105v-346c0 -28 7 -31 32 -37l32 -8v-26h-262zM5 572l-22 11c30 70 49 115 95 115c45 0 112 -23 155 -23c20 0 33 12 52 43l22 -11c-29 -70 -47 -115 -95 -115
c-45 0 -113 23 -155 23c-21 0 -33 -12 -52 -43z" />
    <glyph glyph-name="idotaccent" horiz-adv-x="288" 
d="M15 0v23l32 8c27 8 32 14 32 55v321c0 42 -5 45 -31 61l-35 21v17l195 23l9 -6c-1 -18 -4 -57 -4 -106v-331c0 -43 5 -48 32 -55l32 -8v-23h-262zM142 590c-43 0 -77 32 -77 73s34 73 77 73c42 0 76 -32 76 -73s-34 -73 -76 -73z" />
    <glyph glyph-name="jcircumflex" unicode="&#x135;" horiz-adv-x="282" 
d="M12 -210c-78 0 -114 36 -114 80c0 33 24 53 58 53c44 0 59 -20 64 -67c3 -27 7 -30 17 -30c26 0 42 20 42 64v517c0 42 -5 45 -31 61l-35 21v17l195 23l9 -6c-1 -18 -4 -58 -4 -106v-414c0 -146 -87 -213 -201 -213zM8 573l-10 15l122 140h45l123 -140l-10 -15l-135 64z
" />
    <glyph glyph-name="kcommaaccent" unicode="&#x137;" horiz-adv-x="564" 
d="M233 -248l-6 21c66 18 83 46 82 79c-4 -3 -13 -7 -24 -7c-33 0 -53 21 -53 51c0 29 28 54 65 54c41 0 74 -28 74 -76c0 -56 -39 -110 -138 -122zM398 0c-67 83 -119 165 -169 248v13l113 126c36 40 43 59 43 74c0 13 -10 20 -33 27l-14 4v23h201v-23l-25 -7
c-27 -8 -42 -18 -85 -62l-99 -103c55 -91 127 -199 184 -266c10 -13 20 -20 33 -24l22 -7v-23h-171zM15 0v23l32 8c27 8 32 14 32 55v551c0 45 -5 49 -30 61l-39 19v20l197 19l10 -7s-4 -52 -4 -119v-544c0 -44 4 -48 29 -55l30 -8v-23h-257z" />
    <glyph glyph-name="lacute" unicode="&#x13a;" horiz-adv-x="291" 
d="M41 782l-6 16l155 112c15 11 29 17 44 17c28 0 49 -26 49 -55c0 -22 -12 -42 -46 -49zM15 0v23l32 8c28 8 33 14 33 55v551c0 45 -5 48 -31 61l-39 19v20l198 19l10 -7s-4 -52 -4 -119v-544c0 -43 5 -47 33 -55l32 -8v-23h-264z" />
    <glyph glyph-name="lcaron" unicode="&#x13e;" horiz-adv-x="291" 
d="M275 557l-16 5l6 142c1 29 14 52 49 52c28 0 50 -18 50 -45c0 -9 -2 -23 -12 -36zM15 0v23l32 8c28 8 33 14 33 55v551c0 45 -5 48 -31 61l-39 19v20l198 19l10 -7s-4 -52 -4 -119v-544c0 -43 5 -47 33 -55l32 -8v-23h-264z" />
    <glyph glyph-name="lcommaaccent" unicode="&#x13c;" horiz-adv-x="291" 
d="M77 -248l-6 21c66 18 83 46 82 79c-4 -3 -13 -7 -24 -7c-33 0 -53 21 -53 51c0 29 28 54 65 54c41 0 74 -28 74 -76c0 -56 -39 -110 -138 -122zM15 0v23l32 8c28 8 33 14 33 55v551c0 45 -5 48 -31 61l-39 19v20l198 19l10 -7s-4 -52 -4 -119v-544c0 -43 5 -47 33 -55
l32 -8v-23h-264z" />
    <glyph glyph-name="ldot" unicode="&#x140;" horiz-adv-x="344" 
d="M15 0v23l32 8c28 8 33 14 33 55v551c0 45 -5 48 -31 61l-39 19v20l198 19l10 -7s-4 -52 -4 -119v-544c0 -43 5 -47 33 -55l32 -8v-23h-264zM318 280c-34 0 -62 29 -62 61c0 35 28 62 62 62c33 0 63 -27 63 -62c0 -32 -30 -61 -63 -61z" />
    <glyph glyph-name="nacute" unicode="&#x144;" horiz-adv-x="608" 
d="M220 578l-7 16l142 119c16 14 31 20 46 20c28 0 49 -26 49 -53c0 -20 -11 -43 -42 -52zM15 0v23l32 8c27 8 32 14 32 55v321c0 42 -5 45 -31 61l-35 21v17l188 23l9 -6l-2 -62h5c51 36 119 68 188 68c91 0 132 -43 132 -133v-310c0 -42 6 -48 32 -55l32 -8v-23h-259v23
l31 8c26 7 30 10 30 55v278c0 64 -23 85 -76 85c-41 0 -85 -12 -110 -18v-345c0 -45 4 -48 30 -55l31 -8v-23h-259z" />
    <glyph glyph-name="napostrophe" unicode="&#x149;" horiz-adv-x="671" 
d="M-63 469l-7 20c60 28 86 63 85 104c-4 -3 -14 -8 -26 -8c-32 0 -56 24 -56 60c0 37 31 61 68 61c41 0 79 -31 79 -86c0 -75 -49 -129 -143 -151zM77 0v23l32 8c27 8 32 14 32 55v321c0 42 -5 45 -31 61l-35 21v17l188 23l9 -6l-2 -62h5c51 36 119 68 188 68
c91 0 132 -43 132 -133v-310c0 -42 6 -48 32 -55l32 -8v-23h-259v23l31 8c26 7 30 10 30 55v278c0 64 -23 85 -76 85c-41 0 -85 -12 -110 -18v-345c0 -45 4 -48 30 -55l31 -8v-23h-259z" />
    <glyph glyph-name="ncaron" unicode="&#x148;" horiz-adv-x="608" 
d="M286 580l-123 140l10 14l135 -63l135 63l10 -14l-123 -140h-44zM15 0v23l32 8c27 8 32 14 32 55v321c0 42 -5 45 -31 61l-35 21v17l188 23l9 -6l-2 -62h5c51 36 119 68 188 68c91 0 132 -43 132 -133v-310c0 -42 6 -48 32 -55l32 -8v-23h-259v23l31 8c26 7 30 10 30 55
v278c0 64 -23 85 -76 85c-41 0 -85 -12 -110 -18v-345c0 -45 4 -48 30 -55l31 -8v-23h-259z" />
    <glyph glyph-name="ncommaaccent" unicode="&#x146;" horiz-adv-x="608" 
d="M241 -248l-6 21c66 18 83 46 82 79c-4 -3 -13 -7 -24 -7c-33 0 -53 21 -53 51c0 29 28 54 65 54c41 0 74 -28 74 -76c0 -56 -39 -110 -138 -122zM15 0v23l32 8c27 8 32 14 32 55v321c0 42 -5 45 -31 61l-35 21v17l188 23l9 -6l-2 -62h5c51 36 119 68 188 68
c91 0 132 -43 132 -133v-310c0 -42 6 -48 32 -55l32 -8v-23h-259v23l31 8c26 7 30 10 30 55v278c0 64 -23 85 -76 85c-41 0 -85 -12 -110 -18v-345c0 -45 4 -48 30 -55l31 -8v-23h-259z" />
    <glyph glyph-name="nacute.pl" horiz-adv-x="608" 
d="M284 569l-15 10l44 142c8 25 22 45 50 45c26 0 57 -23 57 -53c0 -13 -4 -27 -19 -40zM15 0v23l32 8c27 8 32 14 32 55v321c0 42 -5 45 -31 61l-35 21v17l188 23l9 -6l-2 -62h5c51 36 119 68 188 68c91 0 132 -43 132 -133v-310c0 -42 6 -48 32 -55l32 -8v-23h-259v23
l31 8c26 7 30 10 30 55v278c0 64 -23 85 -76 85c-41 0 -85 -12 -110 -18v-345c0 -45 4 -48 30 -55l31 -8v-23h-259z" />
    <glyph glyph-name="obreve" unicode="&#x14f;" horiz-adv-x="569" 
d="M284 -13c-143 0 -261 90 -261 270c0 185 129 273 261 273c143 0 262 -87 262 -267c0 -185 -128 -276 -262 -276zM288 23c72 0 115 50 115 228c0 192 -42 243 -122 243c-74 0 -115 -55 -115 -221c0 -194 39 -250 122 -250zM284 576c-71 0 -117 66 -126 140l22 6
c18 -36 48 -64 104 -64c54 0 85 25 103 64l22 -6c-8 -74 -53 -140 -125 -140z" />
    <glyph glyph-name="ohungarumlaut" unicode="&#x151;" horiz-adv-x="569" 
d="M183 574l-16 16l80 126c14 22 27 32 42 32c22 0 52 -23 52 -49c0 -18 -8 -36 -34 -51zM351 574l-17 16l81 126c13 22 26 32 42 32c22 0 53 -24 53 -50c0 -16 -7 -32 -32 -47zM284 -13c-143 0 -261 90 -261 270c0 185 129 273 261 273c143 0 262 -87 262 -267
c0 -185 -128 -276 -262 -276zM288 23c72 0 115 50 115 228c0 192 -42 243 -122 243c-74 0 -115 -55 -115 -221c0 -194 39 -250 122 -250z" />
    <glyph glyph-name="omacron" unicode="&#x14d;" horiz-adv-x="569" 
d="M159 605v70h250v-70h-250zM284 -13c-143 0 -261 90 -261 270c0 185 129 273 261 273c143 0 262 -87 262 -267c0 -185 -128 -276 -262 -276zM288 23c72 0 115 50 115 228c0 192 -42 243 -122 243c-74 0 -115 -55 -115 -221c0 -194 39 -250 122 -250z" />
    <glyph glyph-name="oacute.pl" horiz-adv-x="569" 
d="M284 -13c-143 0 -261 90 -261 270c0 185 129 273 261 273c143 0 262 -87 262 -267c0 -185 -128 -276 -262 -276zM288 23c72 0 115 50 115 228c0 192 -42 243 -122 243c-74 0 -115 -55 -115 -221c0 -194 39 -250 122 -250zM259 569l-15 10l44 142c8 25 22 45 50 45
c26 0 57 -23 57 -53c0 -13 -4 -27 -19 -40z" />
    <glyph glyph-name="oslashacute" unicode="&#x1ff;" horiz-adv-x="569" 
d="M54 -64l66 101c-59 44 -97 118 -97 220c0 185 129 273 261 273c49 0 95 -11 135 -31l50 77h45l-63 -97c58 -44 95 -115 95 -216c0 -185 -128 -276 -262 -276c-48 0 -93 10 -132 30l-53 -81h-45zM163 256c0 -58 3 -102 11 -135l206 319c-20 43 -54 54 -99 54
c-74 0 -119 -60 -118 -238zM288 23c73 0 119 59 118 243c-1 54 -4 95 -11 127l-206 -318c21 -40 53 -52 99 -52zM195 578l-7 16l142 119c16 14 31 20 46 20c28 0 49 -26 49 -53c0 -20 -11 -43 -42 -52z" />
    <glyph glyph-name="racute" unicode="&#x155;" horiz-adv-x="438" 
d="M158 578l-7 16l142 119c16 14 31 20 46 20c28 0 49 -26 49 -53c0 -20 -11 -43 -42 -52zM15 0v23l32 8c27 8 32 14 32 55v321c0 42 -5 45 -31 61l-35 21v17l188 23l9 -7l-2 -66h5c32 34 90 74 144 74c45 0 72 -24 72 -69c0 -43 -28 -67 -62 -67c-42 0 -54 15 -69 42
c-5 12 -10 15 -19 15c-18 0 -51 -17 -66 -33v-332c0 -45 5 -50 30 -55l40 -8v-23h-268z" />
    <glyph glyph-name="rcaron" unicode="&#x159;" horiz-adv-x="438" 
d="M226 580l-123 140l10 14l135 -63l135 63l10 -14l-123 -140h-44zM15 0v23l32 8c27 8 32 14 32 55v321c0 42 -5 45 -31 61l-35 21v17l188 23l9 -7l-2 -66h5c32 34 90 74 144 74c45 0 72 -24 72 -69c0 -43 -28 -67 -62 -67c-42 0 -54 15 -69 42c-5 12 -10 15 -19 15
c-18 0 -51 -17 -66 -33v-332c0 -45 5 -50 30 -55l40 -8v-23h-268z" />
    <glyph glyph-name="rcommaaccent" unicode="&#x157;" horiz-adv-x="438" 
d="M73 -248l-6 21c66 18 83 46 82 79c-4 -3 -13 -7 -24 -7c-33 0 -53 21 -53 51c0 29 28 54 65 54c41 0 74 -28 74 -76c0 -56 -39 -110 -138 -122zM15 0v23l32 8c27 8 32 14 32 55v321c0 42 -5 45 -31 61l-35 21v17l188 23l9 -7l-2 -66h5c32 34 90 74 144 74
c45 0 72 -24 72 -69c0 -43 -28 -67 -62 -67c-42 0 -54 15 -69 42c-5 12 -10 15 -19 15c-18 0 -51 -17 -66 -33v-332c0 -45 5 -50 30 -55l40 -8v-23h-268z" />
    <glyph glyph-name="sacute" unicode="&#x15b;" horiz-adv-x="422" 
d="M126 578l-7 16l142 119c16 14 31 20 46 20c28 0 49 -26 49 -53c0 -20 -11 -43 -42 -52zM185 -12c-57 0 -113 9 -154 22l-5 152h25c19 -39 37 -66 60 -97c20 -29 41 -41 88 -41c52 0 91 29 91 78c0 50 -33 73 -118 106c-88 34 -145 78 -145 161c0 94 79 161 202 161
c56 0 102 -8 133 -20l5 -132h-23c-18 35 -34 60 -54 83c-23 28 -43 33 -77 33c-51 0 -81 -26 -81 -70c0 -41 26 -69 107 -100c108 -40 160 -85 160 -162c0 -101 -78 -174 -214 -174z" />
    <glyph glyph-name="scedilla" unicode="&#x15f;" horiz-adv-x="422" 
d="M100 -204v19c60 14 85 32 85 56c0 20 -20 28 -52 31l-5 8l39 78c-51 2 -100 11 -136 22l-5 152h25c19 -39 37 -66 60 -97c20 -29 41 -41 88 -41c52 0 91 29 91 78c0 50 -33 73 -118 106c-88 34 -145 78 -145 161c0 94 79 161 202 161c56 0 102 -8 133 -20l5 -132h-23
c-18 35 -34 60 -54 83c-23 28 -43 33 -77 33c-51 0 -81 -26 -81 -70c0 -41 26 -69 107 -100c108 -40 160 -85 160 -162c0 -96 -71 -167 -195 -173l-24 -37c52 -5 85 -28 85 -64c0 -55 -65 -84 -165 -92z" />
    <glyph glyph-name="scircumflex" unicode="&#x15d;" horiz-adv-x="422" 
d="M80 573l-10 15l122 140h45l123 -140l-10 -15l-135 64zM185 -12c-57 0 -113 9 -154 22l-5 152h25c19 -39 37 -66 60 -97c20 -29 41 -41 88 -41c52 0 91 29 91 78c0 50 -33 73 -118 106c-88 34 -145 78 -145 161c0 94 79 161 202 161c56 0 102 -8 133 -20l5 -132h-23
c-18 35 -34 60 -54 83c-23 28 -43 33 -77 33c-51 0 -81 -26 -81 -70c0 -41 26 -69 107 -100c108 -40 160 -85 160 -162c0 -101 -78 -174 -214 -174z" />
    <glyph glyph-name="scommaaccent" unicode="&#x219;" horiz-adv-x="422" 
d="M132 -248l-6 21c66 18 83 46 82 79c-4 -3 -13 -7 -24 -7c-33 0 -53 21 -53 51c0 29 28 54 65 54c41 0 74 -28 74 -76c0 -56 -39 -110 -138 -122zM185 -12c-57 0 -113 9 -154 22l-5 152h25c19 -39 37 -66 60 -97c20 -29 41 -41 88 -41c52 0 91 29 91 78
c0 50 -33 73 -118 106c-88 34 -145 78 -145 161c0 94 79 161 202 161c56 0 102 -8 133 -20l5 -132h-23c-18 35 -34 60 -54 83c-23 28 -43 33 -77 33c-51 0 -81 -26 -81 -70c0 -41 26 -69 107 -100c108 -40 160 -85 160 -162c0 -101 -78 -174 -214 -174z" />
    <glyph glyph-name="sacute.pl" horiz-adv-x="422" 
d="M185 -12c-57 0 -113 9 -154 22l-5 152h25c19 -39 37 -66 60 -97c20 -29 41 -41 88 -41c52 0 91 29 91 78c0 50 -33 73 -118 106c-88 34 -145 78 -145 161c0 94 79 161 202 161c56 0 102 -8 133 -20l5 -132h-23c-18 35 -34 60 -54 83c-23 28 -43 33 -77 33
c-51 0 -81 -26 -81 -70c0 -41 26 -69 107 -100c108 -40 160 -85 160 -162c0 -101 -78 -174 -214 -174zM191 569l-15 10l44 142c8 25 22 45 50 45c26 0 57 -23 57 -53c0 -13 -4 -27 -19 -40z" />
    <glyph glyph-name="tbar" unicode="&#x167;" horiz-adv-x="348" 
d="M3 327v42h65v94h-66v22c73 26 129 79 157 158h43v-128h136l-12 -52h-124v-94h131v-42h-131v-205c0 -47 17 -66 65 -66c26 0 56 6 75 11v-25c-22 -19 -70 -54 -146 -54c-79 0 -128 35 -128 124v215h-65z" />
    <glyph glyph-name="tcaron" unicode="&#x165;" horiz-adv-x="348" 
d="M282 557l-16 5l6 142c1 29 14 52 49 52c28 0 50 -18 50 -45c0 -9 -2 -23 -12 -36zM196 -12c-79 0 -128 35 -128 124v351h-66v22c73 26 129 79 157 158h43v-128h136l-12 -52h-124v-341c0 -47 17 -66 65 -66c26 0 56 6 75 11v-25c-22 -19 -70 -54 -146 -54z" />
    <glyph glyph-name="tcommaaccent" unicode="&#x163;" horiz-adv-x="348" 
d="M110 -248l-6 21c66 18 83 46 82 79c-4 -3 -13 -7 -24 -7c-33 0 -53 21 -53 51c0 29 28 54 65 54c41 0 74 -28 74 -76c0 -56 -39 -110 -138 -122zM196 -12c-79 0 -128 35 -128 124v351h-66v22c73 26 129 79 157 158h43v-128h136l-12 -52h-124v-341c0 -47 17 -66 65 -66
c26 0 56 6 75 11v-25c-22 -19 -70 -54 -146 -54z" />
    <glyph glyph-name="ubreve" unicode="&#x16d;" horiz-adv-x="604" 
d="M208 -12c-81 0 -132 46 -132 132v295c0 39 -3 42 -29 56l-37 20v18l189 20l11 -9v-369c0 -59 25 -85 76 -85c41 0 81 15 110 25v324c0 39 -3 43 -29 56l-37 20v18l189 20l11 -9v-407c0 -48 4 -54 31 -65l33 -15v-19l-186 -26l-9 7l2 65h-5c-52 -37 -115 -72 -188 -72z
M307 576c-71 0 -117 66 -126 140l22 6c18 -36 48 -64 104 -64c54 0 85 25 103 64l22 -6c-8 -74 -53 -140 -125 -140z" />
    <glyph glyph-name="uhungarumlaut" unicode="&#x171;" horiz-adv-x="604" 
d="M208 -12c-81 0 -132 46 -132 132v295c0 39 -3 42 -29 56l-37 20v18l189 20l11 -9v-369c0 -59 25 -85 76 -85c41 0 81 15 110 25v324c0 39 -3 43 -29 56l-37 20v18l189 20l11 -9v-407c0 -48 4 -54 31 -65l33 -15v-19l-186 -26l-9 7l2 65h-5c-52 -37 -115 -72 -188 -72z
M205 574l-16 16l80 126c14 22 27 32 42 32c22 0 52 -23 52 -49c0 -18 -8 -36 -34 -51zM373 574l-17 16l81 126c13 22 26 32 42 32c22 0 53 -24 53 -50c0 -16 -7 -32 -32 -47z" />
    <glyph glyph-name="umacron" unicode="&#x16b;" horiz-adv-x="604" 
d="M208 -12c-81 0 -132 46 -132 132v295c0 39 -3 42 -29 56l-37 20v18l189 20l11 -9v-369c0 -59 25 -85 76 -85c41 0 81 15 110 25v324c0 39 -3 43 -29 56l-37 20v18l189 20l11 -9v-407c0 -48 4 -54 31 -65l33 -15v-19l-186 -26l-9 7l2 65h-5c-52 -37 -115 -72 -188 -72z
M181 605v70h250v-70h-250z" />
    <glyph glyph-name="uogonek" unicode="&#x173;" horiz-adv-x="604" 
d="M385 -203c-54 0 -94 28 -94 77s57 87 108 113l2 73h-5c-52 -37 -115 -72 -188 -72c-81 0 -132 46 -132 132v295c0 39 -3 42 -29 56l-37 20v18l189 20l11 -9v-369c0 -59 25 -85 76 -85c41 0 81 15 110 25v324c0 39 -3 43 -29 56l-37 20v18l189 20l11 -9v-407
c0 -48 4 -54 31 -65l33 -15v-19l-54 -6c-107 -12 -149 -64 -149 -117c0 -26 10 -38 25 -43c12 -5 24 -6 54 -6v-21c-15 -10 -44 -24 -85 -24z" />
    <glyph glyph-name="uring" unicode="&#x16f;" horiz-adv-x="604" 
d="M306 573c-57 0 -96 40 -96 91c0 53 41 92 96 92s96 -39 96 -92c0 -51 -41 -91 -96 -91zM306 605c33 0 55 25 55 59c0 35 -22 60 -55 60c-32 0 -55 -25 -55 -60c0 -34 22 -59 55 -59zM208 -12c-81 0 -132 46 -132 132v295c0 39 -3 42 -29 56l-37 20v18l189 20l11 -9v-369
c0 -59 25 -85 76 -85c41 0 81 15 110 25v324c0 39 -3 43 -29 56l-37 20v18l189 20l11 -9v-407c0 -48 4 -54 31 -65l33 -15v-19l-186 -26l-9 7l2 65h-5c-52 -37 -115 -72 -188 -72z" />
    <glyph glyph-name="utilde" unicode="&#x169;" horiz-adv-x="604" 
d="M208 -12c-81 0 -132 46 -132 132v295c0 39 -3 42 -29 56l-37 20v18l189 20l11 -9v-369c0 -59 25 -85 76 -85c41 0 81 15 110 25v324c0 39 -3 43 -29 56l-37 20v18l189 20l11 -9v-407c0 -48 4 -54 31 -65l33 -15v-19l-186 -26l-9 7l2 65h-5c-52 -37 -115 -72 -188 -72z
M166 572l-22 11c30 70 49 115 95 115c45 0 112 -23 155 -23c20 0 33 12 52 43l22 -11c-29 -70 -47 -115 -95 -115c-45 0 -113 23 -155 23c-21 0 -33 -12 -52 -43z" />
    <glyph glyph-name="wacute" unicode="&#x1e83;" horiz-adv-x="808" 
d="M342 578l-7 16l142 119c16 14 31 20 46 20c28 0 49 -26 49 -53c0 -20 -11 -43 -42 -52zM223 0l-151 412c-19 52 -30 65 -57 74l-21 6v23h259v-23l-24 -6c-20 -6 -25 -15 -25 -31c0 -14 6 -34 14 -60l82 -251h5l81 234l-11 34c-19 53 -29 67 -51 74l-21 6v23h250v-23
l-27 -7c-19 -5 -25 -16 -25 -35c0 -13 4 -32 12 -55l84 -251h5l80 251c8 27 12 43 12 56c0 18 -8 29 -29 34l-27 7v23h176v-23l-23 -6c-26 -8 -35 -26 -57 -85l-144 -401h-70l-110 316h-3l-115 -316h-69z" />
    <glyph glyph-name="wcircumflex" unicode="&#x175;" horiz-adv-x="808" 
d="M296 573l-10 15l122 140h45l123 -140l-10 -15l-135 64zM223 0l-151 412c-19 52 -30 65 -57 74l-21 6v23h259v-23l-24 -6c-20 -6 -25 -15 -25 -31c0 -14 6 -34 14 -60l82 -251h5l81 234l-11 34c-19 53 -29 67 -51 74l-21 6v23h250v-23l-27 -7c-19 -5 -25 -16 -25 -35
c0 -13 4 -32 12 -55l84 -251h5l80 251c8 27 12 43 12 56c0 18 -8 29 -29 34l-27 7v23h176v-23l-23 -6c-26 -8 -35 -26 -57 -85l-144 -401h-70l-110 316h-3l-115 -316h-69z" />
    <glyph glyph-name="wdieresis" unicode="&#x1e85;" horiz-adv-x="808" 
d="M331 581c-37 0 -68 29 -68 67c0 39 31 67 68 67c39 0 69 -28 69 -67c0 -38 -30 -67 -69 -67zM531 581c-39 0 -69 29 -69 67c0 39 30 67 69 67c37 0 68 -28 68 -67c0 -38 -31 -67 -68 -67zM223 0l-151 412c-19 52 -30 65 -57 74l-21 6v23h259v-23l-24 -6
c-20 -6 -25 -15 -25 -31c0 -14 6 -34 14 -60l82 -251h5l81 234l-11 34c-19 53 -29 67 -51 74l-21 6v23h250v-23l-27 -7c-19 -5 -25 -16 -25 -35c0 -13 4 -32 12 -55l84 -251h5l80 251c8 27 12 43 12 56c0 18 -8 29 -29 34l-27 7v23h176v-23l-23 -6c-26 -8 -35 -26 -57 -85
l-144 -401h-70l-110 316h-3l-115 -316h-69z" />
    <glyph glyph-name="wgrave" unicode="&#x1e81;" horiz-adv-x="808" 
d="M223 0l-151 412c-19 52 -30 65 -57 74l-21 6v23h259v-23l-24 -6c-20 -6 -25 -15 -25 -31c0 -14 6 -34 14 -60l82 -251h5l81 234l-11 34c-19 53 -29 67 -51 74l-21 6v23h250v-23l-27 -7c-19 -5 -25 -16 -25 -35c0 -13 4 -32 12 -55l84 -251h5l80 251c8 27 12 43 12 56
c0 18 -8 29 -29 34l-27 7v23h176v-23l-23 -6c-26 -8 -35 -26 -57 -85l-144 -401h-70l-110 316h-3l-115 -316h-69zM528 578l-187 50c-31 9 -43 32 -43 52c0 27 21 53 49 53c15 0 31 -6 47 -20l142 -119z" />
    <glyph glyph-name="ycircumflex" unicode="&#x177;" horiz-adv-x="535" 
d="M111 -207c-59 0 -95 28 -95 68c0 35 23 55 58 55c37 0 53 -17 62 -47c4 -15 8 -19 19 -19c21 0 46 27 80 109l13 30l-177 422c-26 60 -31 67 -54 75l-21 6v23h265v-23l-27 -7c-20 -5 -29 -14 -29 -35c0 -14 5 -32 14 -55l95 -247h4l91 247c9 25 14 45 14 59
c0 19 -10 26 -30 31l-28 7v23h176v-23l-25 -7c-24 -8 -29 -22 -54 -84l-180 -447c-36 -91 -73 -161 -171 -161zM170 573l-10 15l122 140h45l123 -140l-10 -15l-135 64z" />
    <glyph glyph-name="ygrave" unicode="&#x1ef3;" horiz-adv-x="535" 
d="M111 -207c-59 0 -95 28 -95 68c0 35 23 55 58 55c37 0 53 -17 62 -47c4 -15 8 -19 19 -19c21 0 46 27 80 109l13 30l-177 422c-26 60 -31 67 -54 75l-21 6v23h265v-23l-27 -7c-20 -5 -29 -14 -29 -35c0 -14 5 -32 14 -55l95 -247h4l91 247c9 25 14 45 14 59
c0 19 -10 26 -30 31l-28 7v23h176v-23l-25 -7c-24 -8 -29 -22 -54 -84l-180 -447c-36 -91 -73 -161 -171 -161zM403 578l-187 50c-31 9 -43 32 -43 52c0 27 21 53 49 53c15 0 31 -6 47 -20l142 -119z" />
    <glyph glyph-name="zacute" unicode="&#x17a;" horiz-adv-x="476" 
d="M165 578l-7 16l142 119c16 14 31 20 46 20c28 0 49 -26 49 -53c0 -20 -11 -43 -42 -52zM15 0v34l291 440v4h-66c-75 0 -89 -5 -111 -30c-24 -29 -38 -54 -64 -101h-23l9 168h409v-32l-292 -442v-4h63c97 0 115 7 139 39c23 32 43 63 61 101h24l-14 -177h-426z" />
    <glyph glyph-name="zdotaccent" unicode="&#x17c;" horiz-adv-x="476" 
d="M15 0v34l291 440v4h-66c-75 0 -89 -5 -111 -30c-24 -29 -38 -54 -64 -101h-23l9 168h409v-32l-292 -442v-4h63c97 0 115 7 139 39c23 32 43 63 61 101h24l-14 -177h-426zM253 575c-39 0 -71 30 -71 68c0 39 32 68 71 68c40 0 72 -29 72 -68c0 -38 -32 -68 -72 -68z" />
    <glyph glyph-name="zacute.pl" horiz-adv-x="476" 
d="M15 0v34l291 440v4h-66c-75 0 -89 -5 -111 -30c-24 -29 -38 -54 -64 -101h-23l9 168h409v-32l-292 -442v-4h63c97 0 115 7 139 39c23 32 43 63 61 101h24l-14 -177h-426zM238 569l-15 10l44 142c8 25 22 45 50 45c26 0 57 -23 57 -53c0 -13 -4 -27 -19 -40z" />
    <glyph glyph-name="oneeighth" unicode="&#x215b;" horiz-adv-x="758" 
d="M16 315v23l23 4c24 4 27 6 27 42v213l-49 5v23c58 10 109 37 140 73l20 -4v-310c0 -36 5 -38 28 -42l22 -4v-23h-211zM56 -50l519 764h55l-519 -764h-55zM586 -7c-91 0 -153 36 -153 94c0 38 33 70 83 90v2c-42 22 -65 53 -65 94c0 71 69 112 142 112
c68 0 133 -27 133 -87c0 -35 -36 -63 -73 -78v-3c58 -27 88 -57 88 -107c0 -64 -66 -117 -155 -117zM626 230c14 14 23 35 23 63c0 43 -22 63 -60 63c-35 0 -61 -18 -61 -49c0 -32 25 -49 98 -77zM592 22c39 0 68 18 68 55c0 36 -29 50 -120 88c-15 -16 -25 -38 -25 -65
c0 -53 26 -78 77 -78z" />
    <glyph glyph-name="onethird" unicode="&#x2153;" horiz-adv-x="759" 
d="M16 315v23l23 4c24 4 27 6 27 42v213l-49 5v23c58 10 109 37 140 73l20 -4v-310c0 -36 5 -38 28 -42l22 -4v-23h-211zM59 -50l519 764h55l-519 -764h-55zM576 -7c-83 0 -127 27 -127 69c0 25 16 38 40 38c27 0 44 -11 50 -49c5 -26 10 -31 38 -31c42 0 58 32 58 84
c0 64 -27 77 -73 77h-28v31h24c47 0 68 20 68 75c0 50 -18 70 -46 70c-20 0 -26 -4 -28 -24c-4 -30 -15 -49 -48 -49c-25 0 -41 16 -41 37c0 40 51 64 127 64c83 0 135 -32 135 -91c0 -40 -27 -78 -100 -91v-2c67 -4 116 -34 116 -96c0 -64 -50 -112 -165 -112z" />
    <glyph glyph-name="threeeighths" unicode="&#x215c;" horiz-adv-x="804" 
d="M150 309c-83 0 -127 27 -127 68c0 26 16 38 40 38c27 0 44 -11 50 -48c5 -26 10 -32 38 -32c42 0 58 32 58 85c0 63 -27 76 -73 76h-28v32h24c47 0 68 19 68 74c0 50 -17 71 -45 71c-21 0 -26 -4 -29 -25c-4 -30 -15 -48 -48 -48c-25 0 -40 16 -40 36c0 40 51 64 126 64
c83 0 135 -32 135 -90c0 -41 -27 -79 -100 -92v-2c67 -4 117 -34 117 -96c0 -64 -51 -111 -166 -111zM112 -50l518 764h55l-518 -764h-55zM632 -7c-91 0 -153 36 -153 94c0 38 33 70 83 90v2c-42 22 -65 53 -65 94c0 71 69 112 142 112c68 0 133 -27 133 -87
c0 -35 -36 -63 -73 -78v-3c58 -27 88 -57 88 -107c0 -64 -66 -117 -155 -117zM672 230c13 14 23 35 23 63c0 43 -23 63 -61 63c-35 0 -60 -18 -60 -49c0 -32 25 -49 98 -77zM638 22c39 0 68 18 68 55c0 36 -29 50 -120 88c-15 -16 -25 -38 -25 -65c0 -53 26 -78 77 -78z" />
    <glyph glyph-name="fiveeighths" unicode="&#x215d;" horiz-adv-x="785" 
d="M126 309c-78 0 -116 30 -116 67c0 22 17 36 41 36c31 0 42 -15 48 -48c5 -22 10 -28 34 -28c45 0 67 27 67 69c0 53 -38 76 -95 76c-28 0 -47 -5 -60 -9l-9 5l24 216h164c19 0 22 6 36 33h21l-12 -106h-187l-7 -67c11 4 31 9 66 9c89 0 150 -39 150 -121
c0 -72 -60 -132 -165 -132zM91 -50l518 764h55l-518 -764h-55zM613 -7c-91 0 -153 36 -153 94c0 38 33 70 83 90v2c-42 22 -65 53 -65 94c0 71 69 112 142 112c68 0 133 -27 133 -87c0 -35 -36 -63 -73 -78v-3c58 -27 88 -57 88 -107c0 -64 -66 -117 -155 -117zM653 230
c13 14 23 35 23 63c0 43 -23 63 -61 63c-34 0 -60 -18 -60 -49c0 -32 25 -49 98 -77zM619 22c39 0 68 18 68 55c0 36 -29 50 -120 88c-15 -16 -25 -38 -25 -65c0 -53 26 -78 77 -78z" />
    <glyph glyph-name="twothirds" unicode="&#x2154;" horiz-adv-x="815" 
d="M17 315v50c52 40 84 67 120 106c37 40 58 79 58 131c0 54 -19 70 -52 70c-21 0 -23 -5 -26 -29c-5 -40 -18 -56 -53 -56c-26 0 -43 16 -43 40c0 38 51 73 133 73c89 0 150 -37 150 -109c0 -66 -72 -127 -205 -195v-3h132c27 0 31 8 48 47h22l-8 -125h-276zM119 -50
l519 764h55l-519 -764h-55zM632 -7c-83 0 -127 27 -127 69c0 25 16 38 40 38c27 0 44 -11 50 -49c5 -26 10 -31 38 -31c42 0 58 32 58 84c0 64 -27 77 -73 77h-28v31h24c47 0 68 20 68 75c0 50 -17 70 -46 70c-20 0 -26 -4 -28 -24c-4 -30 -15 -49 -48 -49
c-25 0 -40 16 -40 37c0 40 50 64 126 64c83 0 135 -32 135 -91c0 -40 -27 -78 -100 -91v-2c67 -4 116 -34 116 -96c0 -64 -50 -112 -165 -112z" />
    <glyph glyph-name="seveneighths" unicode="&#x215e;" horiz-adv-x="747" 
d="M48 315c28 127 102 219 182 303h-160c-25 0 -28 -4 -45 -47h-22l11 122h267v-47c-78 -103 -108 -206 -117 -331h-116zM37 -50l518 764h55l-518 -764h-55zM575 -7c-91 0 -153 36 -153 94c0 38 33 70 83 90v2c-42 22 -66 53 -66 94c0 71 70 112 143 112
c68 0 133 -27 133 -87c0 -35 -36 -63 -74 -78v-3c59 -27 89 -57 89 -107c0 -64 -66 -117 -155 -117zM615 230c13 14 23 35 23 63c0 43 -23 63 -61 63c-35 0 -60 -18 -60 -49c0 -32 25 -49 98 -77zM581 22c39 0 68 18 68 55c0 36 -29 50 -120 88c-16 -16 -25 -38 -25 -65
c0 -53 25 -78 77 -78z" />
    <glyph glyph-name="uni24C5" unicode="&#x24c5;" horiz-adv-x="788" 
d="M416 166v-19h-191v19l12 3c20 5 26 9 26 48v259c0 39 -5 41 -26 47l-12 4v18h184c110 0 166 -39 166 -118c0 -73 -47 -121 -126 -121c-20 0 -40 3 -50 7v20c40 4 64 26 64 87c0 71 -18 98 -64 98c-8 0 -22 -1 -32 -5v-295c0 -42 4 -43 28 -48zM393 -16
c-202 0 -356 162 -356 360s154 358 356 358c201 0 358 -160 358 -358s-157 -360 -358 -360zM393 22c182 0 312 145 312 322s-130 321 -312 321c-183 0 -312 -144 -312 -321s129 -322 312 -322z" />
    <glyph glyph-name="dollar.old" horiz-adv-x="491" 
d="M220 -112v99c-144 4 -205 51 -205 117c0 32 22 54 56 54c40 0 60 -19 67 -80c3 -36 15 -53 82 -56v252c-140 56 -188 118 -188 208c0 98 79 175 193 185v75h39v-73c132 -3 186 -56 186 -107c0 -33 -24 -55 -59 -55c-40 0 -60 22 -66 81c-4 32 -16 44 -61 46v-234
c148 -62 200 -117 200 -216c0 -104 -84 -187 -205 -196v-100h-39zM356 135c0 52 -24 89 -97 123v-235c67 8 97 51 97 112zM131 533c0 -52 23 -82 94 -116v215c-61 -8 -94 -48 -94 -99z" />
    <glyph glyph-name="Euro.old" horiz-adv-x="570" 
d="M16 363v40h67c28 187 158 267 289 267c100 0 176 -39 176 -107c0 -34 -24 -57 -60 -57c-40 0 -62 22 -69 82c-5 38 -15 46 -61 46c-79 0 -130 -60 -139 -231h209l-8 -40h-202v-17c0 -21 0 -39 1 -57h187l-6 -40h-178c16 -145 70 -194 175 -194c59 0 107 21 144 44v-32
c-32 -34 -97 -79 -195 -79c-140 0 -243 84 -265 261h-65v40h62c-1 11 -1 22 -1 34c0 14 0 27 1 40h-62z" />
    <glyph glyph-name="sterling.old" horiz-adv-x="508" 
d="M40 321v39h56c-11 39 -21 79 -21 114c0 116 89 196 241 196c102 0 164 -36 164 -95c0 -36 -25 -58 -58 -58c-41 0 -60 25 -70 74c-10 37 -16 43 -44 43c-59 0 -93 -34 -93 -128c0 -38 7 -95 13 -146h152v-39h-149c1 -13 2 -24 2 -34c0 -81 -44 -134 -119 -179v-6h264
c39 0 50 7 78 75h25l-22 -177h-439v72c69 42 105 86 105 157c0 25 -8 57 -18 92h-67z" />
    <glyph glyph-name="yen.old" horiz-adv-x="582" 
d="M56 287v40h157l-125 222c-33 61 -41 72 -64 79l-20 7v23h285v-23l-24 -6c-29 -6 -39 -18 -39 -36c0 -13 6 -30 18 -54l95 -189h4l85 185c12 25 17 44 17 57c0 19 -10 28 -39 36l-22 7v23h188v-23l-19 -7c-29 -9 -38 -23 -70 -88l-106 -213h157v-40h-169v-69h169v-39h-169
v-84c0 -53 4 -57 36 -64l38 -8v-23h-286v23l38 8c31 7 37 11 37 64v84h-172v39h172v69h-172z" />
    <glyph glyph-name="zero.old" 
d="M298 -13c-132 0 -269 91 -269 299c0 220 148 317 276 317c127 0 269 -96 269 -305c0 -218 -149 -311 -276 -311zM302 24c92 0 131 75 131 260c0 213 -44 282 -131 282c-91 0 -132 -74 -132 -266c0 -206 45 -276 132 -276z" />
    <glyph glyph-name="one.old" horiz-adv-x="360" 
d="M26 0v24l45 7c32 5 40 13 40 59v381l-84 3v24c87 17 154 47 203 98l20 -5v-501c0 -46 11 -54 38 -59l42 -7v-24h-304z" />
    <glyph glyph-name="two.old" horiz-adv-x="495" 
d="M459 104l-10 -104h-435v66c72 55 142 106 193 158c78 79 110 142 110 220c0 88 -47 123 -102 123c-45 0 -54 -14 -57 -45c-4 -56 -26 -81 -70 -81c-39 0 -59 24 -59 59c0 51 63 103 198 103c140 0 227 -64 227 -170c0 -117 -105 -207 -319 -325v-4h324z" />
    <glyph glyph-name="three.old" horiz-adv-x="518" 
d="M210 -125c-136 0 -197 47 -197 111c0 31 21 57 58 57c40 0 61 -21 70 -70c10 -48 19 -61 73 -61c89 0 120 68 120 176c0 106 -37 146 -132 146h-51v39h42c89 0 126 42 126 148c0 97 -35 146 -101 146c-40 0 -47 -12 -52 -48c-5 -59 -31 -79 -72 -79c-36 0 -59 21 -59 56
c0 57 62 107 196 107c146 0 229 -70 229 -170c0 -80 -48 -146 -166 -171v-3c116 -10 192 -70 192 -174c0 -108 -88 -210 -276 -210z" />
    <glyph glyph-name="four.old" horiz-adv-x="562" 
d="M303 -112v188h-287v47l342 467h83v-449h106l-10 -65h-96v-188h-138zM80 141h223v302h-3l-220 -299v-3z" />
    <glyph glyph-name="five.old" horiz-adv-x="512" 
d="M461 590l-13 -109h-312l-17 -153c29 8 70 14 110 14c145 0 247 -81 247 -224c0 -138 -118 -243 -273 -243c-110 0 -184 40 -184 106c0 36 23 58 60 58c43 0 63 -19 72 -77c7 -38 18 -50 62 -50c79 0 144 61 144 164c0 99 -70 149 -171 149c-47 0 -87 -8 -115 -18l-9 8
l41 375h358z" />
    <glyph glyph-name="six.old" horiz-adv-x="576" 
d="M293 -13c-156 0 -260 106 -260 321c0 272 151 399 338 399c105 0 162 -42 162 -94c0 -37 -23 -58 -60 -58c-41 0 -62 19 -70 71c-7 33 -13 44 -46 44c-83 0 -170 -64 -180 -295c42 28 93 47 157 47c126 0 210 -71 210 -207c0 -131 -97 -228 -251 -228zM296 24
c78 0 109 61 109 181c0 114 -39 165 -118 165c-44 0 -81 -11 -111 -29v-32c0 -169 10 -285 120 -285z" />
    <glyph glyph-name="seven.old" horiz-adv-x="492" 
d="M107 -112c57 252 187 439 313 592h-309c-39 0 -44 -10 -69 -76h-24l17 186h451v-63c-134 -192 -198 -385 -230 -639h-149z" />
    <glyph glyph-name="eight.old" horiz-adv-x="560" 
d="M279 -13c-129 0 -247 58 -247 174c0 74 55 130 153 175v3c-80 46 -123 105 -123 178c0 106 96 190 224 190c107 0 215 -55 215 -160c0 -70 -60 -116 -134 -155v-3c100 -55 159 -106 159 -198c0 -108 -100 -204 -247 -204zM285 24c82 0 134 44 134 120
c0 77 -85 114 -207 178c-32 -31 -73 -72 -73 -149c0 -96 54 -149 146 -149zM338 405c30 31 61 69 61 138c0 83 -48 127 -118 127c-72 0 -117 -43 -117 -106c0 -70 79 -113 174 -159z" />
    <glyph glyph-name="nine.old" horiz-adv-x="575" 
d="M279 603c148 0 263 -99 263 -322c0 -283 -152 -406 -333 -406c-104 0 -163 40 -163 96c0 33 21 58 60 58c40 0 60 -18 72 -74c6 -30 13 -43 45 -43c100 0 167 77 175 303c-39 -27 -94 -50 -155 -50c-123 0 -212 72 -212 205c0 135 97 233 248 233zM277 566
c-77 0 -107 -69 -107 -185c0 -111 41 -163 117 -163c43 0 82 11 112 30v32c0 180 -15 286 -122 286z" />
    <glyph glyph-name="percent.old" horiz-adv-x="730" 
d="M190 358c44 0 64 33 64 135c0 111 -21 146 -64 146c-42 0 -65 -33 -65 -138c0 -106 22 -143 65 -143zM188 327c-79 0 -161 53 -161 166c0 123 96 175 165 175c75 0 162 -54 162 -168c0 -119 -93 -173 -166 -173zM84 -48l490 726h53l-491 -726h-52zM540 18
c43 0 64 35 64 136c0 110 -22 145 -64 145c-43 0 -65 -32 -65 -136c0 -108 20 -145 65 -145zM537 -12c-78 0 -161 52 -161 166c0 122 97 175 166 175c74 0 162 -55 162 -167c0 -120 -93 -174 -167 -174z" />
    <glyph glyph-name="perthousand.old" horiz-adv-x="1095" 
d="M188 327c-79 0 -161 53 -161 166c0 123 96 175 165 175c75 0 162 -54 162 -168c0 -119 -93 -173 -166 -173zM190 358c44 0 64 33 64 135c0 111 -21 146 -64 146c-42 0 -65 -33 -65 -138c0 -106 22 -143 65 -143zM537 -12c-78 0 -161 52 -161 166c0 122 97 175 166 175
c74 0 162 -55 162 -167c0 -120 -93 -174 -167 -174zM540 18c43 0 64 35 64 136c0 110 -22 145 -64 145c-43 0 -65 -32 -65 -136c0 -108 20 -145 65 -145zM902 -12c-78 0 -162 52 -162 166c0 122 97 175 165 175c76 0 163 -55 163 -167c0 -120 -93 -174 -166 -174zM903 18
c45 0 65 35 65 136c0 110 -21 145 -65 145c-42 0 -63 -32 -63 -136c0 -108 20 -145 63 -145zM84 -48l490 726h53l-491 -726h-52z" />
    <glyph glyph-name="plus.old" horiz-adv-x="464" 
d="M202 88v181h-166v52h166v182h60v-182h166v-52h-166v-181h-60z" />
    <glyph glyph-name="minus.old" horiz-adv-x="464" 
d="M36 269v52h392v-52h-392z" />
    <glyph glyph-name="multiply.old" horiz-adv-x="438" 
d="M80 105l-40 38l142 149l-139 147l40 38l136 -145l138 145l38 -38l-138 -147l141 -149l-39 -38l-140 148z" />
    <glyph glyph-name="divide.old" horiz-adv-x="464" 
d="M232 73c-38 0 -68 31 -68 67c0 39 30 68 68 68c37 0 68 -29 68 -68c0 -36 -31 -67 -68 -67zM232 383c-38 0 -68 31 -68 67c0 39 30 68 68 68c37 0 68 -29 68 -68c0 -36 -31 -67 -68 -67zM36 269v52h392v-52h-392z" />
    <glyph glyph-name="equal.old" horiz-adv-x="505" 
d="M36 194v52h433v-52h-433zM36 344v52h433v-52h-433z" />
    <glyph glyph-name="less.old" horiz-adv-x="464" 
d="M428 96l-392 170v49l392 170v-58l-329 -136l329 -136v-59z" />
    <glyph glyph-name="greater.old" horiz-adv-x="464" 
d="M428 266l-392 -170v59l329 136l-329 136v58l392 -170v-49z" />
    <glyph glyph-name="plusminus.old" horiz-adv-x="464" 
d="M36 0v51h392v-51h-392zM199 138v167h-164v50h164v166h58v-166h164v-50h-164v-167h-58z" />
    <glyph glyph-name="notequal.old" horiz-adv-x="505" 
d="M36 344v51h247l74 126h57l-74 -126h129v-51h-159l-58 -99h217v-51h-247l-74 -126h-56l73 126h-129v51h159l58 99h-217z" />
    <glyph glyph-name="approxequal.old" horiz-adv-x="505" 
d="M424 300l45 -21c-26 -58 -55 -101 -116 -101s-154 45 -205 45c-31 0 -54 -34 -66 -66l-46 21c20 53 55 99 115 99s151 -45 204 -45c33 0 53 33 69 68zM424 452l45 -21c-26 -57 -55 -100 -116 -100s-154 45 -205 45c-31 0 -54 -34 -66 -66l-46 20c20 54 55 100 115 100
s151 -45 204 -45c33 0 53 32 69 67z" />
    <glyph glyph-name="lessequal.old" horiz-adv-x="464" 
d="M36 0v51h392v-51h-392zM428 136l-392 160v49l392 161v-58l-329 -127l329 -126v-59z" />
    <glyph glyph-name="greaterequal.old" horiz-adv-x="464" 
d="M428 51v-51h-392v51h392zM428 296l-392 -160v59l329 126l-329 127v58l392 -161v-49z" />
    <glyph glyph-name="numbersign.old" horiz-adv-x="512" 
d="M86 0l35 177h-88l14 88h92l26 131h-88l15 87h91l34 175h46l-35 -175h119l34 175h46l-34 -175h88l-15 -87h-92l-26 -131h89l-15 -88h-91l-35 -177h-46l35 177h-118l-35 -177h-46zM185 265h118l25 131h-117z" />
    <glyph glyph-name="zero.num" horiz-adv-x="415" 
d="M205 309c-94 0 -178 64 -178 191c0 142 108 200 182 200c87 0 180 -67 180 -194c0 -135 -99 -197 -184 -197zM208 338c49 0 68 42 68 161c0 137 -23 172 -68 172c-42 0 -68 -32 -68 -163c0 -130 20 -170 68 -170z" />
    <glyph glyph-name="one.num" horiz-adv-x="250" 
d="M20 315v23l23 4c24 4 27 6 27 42v213l-49 5v23c58 10 109 37 140 73l20 -4v-310c0 -36 5 -38 28 -42l21 -4v-23h-210z" />
    <glyph glyph-name="two.num" horiz-adv-x="328" 
d="M18 315v50c52 40 84 67 120 106c37 40 58 79 58 131c0 54 -19 70 -52 70c-21 0 -23 -5 -26 -29c-5 -40 -19 -56 -53 -56c-26 0 -43 16 -43 40c0 38 51 73 133 73c89 0 150 -37 150 -109c0 -66 -72 -127 -205 -195v-3h132c27 0 31 8 48 47h22l-8 -125h-276z" />
    <glyph glyph-name="three.num" horiz-adv-x="333" 
d="M143 309c-83 0 -127 27 -127 68c0 26 16 38 40 38c27 0 44 -11 50 -48c5 -26 10 -32 38 -32c42 0 58 32 58 85c0 63 -27 76 -73 76h-28v32h24c47 0 68 19 68 74c0 50 -17 71 -45 71c-21 0 -26 -4 -29 -25c-4 -30 -15 -48 -48 -48c-25 0 -40 16 -40 36c0 40 51 64 126 64
c83 0 135 -32 135 -90c0 -41 -27 -79 -100 -92v-2c67 -4 117 -34 117 -96c0 -64 -51 -111 -166 -111z" />
    <glyph glyph-name="four.num" horiz-adv-x="358" 
d="M130 315v23l20 4c22 4 27 6 27 42v35h-161v32l200 242h68v-233h56l-5 -41h-51v-35c0 -36 6 -38 27 -42l19 -4v-23h-200zM62 460h115v140h-2l-113 -137v-3z" />
    <glyph glyph-name="five.num" horiz-adv-x="322" 
d="M135 309c-78 0 -116 30 -116 67c0 22 17 36 41 36c31 0 42 -15 48 -48c5 -22 10 -28 34 -28c45 0 67 27 67 69c0 53 -38 76 -95 76c-28 0 -47 -5 -60 -9l-9 5l24 216h164c19 0 22 6 36 33h21l-12 -106h-187l-7 -67c11 4 31 9 66 9c89 0 150 -39 150 -121
c0 -72 -61 -132 -165 -132z" />
    <glyph glyph-name="six.num" horiz-adv-x="367" 
d="M186 309c-86 0 -163 51 -163 181c0 153 106 210 204 210c65 0 103 -22 103 -57c0 -23 -16 -38 -41 -38c-33 0 -42 16 -48 44c-4 19 -8 24 -25 24c-40 0 -79 -32 -83 -150c18 10 49 20 86 20c74 0 126 -35 126 -109c0 -72 -56 -125 -159 -125zM187 337c39 0 51 24 51 87
c0 68 -22 83 -57 83c-21 0 -39 -5 -49 -11v-11c0 -104 8 -148 55 -148z" />
    <glyph glyph-name="seven.num" horiz-adv-x="320" 
d="M67 315c28 127 102 219 182 303h-160c-25 0 -28 -4 -45 -47h-22l11 122h267v-47c-78 -103 -108 -206 -117 -331h-116z" />
    <glyph glyph-name="eight.num" horiz-adv-x="351" 
d="M174 308c-91 0 -153 37 -153 94c0 39 33 71 83 90v3c-42 21 -65 53 -65 93c0 71 69 112 142 112c68 0 133 -27 133 -86c0 -35 -36 -63 -73 -79v-2c58 -28 88 -58 88 -107c0 -64 -66 -118 -155 -118zM180 337c39 0 68 19 68 55s-29 51 -120 88c-15 -16 -25 -37 -25 -64
c0 -54 26 -79 77 -79zM214 546c13 13 23 34 23 62c0 44 -23 63 -61 63c-35 0 -60 -18 -60 -48c0 -32 25 -49 98 -77z" />
    <glyph glyph-name="nine.num" horiz-adv-x="366" 
d="M140 309c-66 0 -105 22 -105 57c0 23 16 37 44 37c29 0 39 -14 46 -44c4 -19 9 -23 26 -23c53 0 80 34 82 151c-18 -10 -48 -21 -87 -21c-73 0 -124 35 -124 112c0 70 58 122 159 122c88 0 163 -52 163 -180c0 -147 -91 -211 -204 -211zM187 502c16 0 33 4 47 11v13
c0 105 -9 146 -55 146c-36 0 -51 -24 -51 -88s21 -82 59 -82z" />
    <glyph glyph-name="zero.den" horiz-adv-x="415" 
d="M205 -7c-94 0 -178 64 -178 191c0 143 108 201 182 201c87 0 180 -67 180 -194c0 -136 -99 -198 -184 -198zM208 23c49 0 68 41 68 160c0 138 -23 173 -68 173c-42 0 -68 -33 -68 -164c0 -130 20 -169 68 -169z" />
    <glyph glyph-name="one.den" horiz-adv-x="250" 
d="M20 0v22l23 4c24 5 27 7 27 43v213l-49 4v23c58 11 109 38 140 74l20 -4v-310c0 -36 5 -39 28 -43l21 -4v-22h-210z" />
    <glyph glyph-name="two.den" horiz-adv-x="328" 
d="M18 0v49c52 40 84 67 120 106c37 40 58 80 58 132c0 54 -19 70 -52 70c-21 0 -23 -6 -26 -30c-5 -39 -19 -55 -53 -55c-26 0 -43 15 -43 39c0 39 51 74 133 74c89 0 150 -37 150 -110c0 -66 -72 -126 -205 -195v-3h132c27 0 31 9 48 47h22l-8 -124h-276z" />
    <glyph glyph-name="three.den" horiz-adv-x="333" 
d="M143 -7c-83 0 -127 27 -127 69c0 25 16 38 40 38c27 0 44 -11 50 -49c5 -26 10 -31 38 -31c42 0 58 32 58 84c0 64 -27 77 -73 77h-28v31h24c47 0 68 20 68 75c0 50 -17 70 -45 70c-21 0 -26 -4 -29 -24c-4 -30 -15 -49 -48 -49c-25 0 -40 16 -40 37c0 40 51 64 126 64
c83 0 135 -32 135 -91c0 -40 -27 -78 -100 -91v-2c67 -4 117 -34 117 -96c0 -64 -51 -112 -166 -112z" />
    <glyph glyph-name="four.den" horiz-adv-x="358" 
d="M130 0v22l20 4c22 5 27 7 27 43v35h-161v32l200 242h68v-233h56l-5 -41h-51v-35c0 -36 6 -39 27 -43l19 -4v-22h-200zM62 145h115v140h-2l-113 -137v-3z" />
    <glyph glyph-name="five.den" horiz-adv-x="322" 
d="M135 -7c-78 0 -116 30 -116 67c0 23 17 37 41 37c31 0 42 -15 48 -49c5 -22 10 -27 34 -27c45 0 67 26 67 69c0 53 -38 76 -95 76c-28 0 -47 -5 -60 -10l-9 6l24 216l164 -1c19 0 22 7 36 33h21l-12 -106l-187 1l-7 -67c11 3 31 8 66 8c89 0 150 -39 150 -121
c0 -71 -61 -132 -165 -132z" />
    <glyph glyph-name="six.den" horiz-adv-x="367" 
d="M186 -7c-86 0 -163 51 -163 181c0 153 106 211 204 211c65 0 103 -22 103 -58c0 -22 -16 -37 -41 -37c-33 0 -42 16 -48 44c-4 19 -8 23 -25 23c-40 0 -79 -31 -83 -150c18 10 49 21 86 21c74 0 126 -35 126 -110c0 -72 -56 -125 -159 -125zM187 22c39 0 51 23 51 86
c0 68 -22 84 -57 84c-21 0 -39 -6 -49 -12v-10c0 -105 8 -148 55 -148z" />
    <glyph glyph-name="seven.den" horiz-adv-x="320" 
d="M67 0c28 127 102 219 182 303h-160c-25 0 -28 -4 -45 -47h-22l11 122h267v-47c-78 -104 -108 -207 -117 -331h-116z" />
    <glyph glyph-name="eight.den" horiz-adv-x="351" 
d="M174 -7c-91 0 -153 36 -153 94c0 38 33 70 83 90v2c-42 22 -65 53 -65 94c0 71 69 112 142 112c68 0 133 -27 133 -87c0 -35 -36 -63 -73 -78v-3c58 -27 88 -57 88 -107c0 -64 -66 -117 -155 -117zM214 230c13 14 23 35 23 63c0 43 -23 63 -61 63c-35 0 -60 -18 -60 -49
c0 -32 25 -49 98 -77zM180 22c39 0 68 18 68 55c0 36 -29 50 -120 88c-15 -16 -25 -38 -25 -65c0 -53 26 -78 77 -78z" />
    <glyph glyph-name="nine.den" horiz-adv-x="366" 
d="M181 385c88 0 163 -53 163 -181c0 -146 -91 -211 -204 -211c-66 0 -105 23 -105 58c0 23 16 37 44 37c29 0 39 -15 46 -44c4 -19 9 -23 26 -23c53 0 80 33 82 151c-18 -10 -48 -21 -87 -21c-73 0 -124 35 -124 111c0 70 58 123 159 123zM179 356c-36 0 -51 -23 -51 -87
s21 -82 59 -82c16 0 33 4 47 11v13c0 104 -9 145 -55 145z" />
    <glyph glyph-name="zero.sub" horiz-adv-x="415" 
d="M205 -56c-94 0 -178 64 -178 191c0 143 108 201 182 201c87 0 180 -67 180 -194c0 -136 -99 -198 -184 -198zM208 -26c49 0 68 41 68 160c0 138 -23 173 -68 173c-42 0 -68 -33 -68 -164c0 -130 20 -169 68 -169z" />
    <glyph glyph-name="one.sub" horiz-adv-x="250" 
d="M20 -49v22l23 4c24 5 27 7 27 43v213l-49 4v23c58 11 109 38 140 74l20 -4v-310c0 -36 5 -39 28 -43l21 -4v-22h-210z" />
    <glyph glyph-name="two.sub" horiz-adv-x="328" 
d="M18 -49v49c52 40 84 67 120 106c37 40 58 80 58 132c0 54 -19 70 -52 70c-21 0 -23 -6 -26 -30c-5 -39 -19 -55 -53 -55c-26 0 -43 15 -43 39c0 39 51 74 133 74c89 0 150 -37 150 -110c0 -66 -72 -126 -205 -195v-3h132c27 0 31 9 48 47h22l-8 -124h-276z" />
    <glyph glyph-name="three.sub" horiz-adv-x="333" 
d="M143 -56c-83 0 -127 27 -127 69c0 25 16 38 40 38c27 0 44 -11 50 -49c5 -26 10 -31 38 -31c42 0 58 32 58 84c0 64 -27 77 -73 77h-28v31h24c47 0 68 20 68 75c0 50 -17 70 -45 70c-21 0 -26 -4 -29 -24c-4 -30 -15 -49 -48 -49c-25 0 -40 16 -40 37c0 40 51 64 126 64
c83 0 135 -32 135 -91c0 -40 -27 -78 -100 -91v-2c67 -4 117 -34 117 -96c0 -64 -51 -112 -166 -112z" />
    <glyph glyph-name="four.sub" horiz-adv-x="358" 
d="M130 -49v22l20 4c22 5 27 7 27 43v35h-161v32l200 242h68v-233h56l-5 -41h-51v-35c0 -36 6 -39 27 -43l19 -4v-22h-200zM62 96h115v140h-2l-113 -137v-3z" />
    <glyph glyph-name="five.sub" horiz-adv-x="322" 
d="M135 -56c-78 0 -116 30 -116 67c0 23 17 37 41 37c31 0 42 -15 48 -49c5 -22 10 -27 34 -27c45 0 67 26 67 69c0 53 -38 76 -95 76c-28 0 -47 -5 -60 -10l-9 6l24 216l164 -1c19 0 22 7 36 33h21l-12 -106l-187 1l-7 -67c11 3 31 8 66 8c89 0 150 -39 150 -121
c0 -71 -61 -132 -165 -132z" />
    <glyph glyph-name="six.sub" horiz-adv-x="367" 
d="M186 -56c-86 0 -163 51 -163 181c0 153 106 211 204 211c65 0 103 -22 103 -58c0 -22 -16 -37 -41 -37c-33 0 -42 16 -48 44c-4 19 -8 23 -25 23c-40 0 -79 -31 -83 -150c18 10 49 21 86 21c74 0 126 -35 126 -110c0 -72 -56 -125 -159 -125zM187 -27c39 0 51 23 51 86
c0 68 -22 84 -57 84c-21 0 -39 -6 -49 -12v-10c0 -105 8 -148 55 -148z" />
    <glyph glyph-name="seven.sub" horiz-adv-x="320" 
d="M67 -49c28 127 102 219 182 303h-160c-25 0 -28 -4 -45 -47h-22l11 122h267v-47c-78 -104 -108 -207 -117 -331h-116z" />
    <glyph glyph-name="eight.sub" horiz-adv-x="351" 
d="M174 -56c-91 0 -153 36 -153 94c0 38 33 70 83 90v2c-42 22 -65 53 -65 94c0 71 69 112 142 112c68 0 133 -27 133 -87c0 -35 -36 -63 -73 -78v-3c58 -27 88 -57 88 -107c0 -64 -66 -117 -155 -117zM214 181c13 14 23 35 23 63c0 43 -23 63 -61 63c-35 0 -60 -18 -60 -49
c0 -32 25 -49 98 -77zM180 -27c39 0 68 18 68 55c0 36 -29 50 -120 88c-15 -16 -25 -38 -25 -65c0 -53 26 -78 77 -78z" />
    <glyph glyph-name="nine.sub" horiz-adv-x="366" 
d="M181 336c88 0 163 -53 163 -181c0 -146 -91 -211 -204 -211c-66 0 -105 23 -105 58c0 23 16 37 44 37c29 0 39 -15 46 -44c4 -19 9 -23 26 -23c53 0 80 33 82 151c-18 -10 -48 -21 -87 -21c-73 0 -124 35 -124 111c0 70 58 123 159 123zM179 307c-36 0 -51 -23 -51 -87
s21 -82 59 -82c16 0 33 4 47 11v13c0 104 -9 145 -55 145z" />
    <glyph glyph-name="plus.sub" horiz-adv-x="350" 
d="M151 -17v135h-126v41h126v135h48v-135h126v-41h-126v-135h-48z" />
    <glyph glyph-name="minus.sub" horiz-adv-x="350" 
d="M25 159h300v-41h-300v41z" />
    <glyph glyph-name="zero.sup" horiz-adv-x="415" 
d="M205 399c-94 0 -178 64 -178 191c0 143 108 201 182 201c87 0 180 -67 180 -194c0 -136 -99 -198 -184 -198zM208 429c49 0 68 41 68 160c0 138 -23 173 -68 173c-42 0 -68 -33 -68 -164c0 -130 20 -169 68 -169z" />
    <glyph glyph-name="one.sup" horiz-adv-x="250" 
d="M20 406v22l23 4c24 5 27 7 27 43v213l-49 4v23c58 11 109 38 140 74l20 -4v-310c0 -36 5 -39 28 -43l21 -4v-22h-210z" />
    <glyph glyph-name="two.sup" horiz-adv-x="328" 
d="M18 406v49c52 40 84 67 120 106c37 40 58 80 58 132c0 54 -19 70 -52 70c-21 0 -23 -6 -26 -30c-5 -39 -19 -55 -53 -55c-26 0 -43 15 -43 39c0 39 51 74 133 74c89 0 150 -37 150 -110c0 -66 -72 -126 -205 -195v-3h132c27 0 31 9 48 47h22l-8 -124h-276z" />
    <glyph glyph-name="three.sup" horiz-adv-x="333" 
d="M143 399c-83 0 -127 27 -127 69c0 25 16 38 40 38c27 0 44 -11 50 -49c5 -26 10 -31 38 -31c42 0 58 32 58 84c0 64 -27 77 -73 77h-28v31h24c47 0 68 20 68 75c0 50 -17 70 -45 70c-21 0 -26 -4 -29 -24c-4 -30 -15 -49 -48 -49c-25 0 -40 16 -40 37c0 40 51 64 126 64
c83 0 135 -32 135 -91c0 -40 -27 -78 -100 -91v-2c67 -4 117 -34 117 -96c0 -64 -51 -112 -166 -112z" />
    <glyph glyph-name="four.sup" horiz-adv-x="358" 
d="M130 406v22l20 4c22 5 27 7 27 43v35h-161v32l200 242h68v-233h56l-5 -41h-51v-35c0 -36 6 -39 27 -43l19 -4v-22h-200zM62 551h115v140h-2l-113 -137v-3z" />
    <glyph glyph-name="five.sup" horiz-adv-x="322" 
d="M135 399c-78 0 -116 30 -116 67c0 23 17 37 41 37c31 0 42 -15 48 -49c5 -22 10 -27 34 -27c45 0 67 26 67 69c0 53 -38 76 -95 76c-28 0 -47 -5 -60 -10l-9 6l24 216l164 -1c19 0 22 7 36 33h21l-12 -106l-187 1l-7 -67c11 3 31 8 66 8c89 0 150 -39 150 -121
c0 -71 -61 -132 -165 -132z" />
    <glyph glyph-name="six.sup" horiz-adv-x="367" 
d="M186 399c-86 0 -163 51 -163 181c0 153 106 211 204 211c65 0 103 -22 103 -58c0 -22 -16 -37 -41 -37c-33 0 -42 16 -48 44c-4 19 -8 23 -25 23c-40 0 -79 -31 -83 -150c18 10 49 21 86 21c74 0 126 -35 126 -110c0 -72 -56 -125 -159 -125zM187 428c39 0 51 23 51 86
c0 68 -22 84 -57 84c-21 0 -39 -6 -49 -12v-10c0 -105 8 -148 55 -148z" />
    <glyph glyph-name="seven.sup" horiz-adv-x="320" 
d="M67 406c28 127 102 219 182 303h-160c-25 0 -28 -4 -45 -47h-22l11 122h267v-47c-78 -104 -108 -207 -117 -331h-116z" />
    <glyph glyph-name="eight.sup" horiz-adv-x="351" 
d="M174 399c-91 0 -153 36 -153 94c0 38 33 70 83 90v2c-42 22 -65 53 -65 94c0 71 69 112 142 112c68 0 133 -27 133 -87c0 -35 -36 -63 -73 -78v-3c58 -27 88 -57 88 -107c0 -64 -66 -117 -155 -117zM180 428c39 0 68 18 68 55c0 36 -29 50 -120 88
c-15 -16 -25 -38 -25 -65c0 -53 26 -78 77 -78zM214 636c13 14 23 35 23 63c0 43 -23 63 -61 63c-35 0 -60 -18 -60 -49c0 -32 25 -49 98 -77z" />
    <glyph glyph-name="nine.sup" horiz-adv-x="366" 
d="M140 399c-66 0 -105 23 -105 58c0 23 16 37 44 37c29 0 39 -15 46 -44c4 -19 9 -23 26 -23c53 0 80 33 82 151c-18 -10 -48 -21 -87 -21c-73 0 -124 35 -124 111c0 70 58 123 159 123c88 0 163 -53 163 -181c0 -146 -91 -211 -204 -211zM187 593c16 0 33 4 47 11v13
c0 104 -9 145 -55 145c-36 0 -51 -23 -51 -87s21 -82 59 -82z" />
    <glyph glyph-name="plus.sup" horiz-adv-x="350" 
d="M151 438v135h-126v41h126v135h48v-135h126v-41h-126v-135h-48z" />
    <glyph glyph-name="minus.sup" horiz-adv-x="350" 
d="M25 614h300v-41h-300v41z" />
    <glyph glyph-name="uni2033" unicode="&#x2033;" horiz-adv-x="391" 
d="M250 449l-26 170c-10 63 25 86 66 86c43 0 74 -36 50 -92l-70 -164h-20zM80 449l-26 170c-10 63 24 86 65 86c43 0 75 -36 51 -92l-70 -164h-20z" />
    <glyph glyph-name="uni2032" unicode="&#x2032;" horiz-adv-x="220" 
d="M79 449l-26 170c-11 63 25 86 66 86c43 0 74 -36 50 -92l-70 -164h-20z" />
    <glyph glyph-name="J.alt" horiz-adv-x="471" 
d="M148 -12c-93 0 -137 41 -137 88c0 38 23 60 62 60c46 0 61 -22 71 -83c4 -23 10 -27 26 -27c38 0 60 21 60 107v460c0 57 -7 62 -36 68l-39 8v24h300v-24l-38 -8c-28 -6 -36 -11 -36 -68v-357c0 -160 -87 -248 -233 -248z" />
    <glyph glyph-name="R.alt" horiz-adv-x="678" 
d="M20 0v24l39 8c27 5 36 11 36 68v493c0 57 -9 62 -36 68l-39 8v24h308c178 0 256 -60 256 -180c0 -95 -52 -157 -198 -178v-3c57 -14 103 -45 139 -100c47 -65 67 -133 100 -180c10 -14 15 -17 33 -23l19 -5v-24h-202c-30 64 -56 150 -95 237c-34 69 -55 78 -106 78h-29
v-215c0 -57 6 -62 35 -68l39 -8v-24h-299zM296 351c92 0 137 38 137 152c0 118 -32 150 -115 150c-35 0 -60 -3 -73 -7v-291c3 0 25 -4 51 -4z" />
    <glyph glyph-name="Jcircumflex.alt" horiz-adv-x="471" 
d="M162 720l-10 15l128 129h45l129 -129l-10 -15l-141 53zM148 -12c-93 0 -137 41 -137 88c0 38 23 60 62 60c46 0 61 -22 71 -83c4 -23 10 -27 26 -27c38 0 60 21 60 107v460c0 57 -7 62 -36 68l-39 8v24h300v-24l-38 -8c-28 -6 -36 -11 -36 -68v-357
c0 -160 -87 -248 -233 -248z" />
    <glyph glyph-name="IJ.alt" horiz-adv-x="805" 
d="M20 0v24l42 8c28 5 36 11 36 68v493c0 57 -8 63 -36 68l-42 8v24h307v-24l-42 -8c-30 -6 -36 -11 -36 -68v-493c0 -57 6 -62 36 -68l42 -8v-24h-307zM493 -12c-95 0 -134 43 -134 88c0 35 22 60 61 60c46 0 61 -23 71 -85c4 -20 11 -25 26 -25c26 0 47 24 47 90l-2 477
c0 57 -7 61 -36 68l-40 8v24h301v-24l-39 -8c-28 -6 -36 -11 -36 -68l2 -371c0 -143 -83 -234 -221 -234z" />
    <glyph glyph-name="Racute.alt" horiz-adv-x="678" 
d="M219 724l-6 16l155 112c15 11 29 17 44 17c28 0 49 -26 49 -55c0 -22 -12 -42 -46 -49zM20 0v24l39 8c27 5 36 11 36 68v493c0 57 -9 62 -36 68l-39 8v24h308c178 0 256 -60 256 -180c0 -95 -52 -157 -198 -178v-3c57 -14 103 -45 139 -100c47 -65 67 -133 100 -180
c10 -14 15 -17 33 -23l19 -5v-24h-202c-30 64 -56 150 -95 237c-34 69 -55 78 -106 78h-29v-215c0 -57 6 -62 35 -68l39 -8v-24h-299zM296 351c92 0 137 38 137 152c0 118 -32 150 -115 150c-35 0 -60 -3 -73 -7v-291c3 0 25 -4 51 -4z" />
    <glyph glyph-name="Rcaron.alt" horiz-adv-x="678" 
d="M300 727l-123 133l10 14l135 -56l135 56l10 -14l-123 -133h-44zM20 0v24l39 8c27 5 36 11 36 68v493c0 57 -9 62 -36 68l-39 8v24h308c178 0 256 -60 256 -180c0 -95 -52 -157 -198 -178v-3c57 -14 103 -45 139 -100c47 -65 67 -133 100 -180c10 -14 15 -17 33 -23l19 -5
v-24h-202c-30 64 -56 150 -95 237c-34 69 -55 78 -106 78h-29v-215c0 -57 6 -62 35 -68l39 -8v-24h-299zM296 351c92 0 137 38 137 152c0 118 -32 150 -115 150c-35 0 -60 -3 -73 -7v-291c3 0 25 -4 51 -4z" />
    <glyph glyph-name="Rcommaaccent.alt" horiz-adv-x="678" 
d="M283 -248l-6 21c66 18 83 46 82 79c-4 -3 -13 -7 -24 -7c-33 0 -53 21 -53 51c0 29 28 54 65 54c41 0 74 -28 74 -76c0 -56 -39 -110 -138 -122zM20 0v24l39 8c27 5 36 11 36 68v493c0 57 -9 62 -36 68l-39 8v24h308c178 0 256 -60 256 -180c0 -95 -52 -157 -198 -178v-3
c57 -14 103 -45 139 -100c47 -65 67 -133 100 -180c10 -14 15 -17 33 -23l19 -5v-24h-202c-30 64 -56 150 -95 237c-34 69 -55 78 -106 78h-29v-215c0 -57 6 -62 35 -68l39 -8v-24h-299zM296 351c92 0 137 38 137 152c0 118 -32 150 -115 150c-35 0 -60 -3 -73 -7v-291
c3 0 25 -4 51 -4z" />
    <glyph glyph-name="f.short" horiz-adv-x="332" 
d="M15 0v23l32 8c27 8 32 14 32 55v377h-70v22l70 31v36c0 131 82 207 194 207c62 0 103 -26 103 -70c0 -32 -19 -53 -53 -53c-39 0 -56 19 -60 66c-2 17 -4 22 -14 22c-18 0 -36 -22 -36 -93v-116h114l-12 -52h-102v-373c0 -47 4 -53 31 -58l44 -9v-23h-273z" />
    <glyph glyph-name="f_f.short" horiz-adv-x="636" 
d="M320 0v23l30 8c27 8 33 14 33 55v377h-170v-373c0 -47 3 -52 30 -59l31 -8v-23h-259v23l32 8c27 8 32 14 32 55v377h-70v22l70 31v23c0 130 94 209 229 209c70 0 110 -26 110 -69v-2c35 53 94 82 159 82c62 0 103 -26 103 -70c0 -32 -19 -53 -53 -53c-39 0 -56 19 -60 66
c-2 17 -5 22 -14 22c-18 0 -36 -22 -36 -93v-116h114l-12 -52h-102v-373c0 -47 4 -53 31 -58l44 -9v-23h-272zM213 602v-87h170v37c0 32 5 61 15 86c-8 -5 -18 -8 -31 -8c-39 0 -58 16 -62 55c-2 23 -7 28 -20 28c-40 0 -72 -26 -72 -111z" />
    <glyph glyph-name="g.short" horiz-adv-x="512" 
d="M209 -208c-142 0 -222 45 -222 118c0 48 45 85 121 104v4c-48 12 -78 44 -78 90c0 52 43 90 77 113v4c-47 23 -82 69 -82 130c0 115 100 174 207 174c44 0 82 -8 116 -24c29 27 66 48 103 48c33 0 57 -19 57 -53c0 -30 -17 -49 -45 -49c-27 0 -38 13 -47 33
c-9 19 -24 17 -47 5v-4c40 -23 70 -65 70 -119c0 -116 -100 -172 -207 -172c-35 0 -68 6 -97 17c-12 -10 -26 -28 -26 -48c0 -22 16 -36 55 -36h170c91 0 158 -29 158 -132c0 -100 -83 -203 -283 -203zM228 -173c108 0 176 40 176 111c0 44 -25 71 -90 71h-167
c-23 -9 -51 -35 -51 -81c0 -64 39 -101 132 -101zM232 228c53 0 78 32 78 127c0 105 -26 140 -78 140c-53 0 -79 -34 -79 -129c0 -104 27 -138 79 -138z" />
    <glyph glyph-name="gbreve.short" horiz-adv-x="512" 
d="M209 -208c-142 0 -222 45 -222 118c0 48 45 85 121 104v4c-48 12 -78 44 -78 90c0 52 43 90 77 113v4c-47 23 -82 69 -82 130c0 115 100 174 207 174c44 0 82 -8 116 -24c29 27 66 48 103 48c33 0 57 -19 57 -53c0 -30 -17 -49 -45 -49c-27 0 -38 13 -47 33
c-9 19 -24 17 -47 5v-4c40 -23 70 -65 70 -119c0 -116 -100 -172 -207 -172c-35 0 -68 6 -97 17c-12 -10 -26 -28 -26 -48c0 -22 16 -36 55 -36h170c91 0 158 -29 158 -132c0 -100 -83 -203 -283 -203zM228 -173c108 0 176 40 176 111c0 44 -25 71 -90 71h-167
c-23 -9 -51 -35 -51 -81c0 -64 39 -101 132 -101zM232 228c53 0 78 32 78 127c0 105 -26 140 -78 140c-53 0 -79 -34 -79 -129c0 -104 27 -138 79 -138zM240 576c-71 0 -117 66 -126 140l22 6c18 -36 48 -64 104 -64c54 0 85 25 103 64l22 -6c-8 -74 -53 -140 -125 -140z
" />
    <glyph glyph-name="gcircumflex.short" horiz-adv-x="512" 
d="M105 573l-10 15l122 140h45l123 -140l-10 -15l-135 64zM209 -208c-142 0 -222 45 -222 118c0 48 45 85 121 104v4c-48 12 -78 44 -78 90c0 52 43 90 77 113v4c-47 23 -82 69 -82 130c0 115 100 174 207 174c44 0 82 -8 116 -24c29 27 66 48 103 48c33 0 57 -19 57 -53
c0 -30 -17 -49 -45 -49c-27 0 -38 13 -47 33c-9 19 -24 17 -47 5v-4c40 -23 70 -65 70 -119c0 -116 -100 -172 -207 -172c-35 0 -68 6 -97 17c-12 -10 -26 -28 -26 -48c0 -22 16 -36 55 -36h170c91 0 158 -29 158 -132c0 -100 -83 -203 -283 -203zM228 -173
c108 0 176 40 176 111c0 44 -25 71 -90 71h-167c-23 -9 -51 -35 -51 -81c0 -64 39 -101 132 -101zM232 228c53 0 78 32 78 127c0 105 -26 140 -78 140c-53 0 -79 -34 -79 -129c0 -104 27 -138 79 -138z" />
    <glyph glyph-name="gcommaaccent.short" horiz-adv-x="512" 
d="M308 775l6 -21c-66 -18 -83 -47 -83 -80c5 4 14 8 25 8c32 0 53 -21 53 -51c0 -29 -28 -55 -65 -55c-42 0 -75 28 -75 77c0 56 39 109 139 122zM209 -208c-142 0 -222 45 -222 118c0 48 45 85 121 104v4c-48 12 -78 44 -78 90c0 52 43 90 77 113v4c-47 23 -82 69 -82 130
c0 115 100 174 207 174c44 0 82 -8 116 -24c29 27 66 48 103 48c33 0 57 -19 57 -53c0 -30 -17 -49 -45 -49c-27 0 -38 13 -47 33c-9 19 -24 17 -47 5v-4c40 -23 70 -65 70 -119c0 -116 -100 -172 -207 -172c-35 0 -68 6 -97 17c-12 -10 -26 -28 -26 -48
c0 -22 16 -36 55 -36h170c91 0 158 -29 158 -132c0 -100 -83 -203 -283 -203zM228 -173c108 0 176 40 176 111c0 44 -25 71 -90 71h-167c-23 -9 -51 -35 -51 -81c0 -64 39 -101 132 -101zM232 228c53 0 78 32 78 127c0 105 -26 140 -78 140c-53 0 -79 -34 -79 -129
c0 -104 27 -138 79 -138z" />
    <glyph glyph-name="gdotaccent.short" horiz-adv-x="512" 
d="M209 -208c-142 0 -222 45 -222 118c0 48 45 85 121 104v4c-48 12 -78 44 -78 90c0 52 43 90 77 113v4c-47 23 -82 69 -82 130c0 115 100 174 207 174c44 0 82 -8 116 -24c29 27 66 48 103 48c33 0 57 -19 57 -53c0 -30 -17 -49 -45 -49c-27 0 -38 13 -47 33
c-9 19 -24 17 -47 5v-4c40 -23 70 -65 70 -119c0 -116 -100 -172 -207 -172c-35 0 -68 6 -97 17c-12 -10 -26 -28 -26 -48c0 -22 16 -36 55 -36h170c91 0 158 -29 158 -132c0 -100 -83 -203 -283 -203zM228 -173c108 0 176 40 176 111c0 44 -25 71 -90 71h-167
c-23 -9 -51 -35 -51 -81c0 -64 39 -101 132 -101zM232 228c53 0 78 32 78 127c0 105 -26 140 -78 140c-53 0 -79 -34 -79 -129c0 -104 27 -138 79 -138zM239 575c-39 0 -71 30 -71 68c0 39 32 68 71 68c40 0 72 -29 72 -68c0 -38 -32 -68 -72 -68z" />
    <glyph glyph-name="registered.alt" horiz-adv-x="788" 
d="M207 147v19l22 5c19 4 24 6 24 42v267c0 35 -5 38 -23 42l-23 5v18h185c111 0 163 -36 163 -107c0 -50 -29 -80 -81 -95v-3c24 -52 54 -111 82 -154c4 -7 11 -12 22 -15l20 -5v-19h-128c-29 45 -63 119 -84 172l-36 1v-107c0 -36 4 -39 24 -42l23 -5v-19h-190zM393 -16
c-202 0 -356 162 -356 360s154 358 356 358c201 0 358 -160 358 -358s-157 -360 -358 -360zM393 22c182 0 312 145 312 322s-130 321 -312 321c-183 0 -312 -144 -312 -321s129 -322 312 -322zM380 346c58 0 74 27 74 86c0 62 -22 85 -66 85c-6 0 -37 0 -38 -1v-168
c8 -1 20 -2 30 -2z" />
    <glyph glyph-name="questiondown.uc" horiz-adv-x="456" 
d="M308 487v-174c-70 -25 -145 -64 -145 -168c0 -93 43 -119 91 -119c32 0 39 8 44 42c7 51 28 74 73 74c41 0 60 -28 60 -57c0 -62 -75 -97 -173 -97c-140 0 -223 68 -223 188c0 121 96 191 225 224v87h48zM358 626c0 -41 -33 -74 -73 -74c-41 0 -74 33 -74 74
c0 40 33 73 74 73c40 0 73 -33 73 -73z" />
    <glyph glyph-name="exclamdown.uc" horiz-adv-x="275" 
d="M59 102l64 385h29l65 -385c15 -77 -26 -111 -79 -111c-54 0 -95 34 -79 111zM64 626c0 40 33 73 74 73c40 0 73 -33 73 -73c0 -41 -33 -74 -73 -74c-41 0 -74 33 -74 74z" />
    <glyph glyph-name="hyphen.uc" horiz-adv-x="273" 
d="M24 301l10 89h215l-11 -89h-214z" />
    <glyph glyph-name="endash.uc" horiz-adv-x="383" 
d="M40 321v46h303v-46h-303z" />
    <glyph glyph-name="emdash.uc" horiz-adv-x="610" 
d="M40 321v46h529v-46h-529z" />
    <glyph glyph-name="guilsinglleft.uc" horiz-adv-x="274" 
d="M207 124l-172 198v19l172 198h32l-93 -207l93 -208h-32z" />
    <glyph glyph-name="guilsinglright.uc" horiz-adv-x="274" 
d="M35 124l93 208l-93 207h33l172 -198v-19l-172 -198h-33z" />
    <glyph glyph-name="guillemotleft.uc" horiz-adv-x="448" 
d="M207 124l-172 198v19l172 198h32l-93 -207l93 -208h-32zM381 124l-172 198v19l172 198h32l-93 -207l93 -208h-32z" />
    <glyph glyph-name="guillemotright.uc" horiz-adv-x="448" 
d="M35 124l93 208l-93 207h33l172 -198v-19l-172 -198h-33zM209 124l93 208l-93 207h33l172 -198v-19l-172 -198h-33z" />
    <glyph glyph-name="parenleft.uc" horiz-adv-x="317" 
d="M286 -97c-109 80 -247 222 -247 443c0 202 138 363 247 443l21 -19c-92 -91 -157 -240 -157 -404c0 -215 65 -345 157 -444z" />
    <glyph glyph-name="parenright.uc" horiz-adv-x="317" 
d="M31 -97l-20 19c91 99 156 236 156 419c0 196 -65 338 -156 429l20 19c109 -80 248 -230 248 -443c0 -209 -139 -363 -248 -443z" />
    <glyph glyph-name="bracketleft.uc" horiz-adv-x="340" 
d="M92 -86v864h223v-24l-76 -9c-43 -5 -50 -11 -50 -69v-659c0 -58 7 -65 50 -70l76 -9v-24h-223z" />
    <glyph glyph-name="bracketright.uc" horiz-adv-x="340" 
d="M25 -86v24l76 9c43 5 51 12 51 70v659c0 58 -8 64 -51 69l-76 9v24h223v-864h-223z" />
    <glyph glyph-name="braceleft.uc" horiz-adv-x="358" 
d="M328 -86c-173 10 -220 48 -220 118c0 53 47 201 47 240c0 30 -18 55 -112 60v32c93 5 112 31 112 61c0 40 -47 184 -47 237c0 69 47 108 220 117v-25c-98 -14 -113 -23 -113 -85c0 -73 24 -159 24 -215c0 -57 -35 -87 -131 -104v-4c105 -16 131 -46 131 -103
c0 -56 -24 -145 -24 -218c0 -63 15 -72 113 -85v-26z" />
    <glyph glyph-name="braceright.uc" horiz-adv-x="358" 
d="M38 -86v26c98 13 113 22 113 85c0 73 -24 161 -24 217c0 57 35 87 131 104v4c-105 16 -131 46 -131 103c0 56 24 143 24 216c0 62 -15 71 -113 85v25c173 -9 220 -48 220 -117c0 -53 -47 -199 -47 -238c0 -30 18 -55 112 -60v-32c-93 -5 -112 -31 -112 -61
c0 -40 47 -186 47 -239c0 -70 -47 -108 -220 -118z" />
    <glyph glyph-name="slash.uc" horiz-adv-x="378" 
d="M8 -86l308 864h52l-308 -864h-52z" />
    <glyph glyph-name="backslash.uc" horiz-adv-x="378" 
d="M316 -86l-308 864h52l308 -864h-52z" />
    <glyph glyph-name="bar.uc" horiz-adv-x="224" 
d="M87 -86v864h50v-864h-50z" />
    <glyph glyph-name="at.uc" horiz-adv-x="791" 
d="M379 -18c-206 0 -353 114 -353 322c0 227 194 409 414 409c202 0 329 -112 329 -279c0 -206 -132 -292 -239 -292c-83 0 -100 43 -99 85h-4c-30 -47 -78 -84 -129 -84c-60 0 -101 42 -101 126c0 165 126 289 242 289c47 0 82 -16 111 -36h2l42 31l13 -6s-9 -26 -25 -101
l-32 -168c-10 -58 -5 -91 33 -91c52 0 117 64 117 220c0 159 -89 270 -262 270c-178 0 -331 -131 -331 -352c0 -181 89 -301 292 -301c85 0 160 21 214 48v-33c-42 -26 -139 -57 -234 -57zM355 214c28 0 50 27 73 63l42 223c-6 17 -15 28 -38 28c-56 0 -114 -130 -114 -250
c0 -47 14 -64 37 -64z" />
    <glyph glyph-name="A.sc" 
d="M4 0v23l19 6c28 9 37 19 58 75l177 486h77l187 -489c22 -55 31 -64 57 -72l18 -6v-23h-266v23l22 6c23 6 32 16 32 34c0 12 -7 35 -16 59l-25 67h-185l-23 -67c-8 -24 -14 -45 -14 -58c0 -22 12 -29 38 -35l23 -6v-23h-179zM246 441l-74 -215h158l-80 215h-4z" />
    <glyph glyph-name="B.sc" horiz-adv-x="568" 
d="M296 37c63 0 103 38 103 125c0 88 -33 128 -115 128h-64v-196c0 -48 16 -57 76 -57zM220 327h55c71 0 103 39 103 108c0 85 -31 118 -102 118c-21 0 -42 -2 -56 -5v-221zM22 0v23l29 8c25 6 32 9 32 59v410c0 50 -7 54 -32 60l-29 7v23h263c150 0 229 -42 229 -140
c0 -76 -53 -118 -159 -134v-4c128 -14 188 -55 188 -146c0 -108 -85 -166 -234 -166h-287z" />
    <glyph glyph-name="C.sc" horiz-adv-x="556" 
d="M323 -13c-170 0 -294 99 -294 303c0 221 147 313 315 313c58 0 127 -10 166 -22l8 -176h-27c-21 43 -40 81 -59 111c-25 37 -53 49 -99 49c-107 0 -159 -75 -159 -259c0 -211 52 -280 155 -280c62 0 87 17 112 57c19 31 35 64 56 109h26l-8 -167
c-42 -18 -115 -38 -192 -38z" />
    <glyph glyph-name="D.sc" horiz-adv-x="634" 
d="M292 36c123 0 170 91 170 249c0 193 -55 268 -174 268c-25 0 -53 -3 -68 -7v-435c0 -62 13 -75 72 -75zM22 590h280c178 0 302 -82 302 -286c0 -194 -121 -304 -306 -304h-276v23l29 8c25 6 32 9 32 59v410c0 50 -7 54 -32 60l-29 7v23z" />
    <glyph glyph-name="E.sc" horiz-adv-x="548" 
d="M22 590h466l10 -168h-30c-18 37 -34 67 -46 85c-26 39 -43 46 -111 46c-35 0 -74 -5 -91 -8v-221h29c70 0 87 7 101 33c8 15 15 36 21 58h28v-221h-28c-7 22 -14 42 -22 59c-13 27 -25 34 -100 34h-29v-166c0 -75 6 -84 100 -84c70 0 86 6 113 51c20 33 37 69 55 110h31
l-14 -198h-483v23l29 8c25 6 32 9 32 59v410c0 50 -7 54 -32 60l-29 7v23z" />
    <glyph glyph-name="F.sc" horiz-adv-x="516" 
d="M235 278h-15v-187c0 -50 6 -55 35 -60l41 -7v-24h-274v23l29 8c25 6 32 9 32 59v410c0 50 -7 54 -32 60l-29 7v23h459l8 -173h-28c-18 35 -34 67 -49 90c-24 38 -42 45 -110 45c-28 0 -62 -2 -82 -7v-231h15c69 0 89 8 102 33c8 16 15 40 22 61h28v-228h-28
c-7 21 -14 46 -23 64c-12 27 -26 34 -101 34z" />
    <glyph glyph-name="G.sc" horiz-adv-x="605" 
d="M337 -13c-200 0 -307 106 -307 305c0 222 144 311 322 311c63 0 127 -10 169 -21l11 -178h-30c-21 42 -38 76 -57 107c-26 43 -47 54 -106 54c-112 0 -167 -84 -167 -257c0 -199 42 -282 162 -282c34 0 61 8 80 17v127c0 49 -7 53 -32 59l-32 7v24h246v-24l-22 -6
c-24 -7 -28 -11 -28 -60v-147c-49 -18 -130 -36 -209 -36z" />
    <glyph glyph-name="H.sc" horiz-adv-x="659" 
d="M22 0v23l29 8c25 6 32 9 32 59v410c0 50 -7 54 -32 60l-29 7v23h262v-23l-31 -7c-26 -6 -33 -10 -33 -60v-179h219v179c0 50 -6 54 -32 60l-30 7v23h261v-23l-29 -7c-25 -6 -33 -10 -33 -60v-410c0 -50 7 -53 33 -59l29 -8v-23h-261v23l30 8c27 6 32 9 32 59v192h-219
v-192c0 -50 6 -53 33 -59l31 -8v-23h-262z" />
    <glyph glyph-name="I.sc" horiz-adv-x="308" 
d="M22 590h264v-23l-30 -7c-25 -6 -33 -10 -33 -60v-410c0 -50 8 -53 33 -59l30 -8v-23h-264v23l30 8c25 6 32 9 32 59v410c0 50 -7 54 -32 60l-30 7v23z" />
    <glyph glyph-name="J.sc" horiz-adv-x="305" 
d="M84 -69v569c0 50 -8 54 -33 60l-32 7v23h265v-23l-29 -7c-25 -6 -34 -10 -34 -60v-469c0 -135 -73 -207 -200 -207c-82 0 -122 32 -122 72c0 33 20 57 57 57c42 0 59 -19 69 -73c4 -15 9 -20 21 -20c22 0 38 18 38 71z" />
    <glyph glyph-name="K.sc" horiz-adv-x="610" 
d="M428 0c-68 84 -134 184 -184 283v13l158 178c22 25 33 43 33 55c0 15 -8 23 -34 31l-23 7v23h202v-23l-18 -6c-30 -9 -40 -15 -82 -62l-130 -142c55 -105 136 -226 198 -304c14 -17 19 -19 33 -23l24 -7v-23h-177zM22 0v23l29 8c25 6 32 9 32 59v410c0 50 -7 54 -32 60
l-29 7v23h262v-23l-31 -7c-26 -6 -33 -10 -33 -60v-410c0 -50 6 -53 33 -59l31 -8v-23h-262z" />
    <glyph glyph-name="L.sc" horiz-adv-x="519" 
d="M22 0v23l29 8c25 6 32 9 32 59v410c0 50 -7 54 -32 60l-29 7v23h268v-23l-36 -8c-26 -5 -34 -9 -34 -59v-386c0 -68 7 -77 82 -77c70 0 88 8 115 53c19 32 37 72 55 114h31l-13 -204h-468z" />
    <glyph glyph-name="M.sc" horiz-adv-x="758" 
d="M540 90v424h-4l-169 -501h-53l-181 501h-4v-424c0 -50 8 -53 34 -59l32 -8v-23h-173v23l29 8c25 6 32 9 32 59v410c0 50 -7 54 -32 60l-29 7v23h224l137 -385h3l131 385h220v-23l-29 -7c-26 -6 -33 -10 -33 -60v-410c0 -50 7 -53 33 -59l29 -8v-23h-259v23l28 8
c26 6 34 9 34 59z" />
    <glyph glyph-name="N.sc" horiz-adv-x="607" 
d="M129 480v-390c0 -50 9 -53 35 -59l33 -8v-23h-175v23l29 8c24 6 32 9 32 59v410c0 50 -7 54 -32 60l-29 7v23h201l256 -378h4v283c0 53 -7 59 -40 66l-33 6v23h179v-23l-24 -6c-27 -7 -36 -13 -36 -66v-497h-71l-326 482h-3z" />
    <glyph glyph-name="O.sc" horiz-adv-x="637" 
d="M313 -13c-150 0 -284 99 -284 300c0 224 152 316 292 316c153 0 287 -95 287 -302c0 -225 -151 -314 -295 -314zM319 26c100 0 147 66 147 257c0 180 -38 281 -150 281c-97 0 -145 -68 -145 -259c0 -179 37 -279 148 -279z" />
    <glyph glyph-name="P.sc" horiz-adv-x="548" 
d="M22 590h270c154 0 236 -55 236 -174c0 -100 -72 -183 -202 -183c-34 0 -59 5 -70 11v25c90 -1 132 37 132 142c0 104 -30 142 -103 142c-20 0 -51 -3 -65 -7v-456c0 -51 6 -54 34 -59l43 -7v-24h-275v23l29 8c25 6 32 9 32 59v410c0 50 -7 54 -32 60l-29 7v23z" />
    <glyph glyph-name="Q.sc" horiz-adv-x="637" 
d="M509 -155c-60 0 -109 19 -160 55c-38 26 -72 59 -113 103c-121 29 -207 123 -207 284c0 224 152 316 292 316c153 0 287 -95 287 -302c0 -174 -90 -259 -202 -289v-3c19 -24 44 -47 70 -66c37 -25 71 -36 115 -36c26 0 53 11 67 17v-22c-25 -27 -73 -57 -149 -57zM319 25
c100 0 147 70 147 258c0 178 -38 281 -150 281c-97 0 -145 -71 -145 -259c0 -177 37 -280 148 -280z" />
    <glyph glyph-name="R.sc" 
d="M284 23v-23h-262v23l29 8c25 6 32 9 32 59v410c0 50 -7 54 -32 60l-29 7v23h270c167 0 233 -53 233 -155c0 -74 -43 -119 -128 -143v-3c39 -76 99 -175 147 -238c10 -13 19 -18 37 -23l18 -5v-23h-174c-54 68 -113 178 -152 261h-54v-171c0 -50 5 -53 32 -59zM263 294
c84 0 120 37 120 130c0 96 -29 129 -99 129c-23 0 -45 -2 -65 -6v-249c10 -2 31 -4 44 -4z" />
    <glyph glyph-name="S.sc" horiz-adv-x="468" 
d="M215 -13c-73 0 -134 13 -179 28l-10 165h30c20 -39 38 -72 60 -103c26 -39 49 -51 108 -51c68 0 107 39 107 91c0 53 -31 83 -134 124c-119 46 -164 99 -164 185c0 100 84 177 212 177c58 0 111 -10 150 -22l9 -145h-28c-17 33 -33 60 -52 88c-21 31 -42 40 -90 40
c-64 0 -103 -31 -103 -82c0 -47 22 -73 119 -112c139 -54 188 -113 188 -200c0 -101 -84 -183 -223 -183z" />
    <glyph glyph-name="T.sc" horiz-adv-x="561" 
d="M543 398h-30c-18 42 -33 79 -51 111c-19 35 -32 44 -103 44h-9v-463c0 -50 10 -54 38 -59l35 -8v-23h-285v23l35 8c27 5 38 9 38 59v463h-9c-71 0 -85 -9 -103 -44c-18 -32 -33 -69 -51 -111h-31l8 192h510z" />
    <glyph glyph-name="U.sc" horiz-adv-x="613" 
d="M213 500v-322c0 -91 42 -137 140 -137s141 53 141 143v311c0 55 -10 60 -40 65l-38 7v23h183v-23l-24 -6c-26 -7 -37 -11 -37 -66v-316c0 -105 -65 -192 -218 -192c-158 0 -245 67 -245 201v312c0 50 -7 55 -32 60l-32 7v23h261v-23l-28 -7c-25 -7 -31 -10 -31 -60z" />
    <glyph glyph-name="V.sc" horiz-adv-x="591" 
d="M264 0l-188 488c-20 54 -28 65 -55 73l-17 6v23h264v-23l-23 -6c-21 -6 -30 -15 -30 -34c0 -12 6 -35 15 -60l116 -317h4l108 316c8 21 14 47 14 59c0 21 -10 30 -35 36l-26 6v23h176v-23l-19 -7c-28 -9 -33 -18 -57 -84l-169 -476h-78z" />
    <glyph glyph-name="W.sc" horiz-adv-x="875" 
d="M245 0l-164 485c-20 58 -28 69 -56 76l-20 6v23h259v-23l-19 -6c-24 -6 -32 -15 -32 -33c0 -10 5 -29 13 -55l103 -316h5l92 263l-24 75c-16 48 -21 56 -54 66l-17 6v23h255v-23l-26 -7c-23 -6 -29 -17 -29 -35c0 -11 5 -36 13 -59l101 -308h4l91 308c6 22 12 46 12 62
c0 19 -9 29 -33 33l-26 6v23h177v-23l-18 -6c-34 -10 -40 -22 -63 -95l-146 -466h-78l-115 350h-4l-123 -350h-78z" />
    <glyph glyph-name="X.sc" horiz-adv-x="607" 
d="M15 0v23l17 5c29 8 40 14 79 73l123 187l-134 212c-25 38 -33 50 -60 61l-18 6v23h278v-23l-28 -7c-17 -4 -25 -12 -25 -26c0 -11 6 -28 22 -55l79 -128h3l75 132c13 21 20 38 20 51c0 15 -9 23 -29 27l-24 6v23h179v-23l-18 -6c-27 -9 -36 -17 -71 -74l-109 -173
l139 -221c27 -44 37 -58 61 -65l16 -5v-23h-271v23l27 5c18 3 26 11 26 24c0 14 -10 31 -24 54l-87 144h-3l-88 -139c-15 -24 -24 -43 -24 -55c0 -16 10 -25 26 -28l23 -5v-23h-180z" />
    <glyph glyph-name="Y.sc" horiz-adv-x="567" 
d="M223 90v147l-140 251c-32 56 -39 64 -64 73l-15 6v23h269v-23l-20 -6c-26 -7 -34 -16 -34 -33c0 -12 6 -28 16 -48l96 -189h4l90 183c11 22 18 39 18 51c0 17 -9 27 -38 36l-20 6v23h178v-23l-13 -6c-31 -12 -43 -27 -72 -83l-117 -233v-155c0 -50 8 -53 34 -59l32 -8
v-23h-269v23l31 8c26 6 34 9 34 59z" />
    <glyph glyph-name="Z.sc" horiz-adv-x="526" 
d="M29 0v36l312 515v3h-36c-129 0 -149 -9 -172 -45c-19 -30 -37 -63 -56 -103h-27l9 184h430v-37l-309 -512v-3h33c138 0 159 8 185 44c20 31 42 76 62 119h29l-14 -201h-446z" />
    <glyph glyph-name="Oslash.sc" horiz-adv-x="637" 
d="M81 -53l59 94c-67 49 -111 131 -111 246c0 224 152 316 292 316c52 0 104 -12 148 -36l34 54h46l-48 -76c64 -48 107 -129 107 -244c0 -225 -151 -314 -295 -314c-50 0 -98 11 -140 33l-46 -73h-46zM171 305c0 -78 5 -139 19 -183l240 383c-23 40 -60 60 -114 60
c-97 0 -145 -69 -145 -260zM319 25c100 0 148 67 148 258c0 74 -5 133 -18 178l-240 -382c23 -37 58 -54 110 -54z" />
    <glyph glyph-name="AE.sc" horiz-adv-x="822" 
d="M298 590h465l9 -168h-29c-18 37 -34 67 -46 85c-26 39 -45 46 -111 46c-27 0 -65 -4 -82 -8v-221h23c65 0 81 8 94 33c8 15 16 38 22 58h28v-221h-28c-7 21 -15 42 -23 59c-12 27 -22 34 -93 34h-23v-166c0 -75 14 -84 90 -84c70 0 86 6 113 51c20 33 37 69 55 110h31
l-14 -198h-471v23l31 8c25 6 33 9 33 59v90h-185l-32 -57c-19 -32 -27 -53 -27 -65c0 -15 8 -24 28 -29l23 -6v-23h-180v23l16 6c36 12 41 17 79 80l261 441c-7 5 -16 8 -26 10l-31 7v23zM371 499l-163 -283h164v283h-1z" />
    <glyph glyph-name="OE.sc" horiz-adv-x="865" 
d="M806 590l10 -168h-30c-18 37 -34 67 -46 85c-26 39 -43 46 -111 46c-28 0 -66 -4 -83 -8v-221h28c64 0 79 8 92 34c7 14 15 37 21 57h29v-221h-29c-7 21 -15 42 -22 58c-13 28 -21 35 -91 35h-28v-166c0 -75 11 -84 91 -84c70 0 86 6 113 52c21 33 38 68 56 109h30
l-13 -198h-501c-151 0 -293 74 -293 289c0 207 143 301 300 301h477zM328 556c-116 0 -157 -81 -157 -249c0 -199 47 -274 159 -274c64 0 78 19 78 85v361c0 59 -8 77 -80 77z" />
    <glyph glyph-name="Eth.sc" horiz-adv-x="634" 
d="M21 277v39h62v184c0 50 -7 54 -32 60l-29 7v23h280c178 0 302 -82 302 -286c0 -194 -121 -304 -306 -304h-276v23l29 8c25 6 32 9 32 59v187h-62zM292 36c123 0 170 91 170 249c0 193 -55 268 -174 268c-25 0 -53 -3 -68 -7v-230h133v-39h-133v-166c0 -62 13 -75 72 -75z
" />
    <glyph glyph-name="Dcroat.sc" horiz-adv-x="634" 
d="M21 277v39h62v184c0 50 -7 54 -32 60l-29 7v23h280c178 0 302 -82 302 -286c0 -194 -121 -304 -306 -304h-276v23l29 8c25 6 32 9 32 59v187h-62zM292 36c123 0 170 91 170 249c0 193 -55 268 -174 268c-25 0 -53 -3 -68 -7v-230h133v-39h-133v-166c0 -62 13 -75 72 -75z
" />
    <glyph glyph-name="Eng.sc" horiz-adv-x="607" 
d="M129 479v-389c0 -50 9 -53 35 -59l33 -8v-23h-175v23l29 8c24 6 32 9 32 59v410c0 50 -7 54 -32 60l-29 7v23h199l258 -366h4v271c0 53 -7 59 -40 66l-33 6v23h179v-23l-24 -6c-27 -7 -36 -13 -36 -66v-516c0 -101 -41 -155 -126 -155c-78 0 -117 33 -117 72
c0 29 18 52 55 52c39 0 56 -17 67 -66c5 -18 10 -21 22 -21c27 0 53 30 53 113v14l-351 491h-3z" />
    <glyph glyph-name="IJ.sc" horiz-adv-x="612" 
d="M22 590h264v-23l-30 -7c-25 -6 -33 -10 -33 -60v-410c0 -50 8 -53 33 -59l30 -8v-23h-264v23l30 8c25 6 32 9 32 59v410c0 50 -7 54 -32 60l-30 7v23zM391 -69v569c0 50 -8 54 -33 60l-32 7v23h265v-23l-29 -7c-25 -6 -34 -10 -34 -60v-469c0 -135 -73 -207 -200 -207
c-82 0 -122 32 -122 72c0 33 20 57 57 57c42 0 59 -19 69 -73c4 -15 9 -20 21 -20c22 0 38 18 38 71z" />
    <glyph glyph-name="Aacute.sc" 
d="M4 0v23l19 6c28 9 37 19 58 75l177 486h77l187 -489c22 -55 31 -64 57 -72l18 -6v-23h-266v23l22 6c23 6 32 16 32 34c0 12 -7 35 -16 59l-25 67h-185l-23 -67c-8 -24 -14 -45 -14 -58c0 -22 12 -29 38 -35l23 -6v-23h-179zM246 441l-74 -215h158l-80 215h-4zM203 655
l-7 16l142 119c16 14 31 20 46 20c28 0 49 -26 49 -53c0 -20 -11 -43 -42 -52z" />
    </font>
</defs>
</svg>
